<?xml version="1.0"?>
<svg xmlns="http://www.w3.org/2000/svg" version="1.1" width="500px" height="500px" viewBox="0 0 200 200" style="overflow:hidden!important;">
  <defs id="SvgjsDefs17257">
    <radialGradient id="SvgjsRadialGradient17318" cx="100" cy="113" r="40" gradientUnits="userSpaceOnUse" class="svga-on-canvas-facehighlight-gradient-single-0">
      <stop id="SvgjsStop17319" stop-opacity="0.5" stop-color="#fff4f3" offset="0"/>
      <stop id="SvgjsStop17320" stop-opacity="0" stop-color="#f3d4cf" offset="0.9"/>
    </radialGradient>
    <radialGradient id="SvgjsRadialGradient17322" cx="100" cy="57" r="36" gradientUnits="userSpaceOnUse" class="svga-on-canvas-facehighlight-gradient-single-1">
      <stop id="SvgjsStop17323" stop-opacity="0.5" stop-color="#fff4f3" offset="0"/>
      <stop id="SvgjsStop17324" stop-opacity="0" stop-color="#f3d4cf" offset="0.9"/>
    </radialGradient>
    <radialGradient id="SvgjsRadialGradient17403" cx="-558.588" cy="-490.918" r="84.646" gradientTransform="matrix(0.096 -0.0248 0.0245 0.0961 140.5478 120.3577)" gradientUnits="userSpaceOnUse" class="svga-on-canvas-eyesiris-gradient-left-1">
      <stop id="SvgjsStop17404" stop-opacity="0.8" stop-color="#ffffff" offset="0"/>
      <stop id="SvgjsStop17405" stop-opacity="0" stop-color="#ffffff" offset="1"/>
    </radialGradient>
    <radialGradient id="SvgjsRadialGradient17407" cx="-565.337" cy="-492.691" r="84.644" gradientTransform="matrix(0.0991 8.856325e-004 -0.0011 0.0991 130.3774 136.3533)" gradientUnits="userSpaceOnUse" class="svga-on-canvas-eyesiris-gradient-left-2">
      <stop id="SvgjsStop17408" stop-opacity="0.8" stop-color="#ffffff" offset="0"/>
      <stop id="SvgjsStop17409" stop-opacity="0" stop-color="#ffffff" offset="1"/>
    </radialGradient>
    <linearGradient id="SvgjsLinearGradient17413" x1="122.283" y1="93.047" x2="123.61" y2="91.466" gradientTransform="matrix(1 0 0 1 -52 0)" gradientUnits="userSpaceOnUse" class="svga-on-canvas-eyesiris-gradient-left-5">
      <stop id="SvgjsStop17414" stop-opacity="1" stop-color="#ffffff" offset="0"/>
      <stop id="SvgjsStop17415" stop-opacity="0" stop-color="#ffffff" offset="1"/>
    </linearGradient>
    <linearGradient id="SvgjsLinearGradient17417" x1="127" y1="85" x2="125" y2="87" gradientTransform="matrix(1 0 0 1 -50 0)" gradientUnits="userSpaceOnUse" class="svga-on-canvas-eyesiris-gradient-left-6">
      <stop id="SvgjsStop17418" stop-opacity="1" stop-color="#ffffff" offset="0"/>
      <stop id="SvgjsStop17419" stop-opacity="0" stop-color="#ffffff" offset="1"/>
    </linearGradient>
    <linearGradient id="SvgjsLinearGradient17421" x1="130" y1="81" x2="126" y2="85" gradientTransform="matrix(1 0 0 1 -50 0)" gradientUnits="userSpaceOnUse" class="svga-on-canvas-eyesiris-gradient-left-7">
      <stop id="SvgjsStop17422" stop-opacity="1" stop-color="#ffffff" offset="0"/>
      <stop id="SvgjsStop17423" stop-opacity="0" stop-color="#ffffff" offset="1"/>
    </linearGradient>
    <radialGradient id="SvgjsRadialGradient17426" cx="-578.76" cy="-490.73" r="84.646" gradientTransform="matrix(0.096 -0.0248 0.0245 0.0961 192.4794 119.8404)" gradientUnits="userSpaceOnUse" class="svga-on-canvas-eyesiris-gradient-right-1">
      <stop id="SvgjsStop17427" stop-opacity="0.8" stop-color="#ffffff" offset="0"/>
      <stop id="SvgjsStop17428" stop-opacity="0" stop-color="#ffffff" offset="1"/>
    </radialGradient>
    <radialGradient id="SvgjsRadialGradient17430" cx="-584.778" cy="-487.329" r="84.644" gradientTransform="matrix(0.0991 8.856325e-004 -0.0011 0.0991 182.3104 135.839)" gradientUnits="userSpaceOnUse" class="svga-on-canvas-eyesiris-gradient-right-2">
      <stop id="SvgjsStop17431" stop-opacity="0.8" stop-color="#ffffff" offset="0"/>
      <stop id="SvgjsStop17432" stop-opacity="0" stop-color="#ffffff" offset="1"/>
    </radialGradient>
    <linearGradient id="SvgjsLinearGradient17436" x1="120.284" y1="93.047" x2="121.611" y2="91.467" gradientUnits="userSpaceOnUse" class="svga-on-canvas-eyesiris-gradient-right-5">
      <stop id="SvgjsStop17437" stop-opacity="1" stop-color="#ffffff" offset="0"/>
      <stop id="SvgjsStop17438" stop-opacity="0" stop-color="#ffffff" offset="1"/>
    </linearGradient>
    <linearGradient id="SvgjsLinearGradient17440" x1="127" y1="85" x2="125" y2="87" gradientUnits="userSpaceOnUse" class="svga-on-canvas-eyesiris-gradient-right-6">
      <stop id="SvgjsStop17441" stop-opacity="1" stop-color="#ffffff" offset="0"/>
      <stop id="SvgjsStop17442" stop-opacity="0" stop-color="#ffffff" offset="1"/>
    </linearGradient>
    <linearGradient id="SvgjsLinearGradient17444" x1="130" y1="81" x2="126" y2="85" gradientUnits="userSpaceOnUse" class="svga-on-canvas-eyesiris-gradient-right-7">
      <stop id="SvgjsStop17445" stop-opacity="1" stop-color="#ffffff" offset="0"/>
      <stop id="SvgjsStop17446" stop-opacity="0" stop-color="#ffffff" offset="1"/>
    </linearGradient>
    <linearGradient id="SvgjsLinearGradient17558" x1="100" y1="141" x2="100" y2="138" gradientUnits="userSpaceOnUse" class="svga-on-canvas-mouth-gradient-single-0">
      <stop id="SvgjsStop17559" stop-opacity="1" stop-color="#ebc3bd" offset="0.1"/>
      <stop id="SvgjsStop17560" stop-opacity="1" stop-color="#e4b3ab" offset="1"/>
    </linearGradient>
    <linearGradient id="SvgjsLinearGradient17587" x1="99.98" y1="171.27" x2="99.98" y2="136.351" gradientUnits="userSpaceOnUse" class="svga-on-canvas-chinshadow-gradient-single-0">
      <stop id="SvgjsStop17588" stop-opacity="0.8" stop-color="#e4b3ab" offset="0"/>
      <stop id="SvgjsStop17589" stop-opacity="1" stop-color="#c5796d" offset="0.7"/>
    </linearGradient>
    <radialGradient id="SvgjsRadialGradient17599" cx="125.219" cy="89.891" r="13.439" gradientTransform="matrix(-1.0552 0.0927 0.0919 1.0549 197.7875 -17.4055)" gradientUnits="userSpaceOnUse" class="svga-on-canvas-eyesback-gradient-left-0">
      <stop id="SvgjsStop17600" stop-opacity="1" stop-color="#ffffff" offset="0"/>
      <stop id="SvgjsStop17601" stop-opacity="1" stop-color="#fdfefe" offset="0.544"/>
      <stop id="SvgjsStop17602" stop-opacity="1" stop-color="#f6f8f9" offset="0.74"/>
      <stop id="SvgjsStop17603" stop-opacity="1" stop-color="#eaeff2" offset="0.879"/>
      <stop id="SvgjsStop17604" stop-opacity="1" stop-color="#d9e3e8" offset="0.992"/>
      <stop id="SvgjsStop17605" stop-opacity="1" stop-color="#d8e2e7" offset="1"/>
    </radialGradient>
    <radialGradient id="SvgjsRadialGradient17607" cx="125.219" cy="89.891" r="13.439" gradientTransform="matrix(1.0552 0.0927 -0.0919 1.0549 2.2125 -17.4055)" gradientUnits="userSpaceOnUse" class="svga-on-canvas-eyesback-gradient-right-0">
      <stop id="SvgjsStop17608" stop-opacity="1" stop-color="#ffffff" offset="0"/>
      <stop id="SvgjsStop17609" stop-opacity="1" stop-color="#fdfefe" offset="0.544"/>
      <stop id="SvgjsStop17610" stop-opacity="1" stop-color="#f6f8f9" offset="0.74"/>
      <stop id="SvgjsStop17611" stop-opacity="1" stop-color="#eaeff2" offset="0.879"/>
      <stop id="SvgjsStop17612" stop-opacity="1" stop-color="#d9e3e8" offset="0.992"/>
      <stop id="SvgjsStop17613" stop-opacity="1" stop-color="#d8e2e7" offset="1"/>
    </radialGradient>
    <radialGradient id="SvgjsRadialGradient17615" cx="125.219" cy="89.891" r="13.439" gradientTransform="matrix(-1.0552 0.0927 0.0919 1.0549 197.7875 -17.4055)" gradientUnits="userSpaceOnUse" class="svga-on-canvas-eyesfront-gradient-left-0">
      <stop id="SvgjsStop17616" stop-opacity="1" stop-color="#ffffff" offset="0"/>
      <stop id="SvgjsStop17617" stop-opacity="1" stop-color="#fdfefe" offset="0.544"/>
      <stop id="SvgjsStop17618" stop-opacity="1" stop-color="#f6f8f9" offset="0.74"/>
      <stop id="SvgjsStop17619" stop-opacity="1" stop-color="#eaeff2" offset="0.879"/>
      <stop id="SvgjsStop17620" stop-opacity="1" stop-color="#d9e3e8" offset="0.992"/>
      <stop id="SvgjsStop17621" stop-opacity="1" stop-color="#d8e2e7" offset="1"/>
    </radialGradient>
    <radialGradient id="SvgjsRadialGradient17625" cx="124.909" cy="84.956" fx="139.085" fy="84.626" r="17.962" gradientTransform="matrix(0.9998 0.0208 0.0193 -0.9282 -51.4325 161.2135)" gradientUnits="userSpaceOnUse" class="svga-on-canvas-eyesfront-gradient-left-3">
      <stop id="SvgjsStop17626" stop-opacity="1" stop-color="#e4b3ab" offset="0"/>
      <stop id="SvgjsStop17627" stop-opacity="0.3" stop-color="#e4b3ab" offset="0.7"/>
      <stop id="SvgjsStop17628" stop-opacity="0" stop-color="#f3d4cf" offset="1"/>
    </radialGradient>
    <radialGradient id="SvgjsRadialGradient17630" cx="82.066" cy="77.677" r="19.326" gradientTransform="matrix(0.6928 -0.0978 0.0983 0.7033 9.9183 45.7976)" gradientUnits="userSpaceOnUse" class="svga-on-canvas-eyesfront-gradient-left-4">
      <stop id="SvgjsStop17631" stop-opacity="0" stop-color="#000000" offset="0.9"/>
      <stop id="SvgjsStop17632" stop-opacity="0.3" stop-color="#000000" offset="1"/>
    </radialGradient>
    <radialGradient id="SvgjsRadialGradient17636" cx="125.219" cy="89.891" r="13.439" gradientTransform="matrix(1.0552 0.0927 -0.0919 1.0549 2.2125 -17.4055)" gradientUnits="userSpaceOnUse" class="svga-on-canvas-eyesfront-gradient-right-0">
      <stop id="SvgjsStop17637" stop-opacity="1" stop-color="#ffffff" offset="0"/>
      <stop id="SvgjsStop17638" stop-opacity="1" stop-color="#fdfefe" offset="0.544"/>
      <stop id="SvgjsStop17639" stop-opacity="1" stop-color="#f6f8f9" offset="0.74"/>
      <stop id="SvgjsStop17640" stop-opacity="1" stop-color="#eaeff2" offset="0.879"/>
      <stop id="SvgjsStop17641" stop-opacity="1" stop-color="#d9e3e8" offset="0.992"/>
      <stop id="SvgjsStop17642" stop-opacity="1" stop-color="#d8e2e7" offset="1"/>
    </radialGradient>
    <radialGradient id="SvgjsRadialGradient17646" cx="124.909" cy="84.956" fx="139.085" fy="84.626" r="17.962" gradientTransform="matrix(-0.9998 0.0208 -0.0193 -0.9282 251.4325 161.2135)" gradientUnits="userSpaceOnUse" class="svga-on-canvas-eyesfront-gradient-right-3">
      <stop id="SvgjsStop17647" stop-opacity="1" stop-color="#e4b3ab" offset="0"/>
      <stop id="SvgjsStop17648" stop-opacity="0.3" stop-color="#e4b3ab" offset="0.7"/>
      <stop id="SvgjsStop17649" stop-opacity="0" stop-color="#f3d4cf" offset="1"/>
    </radialGradient>
    <radialGradient id="SvgjsRadialGradient17651" cx="82.066" cy="77.677" r="19.326" gradientTransform="matrix(-0.6928 -0.0978 -0.0983 0.7033 190.0817 45.7978)" gradientUnits="userSpaceOnUse" class="svga-on-canvas-eyesfront-gradient-right-4">
      <stop id="SvgjsStop17652" stop-opacity="0" stop-color="#000000" offset="0.9"/>
      <stop id="SvgjsStop17653" stop-opacity="0.3" stop-color="#000000" offset="1"/>
    </radialGradient>
  </defs>
  <g id="svga-group-wrapper">
    <g id="svga-group-backs-single">
      <path id="SvgjsPath17597" d="M225 225H-25V-25h250V225z" fill="#e0ebfc" stroke-width="none" opacity="1"/>
    </g>
    <g id="svga-group-humanwrap-move" transform="matrix(1,0,0,1,0,0)">
      <g id="svga-group-humanwrap" transform="matrix(0.8499995000000001,0,0,0.8499995000000001,14.76538124902342,17.082478816406237)">
        <g id="svga-group-hair-back-move" transform="matrix(1,0,0,1,0,0)">
          <g id="svga-group-hair-back" transform="matrix(1,0,0,1,0,0)">
            <path id="SvgjsPath17477" d="M151.582 41.064l-99.508-5.662c0 0-25.074 182.88-25.074 188.596 0 0 100.899 0.72 143.907 0C170.103 216.079 151.582 41.064 151.582 41.064z" fill="#ab9775" stroke-width="none" opacity="1" stroke="none"/>
            <path id="SvgjsPath17478" d="M121.782 135.105c13.064 28.75 2.538 26.965 3.854 39.638 0.37 2.831 1.156 5.593 1.473 7.734 0.276 1.688 0.51 6.446 0.179 2.23 -0.202-1.254-0.28-2.017-1.04-4.851 -0.344-1.307-0.754-2.708-1.045-4.21 -1.819-7.826 2.865-12.599 2.151-21.366C126.813 149.567 126.288 146.035 121.782 135.105zM132.482 168.094c2.539 10.408 2.397 12.716-0.303 26.76 -0.546 2.782-0.81 4.486-0.754 4.149 0.961-5.248 3.898-12.954 3.881-21.899 0.065-3.489-1.908-11.137-2.385-14.473 0.003 0.027-0.008-0.069 0.006 0.06 -0.813-11.382 4.859-19.403 3.833-35.282C137.411 146.244 128.74 153.279 132.482 168.094zM71.231 126.755c0.111 0.53 0.265 1.167 0.394 1.912 0.097 0.754 0.232 1.602 0.267 2.544 0.464 7.265-1.744 14.69-2.036 22.948 0.104 6.205 1.922 14.294 2.117 18.863 0.106 1.429 0.164 3.229 0.095 5.265 -0.04 2.033-0.224 4.304-0.414 6.67 -0.398 4.738-0.489 4.088-0.419 14.274C71.218 206.547 71.025 210 71.025 210c-0.014-0.4 0.309-2.794 0.541-6.272 0.59-8.505 0.051-8.82 1.468-19.564 0.98-7.612 0.878-11.056 0.42-14.893 0.005 0.053 0.006 0.061 0.007 0.069 -0.876-8.696-3.064-10.4-2.013-22.053 0.462-4.839 1.044-9.731 0.892-13.768 -0.044-2.018-0.33-3.802-0.624-5.236 -0.326-1.427-0.745-2.495-0.995-3.166C70.722 125.117 70.906 125.709 71.231 126.755zM60.831 146.786c0.124 7.726 0.465 10.479 0.262 13.756 -0.052 0.803-0.098 1.499-0.135 2.07 -0.599 9.997 3.298 9.694 3.779 32.334 0.022 2.299 0.128 4.404 0.075 6.16 -0.545 16.677 1.274-10.246 0.117-22.427 -0.744-5.906-2.082-7.601-2.082-14.944 -0.012 0.217-0.003 0.057-0.005 0.104 0-7.93 0.613 3.883-0.622-16.262 -0.711-10.197 4.434-18.809 3.499-30.833C66.187 128.385 60.798 136.771 60.831 146.786z" fill="#9c845b" stroke-width="none" opacity="1" stroke="none"/>
          </g>
        </g>
        <g id="svga-group-humanbody-single">
          <path id="SvgjsPath17325" d="M190.858 199.866c-6.008-10.158-13.474-11.973-19.628-13.936 -6.323-2.016-19.346-3.178-26.449-4.6 -6.86-1.373-23.153-5.789-23.339-13.488 -0.192-8.066 4.291-40.09 4.291-40.09H74.005c0 0 4.487 32.023 4.294 40.09 -0.184 7.699-16.48 12.115-23.341 13.488 -7.104 1.422-20.125 2.584-26.448 4.6 -6.156 1.963-13.624 3.777-19.632 13.936 -3.644 6.16-6.008 16.133-6.008 27.133h194C196.869 215.999 194.509 206.026 190.858 199.866z" fill="#f3d4cf" stroke-width="none" opacity="1" stroke="none"/>
          <path id="SvgjsPath17326" d="M121.442 167.843c2.495 10.929 18.165 13.698 26.293 15.325 21.909 4.379 33.772 5.134 42.297 19.539 2.903 4.916 5.459 15.864 5.962 24.153 1.835 0.291 0.531-17.432-5.136-26.994 -9.742-16.472-29.089-15.135-46.077-18.535C137.921 179.958 121.628 175.542 121.442 167.843L121.442 167.843zM78.558 167.843c-0.186 7.699-16.479 12.115-23.339 13.488 -16.988 3.4-36.335 2.063-46.077 18.535 -5.667 9.563-6.971 27.285-5.136 26.994 0.503-8.289 3.059-19.237 5.962-24.153 8.524-14.405 20.388-15.16 42.297-19.539C60.393 181.541 76.063 178.771 78.558 167.843L78.558 167.843z" fill="#fff4f3" stroke-width="none" opacity="1" stroke="none"/>
          <path id="SvgjsPath17327" d="M51.206 189.513c0 0 28.641 0.299 33.473 1.885 2.314 0.758 8.372 5.633 8.372 5.633s-6.556-3.17-8.658-3.758C79.51 191.909 51.206 189.513 51.206 189.513zM99.795 199.999c2.053-0.041 7.887-3.799 7.887-3.799s-5.574 2.059-7.342 2.16c-1.491 0.086-6.366-1.238-6.366-1.238S98.112 200.032 99.795 199.999zM117.008 192.757c6.75-1.818 29.786-3.23 29.786-3.23s-23.791-0.516-30.51 1.725c-2.252 0.752-7.562 5.16-7.562 5.16S114.786 193.354 117.008 192.757z" fill="#e4b3ab" stroke-width="none" opacity="1" stroke="none"/>
          <path id="SvgjsPath17328" d="M190.858 199.866c-9.741-16.471-29.122-15.142-46.077-18.535 -6.86-1.373-23.153-5.789-23.339-13.488 -0.192-8.066 4.291-40.09 4.291-40.09H74.005c0 0 4.487 32.023 4.294 40.09 -0.184 7.699-16.48 12.115-23.341 13.488 -7.104 1.422-20.125 2.584-26.448 4.6 -6.156 1.963-13.624 3.777-19.632 13.936 -3.644 6.16-6.008 16.133-6.008 27.133h194C196.869 215.999 194.509 206.026 190.858 199.866z" fill="none" stroke="#c5796d" stroke-width="1.5" opacity="1"/>
        </g>
        <g id="svga-group-chinshadow-single">
          <path id="SvgjsPath17586" d="M100.021 171.27c5.607-0.009 13.53-3.627 20.967-8.478 0.485-6.84 1.756-17.341 2.758-25.098 -13.972-1.825-33.828-1.785-47.741 0.101 0.995 7.702 2.249 18.065 2.739 24.877C86.278 167.593 94.344 171.279 100.021 171.27z" fill="url(#SvgjsLinearGradient17587)" opacity="1"/>
        </g>
        <g id="svga-group-clothes-single">
          <path id="SvgjsPath17669" d="M1.21 226.811c-0.09-1.096 0.089-6.144 0.169-7.69 1.305-24.199 9.403-29.321 42.489-39.116 15.99-4.732 20.453-6.269 26.144-18.359 1.614-3.43 3.009-6.393 6.011-7.444 15.289 8.429 28.472 8.16 47.416 1.143 3.516 0.491 4.597 4.978 5.414 8.217 5.254 20.016 37.606 15.497 52.146 23.753 15.091 7.44 15.778 32.33 15.631 39.781 0.003 0.021 0.005 0.039 0.006 0.056C177.005 227.983 25.68 228.386 1.21 226.811z" fill="#1e91a2" stroke-width="none" opacity="1" stroke="none"/>
          <path id="SvgjsPath17670" d="M176.786 216.725c0.847-10.266 1.101-18.312 4.157-27.83 -4.426 14.753 1.476 26.354-7.266 34.423C174.774 220.681 176.516 219.998 176.786 216.725zM24 203c-1.608-3.938-3.672-7.405-4.444-13.604 -0.28 0.134-0.394-0.626-0.666-0.492 1.111 11.097 4.736 15.713 5.84 31.829C24.556 214.957 25.534 206.758 24 203zM121.459 156.274c-0.581 0.144-1.164 0.78-1.75 0.899 8.181 7.474 2.813 10.296 14.771 23.422 0.333-0.167 1.415-0.766 2.718-1.523C129.319 174.611 127.548 163.537 121.459 156.274zM126 180c0.447 1.342 1.101 2.482 1.859 3.603 -0.457 0.174-0.908 0.362-1.37 0.522 -2.363-3.073-4.632-6.134-6.139-12.489 -1.558-6.561-0.884-5.584-5.94-12.752 0.319-0.045 0.954-0.411 1.448-0.491C120.643 165.023 122.608 172.368 126 180zM133.719 181.005c-0.481 0.25-0.969 0.488-1.457 0.725 -6.715-7.001-9.364-15.664-13.832-23.789 0.307-0.059 0.907-0.818 1.188-0.876 3.964 4.215 3.947 6.305 5.151 10.061C126.338 171.828 130.603 177.889 133.719 181.005zM111.212 160.025c3.591 9.259 5.941 16.57 6.595 26.388 -0.469 0.085-0.937 0.17-1.407 0.242 -0.65-5.13-1.491-10.462-1.739-11.689 -0.992-4.915-2.781-11.482-4.401-14.82C110.578 160.113 110.894 160.063 111.212 160.025zM125.619 184.426c-0.555 0.185-1.115 0.352-1.676 0.519 -5.889-7.32-5.781-16.893-10.411-26.211 0.182-0.025 0.465-0.041 0.646-0.068 5.14 8.711 3.5 6.198 5.83 15.03C121.229 178.313 123.751 182.464 125.619 184.426zM115.509 186.785c-0.369 0.053-0.746 0.089-1.12 0.133 -1.339-9.809-1.877-17.542-5.437-26.651 0.249-0.022 0.499-0.037 0.747-0.062C112.922 168.123 114.231 179.352 115.509 186.785zM91.081 160.364c-3.267 8.975-3.961 15.986-4.586 25.452 -0.369-0.063-0.742-0.123-1.105-0.191 0.281-8.057 1.408-18.063 4.9-25.33C90.553 160.322 90.817 160.34 91.081 160.364zM75.389 182.894c-0.419-0.152-0.842-0.297-1.26-0.458 5.056-6.227 7.374-16.511 7.99-24.521 0.332 0.081 0.663 0.15 0.995 0.226C83.353 167.592 79.914 174.831 75.389 182.894zM89.779 160.245c-4.003 7.147-5.299 17.074-5.13 25.23 -0.319-0.063-0.618-0.137-0.93-0.203 -0.337-9.561 0.856-17.051 5.107-25.256C89.146 160.056 89.455 160.212 89.779 160.245zM66.165 179.01c-0.527-0.256-1.054-0.51-1.576-0.774 2.807-1.871 5.653-4.711 7.56-7.97 1.716-2.93 5.611-11.628 6.41-14.44 0.269 0.104 0.543 0.189 0.816 0.282C77.312 165.13 72.909 173.355 66.165 179.01zM73.509 182.205c-0.559-0.215-1.106-0.456-1.661-0.682 4.743-7.656 6.889-16.213 7.854-25.317 0.614 0.203 1.23 1.398 1.847 1.56C80.13 166.507 78.633 174.861 73.509 182.205zM78.229 155.705c-0.65 1.82-1.54 3.55-2.45 5.311 -2.167 4.379-4.345 11.597-11.83 16.88 -0.542-0.276-1.08-0.564-1.618-0.854 6.891-5.698 10.479-14.131 14.154-21.908C77.048 155.346 77.63 155.466 78.229 155.705z" fill="#0c8193" stroke-width="none" opacity="1" stroke="none"/>
          <path id="SvgjsPath17671" d="M60.172 177.15l-1.928-1.29c-16.809 6.537-42.125 8.875-52 25.125 -3.719 6.119-4.913 15.014-4.913 26.014 2.027-5.485 0.759-14.439 6.636-23.292C19.401 186.481 39.771 188.32 60.172 177.15zM190.033 203.707c5.067 9.34 4.608 17.807 6.636 23.292 0-11-2.281-19.354-4.913-26.014 -7.483-18.933-33.191-16.791-50-23.328l-1.928 1.29C160.229 190.117 178.203 181.902 190.033 203.707z" fill="#33a1b1" stroke-width="none" opacity="1" stroke="none"/>
          <path id="SvgjsPath17672" d="M181.049 187.226c-14.496-8.229-46.88-3.804-52.1-23.69 -0.653-2.542-1.702-7.762-5.53-8.29 -0.188 0.037-0.761-0.129-0.76-0.129 -15.076 5.88-30.845 7.63-46.67-1.011 -7.111 2.493-5.169 15.246-18.61 21.22 -5.86 2.654-13.6 4.395-24.6 7.98 -25.782 8.41-30.463 16.581-31.5 35.81 -0.073 1.41-0.273 6.859-0.16 7.79 27.119 1.767 181.426 0.968 195.61 0.34 0.01-0.05 0.01-0.1 0-0.149C197.017 212.672 193.824 193.524 181.049 187.226zM123.799 155.824c7.203 2.412-0.831 13.455 15.84 21.791 -2.201 1.354-4.629 2.715-5.159 2.98 -11.958-13.126-6.443-15.043-14.173-23.123C121.739 156.826 122.459 156.244 123.799 155.824zM119.917 157.563c3.964 4.215 3.648 5.807 4.853 9.563 1.568 4.703 5.833 10.764 8.949 13.88 -2.33 1.211-4.75 2.261-7.229 3.12 -2.363-3.073-4.408-6.164-6.039-12.489 -1.438-5.573-0.936-6.018-5.741-12.652C115.709 158.843 118.341 157.886 119.917 157.563zM114.278 159.063c5.14 8.711 3.4 5.8 5.73 14.632 1.22 4.618 3.742 8.769 5.61 10.73 -3.01 1-6.1 1.75-9.22 2.229 -0.65-5.13-1.414-10.458-1.64-11.689 -1-5.454-2.881-11.482-4.501-14.82C111.539 160.016 113.009 159.254 114.278 159.063zM109.699 160.205c3.223 7.918 4.532 19.146 5.81 26.58 -2.942 0.418-6.063 0.57-8.979 0.57 -0.001-0.025-1.897-15.809-2.641-26.162C105.917 160.893 108.049 160.662 109.699 160.205zM103.389 161.213c0.05 11.677 0.956 14.712 2.41 26.152 -3.489 0.01-6.97-0.149-10.459-0.45 2.365-19.61 3.55-25.632 3.55-25.632C100.732 161.283 102.403 161.246 103.389 161.213zM98.269 161.283c-2.776 15.35-3.252 19.064-3.58 25.572 -3.189-0.268-6.325-0.668-9.3-1.23 0.281-8.057 1.408-18.063 4.9-25.33C92.939 160.565 95.609 161.273 98.269 161.283zM89.779 160.245c-4.003 7.147-5.299 17.074-5.13 25.23 -3.873-0.771-7.202-1.758-10.52-3.04 5.056-6.227 7.374-16.511 7.99-24.521C84.642 158.53 87.31 159.698 89.779 160.245zM81.549 157.766c-1.419 8.741-2.916 17.096-8.04 24.439 -3.04-1.17-6.02-2.5-8.92-3.97 2.807-1.871 5.653-4.711 7.56-7.97 1.716-2.93 5.511-11.429 6.31-14.241C79.439 156.404 80.549 157.505 81.549 157.766zM75.789 154.804c0.77 0.471 1.49 0.761 2.34 1.101 -0.65 1.82-1.44 3.351-2.35 5.111 -2.167 4.379-4.345 11.597-11.83 16.88 -1.39-0.71-2.77-1.46-4.12-2.25C71.408 169.404 69.452 157.678 75.789 154.804zM1.559 226.655c0.136-3.996 0.887-16.321 3.59-22.41 2.73-6.149 8-10.39 13.88-13.52 -0.402 9.421 4.184 10.589 4.5 21.85 0.09 3.41 0.56 6.76 1.13 10.12 -0.26-3.53-0.37-7.03-0.35-10.57 0.058-10.247-4.58-12.021-4.58-21.779 7.43-3.782 15.967-6.216 24.41-8.761 4.94-1.479 9.94-3.029 14.56-5.359 13.184 8.692 25.449 13.279 47.35 13.149 15.873 0 25.119-4.104 34.9-11.109 13.149 6.077 30.126 5.28 39.46 10.91 -1.655 4.925-2.791 7.494-3.1 10.18 -0.715 6.32 0.347 10.814-0.561 16.62 -0.53 3.37-3.12 5.85-3.82 9.16 2.036-6.202 5.709-3.93 5.261-18.551 -0.257-8.245 0.476-8.458 2.779-17.069 11.486 7.199 14.441 24.116 15.091 37.58C162.822 226.877 14.665 226.935 1.559 226.655z" fill="#006574" stroke-width="none" opacity="1" stroke="none"/>
        </g>
        <g id="svga-group-head" transform="matrix(1,0,0,1,0,0)">
          <g id="svga-group-ears-left-move" transform="matrix(1,0,0,1,0,0)" style="display: none;">
            <g id="svga-group-ears-left" transform="matrix(1,0,0,1,0,0)">
              <path id="SvgjsPath17567" d="M45.443 81.864c-1.469-2.399-6.648-7.441-10.31-6.519 -2.979 0.752-6.032 3.199-6.032 7.37 -0.001 6.462 1.496 9.209 2.501 12.141 0.856 2.495 3.915 7.068 5.761 8.841 2.273 2.179 5.957 9.221 6.404 9.941 0.705 1.137 1.877 2.946 4.043 3.014 3.29 0.103 7.085-2.077 7.323-3.44C56.42 105.816 49.263 88.107 45.443 81.864z" fill="#f3d4cf" stroke="#c5796d" stroke-width="1.5" opacity="1"/>
              <path id="SvgjsPath17568" d="M43.596 98.002c-0.142-0.549 0.007-1.474 0.152-2.367 0.131-0.814 0.255-1.583 0.18-2.126 -0.285-2.036-1.892-5.906-2.942-8.003 -1.208-2.412-4.117-5.452-6.568-6.235 -1.013-0.325-1.681 0.063-2.067 0.456 -0.284 0.289-0.347 0.628-0.254 0.668 0.093 0.04 0.304-0.241 0.61-0.505 0.25-0.217 0.617-0.402 1.122-0.364 -0.203 1.014-3.138 4.164-1.381 10.249 0.822 2.849 1.992 5.143 2.202 5.473 0.032 0.347 0.083 0.687 0.159 1.016 0.991 4.297 7.286 11.382 8.785 12.981 0.277 0.296 0.567 0.471 0.639 0.4 0.072-0.071-0.1-0.363-0.376-0.661 -1.48-1.589-7.734-8.657-8.69-12.803 -1.754-7.595 1.916-7.723 4.499-12.3 0.397 0.647 0.733 1.27 0.993 1.789 0.203 0.407 0.429 0.883 0.661 1.398 -0.458 0.719-5.059 5.972-3.889 10.175 0.433 1.55 3.779 3.548 5.073 4.096 0.712 0.302 0.979 0.752 1.289 1.273 0.359 0.605 0.767 2.758 1.95 3.254 0.241 0.101 0.458 0.143 0.651 0.143 0.334 0 0.587-0.126 0.774-0.276 0.019 0.264 0.018 0.604 0.008 0.917 -0.011 0.405 0.046 0.738 0.147 0.746s0.208-0.313 0.221-0.717c0.016-0.497 0.014-1.112-0.077-1.407 -0.265-0.867-1.076-1.845-1.934-2.88C44.688 101.372 43.815 98.852 43.596 98.002zM34.616 94.192c-2.322-6.746 0.993-12.568 1.514-13.495 0.908 0.776 2.662 1.815 3.314 2.83C36.33 88.848 34.811 85.147 34.616 94.192zM45.884 105.528c-1.072-0.449-1.431-2.52-1.778-3.104 -0.314-0.528-0.639-1.074-1.461-1.423 -0.179-0.076-0.376-0.191-0.578-0.324 -3.861-5.679 0.291-8.507 1.027-9.037 0.226 0.724 0.396 1.387 0.47 1.919 0.068 0.489-0.058 1.266-0.179 2.017 -0.15 0.931-0.306 1.894-0.145 2.518 0.24 0.928 1.14 3.481 2.01 4.531 0.772 0.933 1.564 1.893 1.835 2.676C46.97 105.458 46.604 105.83 45.884 105.528z" fill="#c5796d" stroke-width="none" opacity="1" stroke="none"/>
            </g>
          </g>
          <g id="svga-group-ears-right-move" transform="matrix(1,0,0,1,0,0)" style="display: none;">
            <g id="svga-group-ears-right" transform="matrix(1,0,0,1,0,0)">
              <path id="SvgjsPath17569" d="M154.295 81.864c1.469-2.399 6.648-7.441 10.311-6.519 2.979 0.752 6.031 3.199 6.031 7.37 0.002 6.462-1.496 9.209-2.5 12.141 -0.857 2.495-3.916 7.068-5.762 8.841 -2.273 2.179-5.957 9.221-6.404 9.941 -0.705 1.137-1.877 2.946-4.043 3.014 -3.291 0.103-7.086-2.077-7.324-3.44C143.318 105.816 150.475 88.107 154.295 81.864z" fill="#f3d4cf" stroke="#c5796d" stroke-width="1.5" opacity="1"/>
              <path id="SvgjsPath17570" d="M154.205 102.391c-0.857 1.036-1.668 2.013-1.934 2.88 -0.09 0.295-0.092 0.91-0.076 1.407 0.014 0.404 0.119 0.725 0.221 0.717s0.158-0.341 0.146-0.746c-0.01-0.313-0.01-0.653 0.01-0.917 0.186 0.15 0.439 0.276 0.773 0.276 0.193 0 0.41-0.042 0.65-0.143 1.184-0.496 1.592-2.649 1.951-3.254 0.311-0.521 0.576-0.971 1.289-1.273 1.293-0.548 4.639-2.545 5.072-4.096 1.17-4.204-3.432-9.456-3.889-10.175 0.232-0.515 0.457-0.991 0.66-1.398 0.26-0.519 0.596-1.141 0.994-1.789 2.582 4.577 6.252 4.705 4.498 12.3 -0.957 4.146-7.209 11.214-8.689 12.803 -0.275 0.298-0.447 0.59-0.377 0.661 0.072 0.07 0.361-0.104 0.639-0.4 1.5-1.6 7.795-8.685 8.785-12.981 0.076-0.33 0.129-0.669 0.16-1.016 0.209-0.33 1.379-2.624 2.201-5.473 1.758-6.085-1.178-9.235-1.381-10.249 0.504-0.039 0.871 0.147 1.123 0.364 0.305 0.265 0.518 0.545 0.609 0.505 0.094-0.041 0.029-0.379-0.254-0.668 -0.387-0.393-1.055-0.781-2.068-0.456 -2.451 0.783-5.359 3.823-6.568 6.235 -1.049 2.097-2.656 5.967-2.941 8.003 -0.074 0.544 0.049 1.313 0.18 2.126 0.145 0.894 0.293 1.818 0.152 2.367C155.924 98.852 155.051 101.372 154.205 102.391zM160.295 83.528c0.652-1.015 2.406-2.054 3.313-2.83 0.521 0.926 3.836 6.749 1.516 13.495C164.928 85.147 163.408 88.848 160.295 83.528zM152.652 105.301c0.271-0.783 1.064-1.743 1.836-2.676 0.869-1.05 1.77-3.603 2.01-4.531 0.16-0.624 0.006-1.586-0.145-2.518 -0.121-0.751-0.248-1.528-0.18-2.017 0.074-0.532 0.244-1.195 0.471-1.919 0.734 0.53 4.887 3.358 1.025 9.037 -0.201 0.133-0.398 0.248-0.578 0.324 -0.822 0.349-1.146 0.895-1.461 1.423 -0.346 0.584-0.705 2.655-1.777 3.104C153.135 105.83 152.768 105.458 152.652 105.301z" fill="#c5796d" stroke-width="none" opacity="1" stroke="none"/>
            </g>
          </g>
          <g id="svga-group-faceshape-wrap" transform="matrix(1,0,0,1,0,0)">
            <g id="svga-group-faceshape-single">
              <path id="SvgjsPath17583" d="M158.785 76.762l-0.005 0c-0.012 0.053-10.717 44.373-18.919 56.95 -6.452 9.895-28.166 25.54-39.84 25.558 -11.671 0.02-33.437-15.559-39.918-25.433C51.861 121.285 41.017 77 41.005 76.946h-0.001c-1.298-4.911-1.994-10.066-2.002-15.382C38.949 28.09 66.155 0.919 99.773 0.867c33.621-0.052 60.913 27.033 60.964 60.507C160.746 66.69 160.068 71.846 158.785 76.762z" fill="#f3d4cf" stroke-width="none" opacity="1" stroke="none"/>
              <path id="SvgjsPath17584" d="M125.766 6.622c19.104 10.248 32.075 30.355 32.039 53.476 -0.009 5.316-0.704 10.471-2.003 15.382h-0.001c-0.012 0.053-10.856 44.339-19.099 56.891 -5.946 9.061-24.555 25.121-36.833 25.121 -12.279 0-30.886-16.061-36.833-25.121 -8.242-12.552-19.086-56.837-19.098-56.891h-0.001c-1.298-4.911-1.994-10.066-2.002-15.382C41.898 36.977 54.87 16.87 73.972 6.622 53.277 16.324 38.963 37.28 39.001 61.564c0.008 5.316 0.704 10.471 2.002 15.382h0.001c0.012 0.053 10.856 44.339 19.098 56.891 4.416 6.728 15.922 16.095 26.5 21.382 -0.529-0.226-1.062-0.466-1.599-0.717 5.408 2.875 10.664 4.763 14.713 4.768 0.049 0 0.103-0.005 0.152-0.005s0.103 0.005 0.152 0.005c4.049-0.005 9.305-1.893 14.714-4.768 -0.538 0.253-1.071 0.491-1.601 0.718 10.577-5.287 22.085-14.655 26.501-21.383 8.242-12.552 19.087-56.837 19.098-56.891h0.002c1.298-4.911 1.994-10.066 2.002-15.382C160.775 37.28 146.462 16.324 125.766 6.622z" fill="#ebc3bd" stroke-width="none" opacity="1" stroke="none"/>
              <path id="SvgjsPath17585" d="M158.785 76.762l-0.005 0c-0.012 0.053-10.717 44.373-18.919 56.95 -6.452 9.895-28.166 25.54-39.84 25.558 -11.671 0.02-33.437-15.559-39.918-25.433C51.861 121.285 41.017 77 41.005 76.946h-0.001c-1.298-4.911-1.994-10.066-2.002-15.382C38.949 28.09 66.155 0.919 99.773 0.867c33.621-0.052 60.913 27.033 60.964 60.507C160.746 66.69 160.068 71.846 158.785 76.762z" fill="none" stroke="#c5796d" stroke-width="1.5" opacity="1"/>
            </g>
          </g>
          <g id="svga-group-mouth-single-move" transform="matrix(1,0,0,1,0,0)">
            <g id="svga-group-mouth-single" transform="matrix(1,0,0,1,0,0)">
              <path id="SvgjsPath17557" d="M100.002 141.248c-4.158 0-5.133-3.404-5.133-3.404 5.5 2.12 10.267-0.146 10.267-0.146S103.659 141.248 100.002 141.248z" fill="url(#SvgjsLinearGradient17558)" opacity="1"/>
              <path id="SvgjsPath17561" d="M86.803 131.94c2.756-0.951 6.973-2.692 9.166-2.789 1.133-0.052 2.351 0.87 3.574 1.165 0.851 0.206 3.264-1.156 4.13-1.165 2.272-0.024 7.06 1.838 9.502 2.789 0.135 0.054 0 0 0 0s-5.789 6.953-13.185 6.953C91.618 138.894 86.803 131.94 86.803 131.94S86.666 131.989 86.803 131.94z" fill="#a96a47" stroke="#9a5731" stroke-width="0.75" opacity="1"/>
              <path id="SvgjsPath17562" d="M113.541 131.736c-0.048-0.164-0.482-0.367-0.653-0.359 -0.311 0.017-0.672 0.396-1.313 0.41 -0.742 0.018-4.679 0.61-5.736 0.54 -2.129-0.142-3.824 0.666-5.848 0.666 -2.025 0-3.868-0.882-5.996-0.739 -1.057 0.072-4.847-0.448-5.591-0.467 -0.643-0.015-0.892-0.411-1.166-0.464 -0.192-0.036-0.663 0.166-0.757 0.338 -0.083 0.149 0.092 0.67 0.209 0.794 0.285 0.297 1.136 0.242 1.698 0.256 0.777 0.017 4.577 0.538 5.65 0.466 2.081-0.141 3.936 0.822 5.952 0.822s3.725-0.889 5.806-0.748c1.071 0.071 5.015-0.524 5.793-0.54 0.563-0.014 1.366-0.061 1.654-0.292C113.379 132.311 113.59 131.904 113.541 131.736z" fill="#7b350f" stroke-width="none" opacity="1" stroke="none"/>
              <path id="SvgjsPath17563" d="M99.989 137.352c-3.37 0-6.645-1.153-9.241-3.305 1.307-0.072 2.652-0.277 3.961-0.22 1.613 0.07 3.144 0.707 4.756 0.813 1.742 0.116 3.358-0.487 5.064-0.694 1.422-0.17 3.664-0.674 5.091-0.622C107.068 135.28 103.244 137.352 99.989 137.352zM104.562 131.739c1.314-0.037 3.414-0.532 4.724-0.437 -1.405-0.759-3.657-0.941-5.243-1.247 -1.366-0.266-2.738 0.791-4.081 0.968 -1.514 0.199-2.65-1.239-4.119-1.288 -1.593 0.017-3.233 0.991-4.634 1.65 1.284-0.034 2.607-0.176 3.886-0.012 1.566 0.199 3.069 0.817 4.655 0.87C101.373 132.299 102.939 131.782 104.562 131.739z" fill="#b87f60" stroke-width="none" opacity="1" stroke="none"/>
              <path id="SvgjsPath17564" d="M99.941 136.4c-2.029 0-4.007-0.702-5.707-2.002 0.38-0.038 0.764-0.067 1.133-0.067 0.117 0 0.234 0.004 0.351 0.011 0.609 0.032 1.209 0.207 1.846 0.393 0.618 0.178 1.256 0.363 1.923 0.42 0.132 0.01 0.264 0.015 0.395 0.015 0.819 0 1.596-0.204 2.348-0.4 0.477-0.125 0.928-0.243 1.392-0.313 0.253-0.04 0.527-0.059 0.837-0.059 0.268 0 0.544 0.015 0.818 0.036C103.862 135.485 102.03 136.4 99.941 136.4z" fill="#c8977c" stroke-width="none" opacity="1" stroke="none"/>
            </g>
          </g>
          <g id="svga-group-eyes-left-move" transform="matrix(1,0,0,1,0,0)">
            <g id="svga-group-eyes-left" transform="matrix(1,0,0,1,0,0)">
              <g id="svga-group-eyesback-left">
                <path id="SvgjsPath17598" d="M86.66 84.231c0.748 1.472 1.181 3.05 1.181 4.654 0 3.108-1.716 5.337-3.133 6.88 -6.936 6.296-17.723 5.964-23.191-1.044 -0.984-1.617-1.528-3.528-1.518-5.667C65.019 76.267 78.859 72.676 86.66 84.231z" fill="url(#SvgjsRadialGradient17599)" opacity="1"/>
              </g>
              <g id="svga-group-eyesiriswrapper-left" transform="matrix(1,0,0,1,0,1)">
                <g id="svga-group-eyesiriscontrol-left" transform="matrix(1,0,0,1,0,0)">
                  <g id="svga-group-eyesiris-left" transform="matrix(1,0,0,1,0,0)">
                    <path id="SvgjsPath17656" d="M83.199 89.25c-1.231 4.522-5.896 7.187-10.429 5.944 -4.528-1.241-7.203-5.918-5.97-10.442 1.23-4.526 5.905-7.19 10.434-5.947C81.761 80.045 84.433 84.723 83.199 89.25z" fill="#3c8d8e" stroke="#0c5f60" stroke-width="0.5" opacity="1"/>
                    <path id="SvgjsPath17657" d="M82.994 87.526c-0.625 5.021-4.353 7.638-8.432 7.365 -3.765-0.253-7.131-3.031-7.443-7.828 1.302-0.374 3.031 0.234 4.549 0.002 -0.005 0.055-0.023 0.104-0.025 0.16 -0.12 1.842 1.357 3.446 3.299 3.577 1.946 0.13 3.62-1.263 3.74-3.104 0.013-0.24-0.002-0.476-0.038-0.702C79.997 87.2 81.648 86.999 82.994 87.526z" fill="#529c9d" stroke-width="none" opacity="1" stroke="none"/>
                    <path id="SvgjsPath17658" d="M76.229 84.164c-1.869-0.535-3.777 0.533-4.26 2.396 -0.483 1.853 0.642 3.793 2.51 4.329 1.873 0.537 3.781-0.532 4.266-2.386C79.23 86.639 78.101 84.7 76.229 84.164z" fill="#000000" stroke-width="none" opacity="0.9"/>
                    <path id="SvgjsPath17659" d="M76.229 84.164c-1.869-0.535-3.777 0.533-4.26 2.396 -0.483 1.853 0.642 3.793 2.51 4.329 1.873 0.537 3.781-0.532 4.266-2.386C79.23 86.639 78.101 84.7 76.229 84.164z" fill="none" stroke="#0c5f60" stroke-width="0.75" opacity="1"/>
                    <path id="SvgjsPath17660" d="M70.977 92.181c-0.177 0.619-1.142 0.356-0.965-0.266 0.171-0.6 0.633-0.967 0.926-1.495 0.313-0.564 1.177-0.06 0.863 0.505C71.56 91.36 71.114 91.696 70.977 92.181L70.977 92.181zM72.516 91.194c-0.266 0.31-0.614 1.458-0.766 1.834 -0.241 0.598 0.727 0.856 0.965 0.266 0.082-0.205 0.362-1.223 0.508-1.393C73.64 91.415 72.936 90.704 72.516 91.194L72.516 91.194zM74.598 94.151c0.522-0.602 0.47-1.292 0.459-2.041 -0.01-0.644-1.01-0.645-1 0 0.006 0.415 0.13 0.992-0.166 1.334C73.47 93.929 74.175 94.639 74.598 94.151L74.598 94.151zM75.619 91.985c0.008 0.621 0.084 1.226 0.268 1.82 0.19 0.614 1.155 0.352 0.965-0.266 -0.159-0.513-0.226-1.019-0.232-1.555C76.611 91.341 75.611 91.34 75.619 91.985L75.619 91.985z" fill="#ffffff" stroke-width="none" opacity="0.5"/>
                    <path id="SvgjsPath17661" d="M80.946 85.543c-0.985 0.59-2.466 0.059-3.305-1.188 -0.838-1.248-0.713-2.739 0.273-3.328 0.984-0.593 2.467-0.061 3.301 1.187C82.053 83.462 81.932 84.952 80.946 85.543z" fill="#ffffff" stroke-width="none" opacity="0.8"/>
                  </g>
                </g>
              </g>
              <g id="svga-group-eyesfront-left">
                <path id="SvgjsPath17623" d="M55 89c0 13.808 8.507 24.999 19 24.999S93 102.808 93 89c0-13.809-8.507-25.001-19-25.001S55 75.191 55 89zM61.517 94.721c-0.984-1.617-1.528-3.528-1.518-5.667 5.02-12.787 18.86-16.378 26.661-4.822 0.748 1.472 1.181 3.05 1.181 4.654 0 3.108-1.716 5.337-3.133 6.88C77.772 102.061 66.985 101.729 61.517 94.721z" fill="#f3d4cf" stroke-width="none" opacity="1"/>
                <path id="SvgjsPath17624" d="M57.063 86.713c0.814 9.341 9.499 16.142 19.41 15.198 9.908-0.95 17.284-9.286 16.465-18.625 -0.814-9.342-9.5-16.145-19.412-15.199C63.615 69.038 56.243 77.374 57.063 86.713zM59.999 89.054c5.02-12.787 18.86-16.378 26.661-4.822 0.748 1.472 1.181 3.05 1.181 4.654 0 3.108-1.716 5.337-3.133 6.88 -6.936 6.296-17.723 5.964-23.191-1.044C60.532 93.104 59.988 91.193 59.999 89.054z" fill="url(#SvgjsRadialGradient17625)" opacity="1"/>
                <path id="SvgjsPath17629" d="M81.835 79.36c1.751 1.137 3.391 2.746 4.825 4.871 0.748 1.472 1.181 3.05 1.181 4.654 0 3.108-1.716 5.337-3.133 6.88 -6.936 6.296-17.723 5.964-23.191-1.044 -0.984-1.617-1.528-3.528-1.518-5.667 2.306-5.874 6.475-9.8 11.063-11.216 0.492-0.123 0.994-0.221 1.506-0.293C75.914 77.071 79.118 77.794 81.835 79.36z" fill="url(#SvgjsRadialGradient17630)" opacity="1"/>
                <path id="SvgjsPath17633" d="M85.831 76.642c-5.97-3.487-13.357-4.669-21.869-0.887C70.286 72.031 79.389 71.736 85.831 76.642z" fill="#c5796d" stroke-width="none" opacity="1"/>
                <path id="SvgjsPath17634" d="M61.42 94.437c5.438 6.916 16.313 7.27 23.288 1.123C76.492 104.249 62.78 99.934 61.42 94.437zM89.378 80.015c-6.384-8.038-22.106-6.856-30.795-0.861 2.103-0.601 3.804-1.189 6.62-2.33 -5.615 2.601-5.615 4.669-10.263 9.476l2.246-1.852 -1.182 3.369c1.184-1.713 1.863-2.423 2.638-3.015 -0.296 1.064-0.473 1.714-0.709 3.015 1.58-2.138 2.498-3.246 3.724-4.197 -1.403 1.989-1.822 3.855-2.01 6.325 4.965-13.89 20.687-17.496 28.312-3.487 -0.464-2.242-1.42-3.989-2.482-5.556 1.747 0.8 3.175 2.443 4.492 4.965 -1.063-4.314-1.714-5.438-5.379-8.275L89.378 80.015z" fill="#131111" stroke-width="none" opacity="1"/>
              </g>
            </g>
          </g>
          <g id="svga-group-eyes-right-move" transform="matrix(1,0,0,1,0,0)">
            <g id="svga-group-eyes-right" transform="matrix(1,0,0,1,0,0)">
              <g id="svga-group-eyesback-right">
                <path id="SvgjsPath17606" d="M113.34 84.231c-0.748 1.472-1.181 3.05-1.181 4.654 0 3.108 1.716 5.337 3.133 6.88 6.936 6.296 17.723 5.964 23.191-1.044 0.984-1.617 1.528-3.528 1.518-5.667C134.981 76.267 121.141 72.676 113.34 84.231z" fill="url(#SvgjsRadialGradient17607)" opacity="1"/>
              </g>
              <g id="svga-group-eyesiriswrapper-right" transform="matrix(1,0,0,1,0,1)">
                <g id="svga-group-eyesiriscontrol-right" transform="matrix(1,0,0,1,0,0)">
                  <g id="svga-group-eyesiris-right" transform="matrix(1,0,0,1,0,0)">
                    <path id="SvgjsPath17662" d="M133.199 89.25c-1.231 4.522-5.896 7.187-10.429 5.944 -4.528-1.241-7.203-5.918-5.97-10.442 1.23-4.526 5.905-7.19 10.434-5.947C131.761 80.045 134.433 84.723 133.199 89.25z" fill="#3c8d8e" stroke="#0c5f60" stroke-width="0.5" opacity="1"/>
                    <path id="SvgjsPath17663" d="M132.994 87.526c-0.625 5.021-4.353 7.638-8.432 7.365 -3.765-0.253-7.131-3.031-7.443-7.828 1.302-0.374 3.031 0.234 4.549 0.002 -0.005 0.055-0.023 0.104-0.025 0.16 -0.12 1.842 1.357 3.446 3.299 3.577 1.946 0.13 3.62-1.263 3.74-3.104 0.013-0.24-0.002-0.476-0.038-0.702C129.997 87.2 131.648 86.999 132.994 87.526z" fill="#529c9d" stroke-width="none" opacity="1" stroke="none"/>
                    <path id="SvgjsPath17664" d="M126.229 84.164c-1.869-0.535-3.777 0.533-4.26 2.396 -0.483 1.853 0.642 3.793 2.51 4.329 1.873 0.537 3.781-0.532 4.266-2.386C129.23 86.639 128.101 84.7 126.229 84.164z" fill="#000000" stroke-width="none" opacity="0.9"/>
                    <path id="SvgjsPath17665" d="M126.229 84.164c-1.869-0.535-3.777 0.533-4.26 2.396 -0.483 1.853 0.642 3.793 2.51 4.329 1.873 0.537 3.781-0.532 4.266-2.386C129.23 86.639 128.101 84.7 126.229 84.164z" fill="none" stroke="#0c5f60" stroke-width="0.75" opacity="1"/>
                    <path id="SvgjsPath17666" d="M120.977 92.181c-0.177 0.619-1.142 0.356-0.965-0.266 0.171-0.6 0.633-0.967 0.926-1.495 0.313-0.564 1.177-0.06 0.863 0.505C121.56 91.36 121.114 91.696 120.977 92.181L120.977 92.181zM122.516 91.194c-0.266 0.31-0.614 1.458-0.766 1.834 -0.241 0.598 0.727 0.856 0.965 0.266 0.082-0.205 0.362-1.223 0.508-1.393C123.64 91.415 122.936 90.704 122.516 91.194L122.516 91.194zM124.598 94.151c0.522-0.602 0.47-1.292 0.459-2.041 -0.01-0.644-1.01-0.645-1 0 0.006 0.415 0.13 0.992-0.166 1.334C123.47 93.929 124.175 94.639 124.598 94.151L124.598 94.151zM125.619 91.985c0.008 0.621 0.084 1.226 0.268 1.82 0.19 0.614 1.155 0.352 0.965-0.266 -0.159-0.513-0.226-1.019-0.232-1.555C126.611 91.341 125.611 91.34 125.619 91.985L125.619 91.985z" fill="#ffffff" stroke-width="none" opacity="0.5"/>
                    <path id="SvgjsPath17667" d="M130.946 85.543c-0.985 0.59-2.466 0.059-3.305-1.188 -0.839-1.248-0.714-2.739 0.272-3.328 0.984-0.593 2.467-0.061 3.301 1.187C132.054 83.462 131.932 84.952 130.946 85.543z" fill="#ffffff" stroke-width="none" opacity="0.8"/>
                  </g>
                </g>
              </g>
              <g id="svga-group-eyesfront-right">
                <path id="SvgjsPath17644" d="M126 63.999c-10.493 0-19 11.192-19 25.001 0 13.808 8.507 24.999 19 24.999S145 102.808 145 89C145 75.191 136.493 63.999 126 63.999zM115.292 95.765c-1.417-1.542-3.133-3.771-3.133-6.88 0-1.604 0.433-3.182 1.181-4.654 7.801-11.556 21.642-7.964 26.661 4.822 0.011 2.139-0.533 4.05-1.518 5.667C133.015 101.729 122.228 102.061 115.292 95.765z" fill="#f3d4cf" stroke-width="none" opacity="1"/>
                <path id="SvgjsPath17645" d="M126.475 68.087c-9.912-0.946-18.598 5.857-19.412 15.199 -0.819 9.339 6.557 17.676 16.465 18.625 9.911 0.944 18.596-5.857 19.41-15.198C143.757 77.374 136.385 69.038 126.475 68.087zM138.483 94.721c-5.469 7.008-16.256 7.34-23.191 1.044 -1.417-1.542-3.133-3.771-3.133-6.88 0-1.604 0.433-3.182 1.181-4.654 7.801-11.556 21.642-7.964 26.661 4.822C140.012 91.193 139.468 93.104 138.483 94.721z" fill="url(#SvgjsRadialGradient17646)" opacity="1"/>
                <path id="SvgjsPath17650" d="M118.165 79.36c-1.751 1.137-3.391 2.746-4.825 4.871 -0.748 1.472-1.181 3.05-1.181 4.654 0 3.108 1.716 5.337 3.133 6.88 6.936 6.296 17.723 5.964 23.191-1.044 0.984-1.617 1.528-3.528 1.518-5.667 -2.306-5.874-6.475-9.8-11.063-11.216 -0.492-0.123-0.994-0.221-1.506-0.293C124.086 77.071 120.882 77.794 118.165 79.36z" fill="url(#SvgjsRadialGradient17651)" opacity="1"/>
                <path id="SvgjsPath17654" d="M114.169 76.642c5.97-3.487 13.357-4.669 21.869-0.887C129.714 72.031 120.611 71.736 114.169 76.642z" fill="#c5796d" stroke-width="none" opacity="1"/>
                <path id="SvgjsPath17655" d="M115.292 95.56c6.975 6.147 17.85 5.792 23.288-1.123C137.22 99.934 123.508 104.249 115.292 95.56zM115.41 77.592c-3.665 2.837-4.315 3.96-5.379 8.275 1.317-2.522 2.745-4.165 4.492-4.965 -1.063 1.567-2.019 3.314-2.482 5.556 7.625-14.008 23.347-10.403 28.312 3.487 -0.188-2.47-0.606-4.335-2.01-6.325 1.226 0.951 2.144 2.059 3.724 4.197 -0.236-1.3-0.413-1.951-0.709-3.015 0.774 0.591 1.454 1.302 2.638 3.015l-1.182-3.369 2.246 1.852c-4.647-4.807-4.647-6.875-10.263-9.476 2.816 1.141 4.518 1.729 6.62 2.33 -8.688-5.995-24.411-7.177-30.795 0.861L115.41 77.592z" fill="#131111" stroke-width="none" opacity="1"/>
              </g>
            </g>
          </g>
          <g id="svga-group-facehighlight-single">
            <path id="SvgjsPath17317" d="M140.204 113.007c0.035 22.275-17.995 40.365-40.273 40.396 -22.274 0.036-40.361-17.993-40.396-40.272C59.501 90.857 77.53 72.77 99.808 72.735 122.083 72.701 140.171 90.73 140.204 113.007z" fill="url(#SvgjsRadialGradient17318)" opacity="1"/>
            <path id="SvgjsPath17321" d="M135,55.999c0,19.329-15.671,35-35,35c-19.329,0-35-15.671-35-35s15.671-35,35-35C119.329,20.999,135,36.67,135,55.999z" fill="url(#SvgjsRadialGradient17322)" opacity="1"/>
          </g>
          <g id="svga-group-eyebrows-left-move" transform="matrix(1,0,0,1,0,0)">
            <g id="svga-group-eyebrows-left-rotate" transform="matrix(1,0,0,1,0,0)">
              <g id="svga-group-eyebrows-left" transform="matrix(1,0,0,1,0,0)">
                <path id="SvgjsPath17555" d="M55.326 74.471c5.772-0.588 25.893-4.929 34.203-9.179 0.726-0.372 2.091-1.271 2.933-0.9C96.346 66.103 76.591 75.214 55.326 74.471z" fill="#cac1b2" stroke-width="none" opacity="1" stroke="none"/>
              </g>
            </g>
          </g>
          <g id="svga-group-eyebrows-right-move" transform="matrix(1,0,0,1,0,0)">
            <g id="svga-group-eyebrows-right-rotate" transform="matrix(1,0,0,1,0,0)">
              <g id="svga-group-eyebrows-right" transform="matrix(1,0,0,1,0,0)">
                <path id="SvgjsPath17556" d="M145.13 73.479c0 0.55-13.681-0.174-15.036-0.312 -23.276-2.375-24.632-8.724-21.625-7.963 2.454 0.622 3.619 2.921 21.219 6.063C130.107 71.342 145.13 73.906 145.13 73.479z" fill="#cac1b2" stroke-width="none" opacity="1" stroke="none"/>
              </g>
            </g>
          </g>
          <g id="svga-group-nose-single-move" transform="matrix(1,0,0,1,0,0)">
            <g id="svga-group-nose-single" transform="matrix(1,0,0,1,0,0)">
              <path id="SvgjsPath17565" d="M100.809 118.607c-0.345 0.375-0.628 0.33-0.954-0.059l-3.63-4.392h8.911L100.809 118.607z" fill="#e4b3ab" stroke-width="none" opacity="1" stroke="none"/>
              <path id="SvgjsPath17566" d="M95.208 114.839l4.719 3.839c0.394 0.32 0.545 0.199 0.34-0.27l-1.683-3.813c-0.082-0.185-0.107-0.495-0.057-0.691l1.001-6.771 -4.453 6.41C94.755 113.937 94.814 114.52 95.208 114.839z" fill="#c5796d" stroke-width="none" opacity="1" stroke="none"/>
            </g>
          </g>
          <g id="svga-group-hair-front" transform="matrix(1,0,0,1,0,0)">
            <path id="SvgjsPath17480" d="M150.536 25.403c-4.741-3.492-102.496 0.66-106.053 6.026 -3.095 4.669-5.953 201.255-5.415 201.307 13.762 1.102 54.916 0.905 84.53 0.322 -20.37-0.815-65.039-2.604-65.73-2.647 -1.51-13.299 0.879-25.21 2.197-31.78 0.292-1.457 0.523-2.607 0.653-3.493l0.018-0.149c0.374-3.886-0.369-7.235-1.155-10.783 -1.063-4.802-2.164-9.768-0.535-16.956 2.272-9.979 0.651-16.863-0.652-22.394 -0.511-2.169-0.952-4.042-1.084-5.788 -0.321-4.254 1.54-6.744 3.694-9.627 3.362-4.498 5.296-13.562-0.242-21.273 -4.427-6.164-3.506-8.024-2-11.285 1.528-3.307 3.621-7.836 1.191-16.552 -1.792-6.433-4.245-15.242 12.881-25.936 5.585-3.49 11.217-5.638 16.186-7.532 6.306-2.405 14.805-9.398 17.373-13.863 1.129 10.719 8.307 21.317 13 26.186 6.438 6.678 11.522 11.953 8.896 31.045 -1.111 8.072 0.54 11.878 1.995 16.285 0.641 1.942 1.606 3.95 2.175 6.636 0.938 4.389-0.032 8.534-1.38 12.923 -1.183 3.852-1.258 7.804-1.194 12.326 0.868-2.639 3.764-7.495 4.222-10.647 1.211-8.33 2.671-54.157 2.562-59.365 8.608 7.931 10.412 19.654 8.529 27.097 -0.884 3.493-2.854 16.106-3.17 20.192 -0.634 8.184 0.318 6.299-0.072 11.659 -0.377 5.236-2.24 7.948-5.521 13.484 -7.595 12.969-4.483 20.459-1.474 27.701 1.122 2.703 2.283 5.498 2.88 8.653 1.168 6.055-1.128 14.71-3.349 23.079 -2.135 8.046-4.342 16.365-3.691 23.151 0.157 1.614 1.796 6.247 2.587 9.436 11.055-0.276 19.3-0.602 21.865-0.909C164.055 230.876 159.709 32.162 150.536 25.403z" fill="#cac1b2" stroke-width="none" opacity="0.1" stroke="none"/>
            <path id="SvgjsPath17481" d="M169.869 60.508c-0.362-12.689-3.053-23.544-8.009-32.294 -1.234-6.369-3.748-14.487-12.301-20.789 -4.509-3.321-13.655-6.862-22.288-8.637 -11.658-10.772-12.372-1.202-24.682-6.167 -2.892-1.167-4.909-1.963-9.505 1.111C86.8-7.859 79.736-8.007 75.268-7.146c-4.864 0.936-11.252 4.118-15.943 7.938 -7.968 2.15-13.645 5.709-16.873 10.579 -2.887 4.356-4.261 9.144-4.094 14.279 -1.49 3.06-2.376 6.316-2.809 10.294 -2.715 3.779-5.582 8.563-7.648 12.626 -1.816 3.554-4.911 20.048-3.206 27.254 -11.978 21.314-3.928 31.087 0.975 48.8 -3.591 8.407-3.569 16.054 0.075 24.855 -4.106 16.166-8.669 18.491-4.531 58.299 2.25 21.647 1.324 22.279 1.324 28.127l0.099-0.1c11.194-0.084 16.572-3.733 22.877-2.95 0.961 0.058 9.621 0.832 9.902 0.86 79.66 6.379 73.197-1.353 117.21-2.088 -0.826-8.102-1.776-30.404-0.356-39.298 2.088-13.115 0.093-28.495-3.729-39.602 4.314-8.119 3.907-12.246 1.163-20.445 5.543-16.211 7.897-24.442 4.45-39.741C178 81.442 175.792 70.778 169.869 60.508zM144.449 111.603c-0.368 5.307 0.889 10.623 0.5 15.949 -0.439 6.104-2.762 9.407-5.924 14.784 -9.617 16.422-0.494 22.32 1.763 34.271 2.469 12.793-8.264 33.33-6.999 46.509 0.24 2.47 1.669 8.576 2.203 10.877 -20.207 2.284-69.317 0.086-80.78-0.753 -2.633-17.772 1.835-33.757 2.538-38.538 0.814-8.465-4.608-14.97-1.628-28.118 3.006-13.198-1.294-20.579-1.802-27.29 -0.995-13.187 15.039-13.541 3.982-29.412 -9.902-14.226 3.372-12.214-1.236-28.745 -1.813-6.509-4.848-17.403 14.181-29.285 15.132-9.456 29.464-9.046 35.386-20.671 6.172 32.455 28.681 22.744 23.63 59.46 -1.484 10.782 1.529 12.874 3.435 21.885 1.966 9.198-4.088 16.658-3.958 25.865 2.464-7.486 8.896-14.549 9.09-22.357 0.149-6.206-2.432-12.186-2.38-18.408 0.039-4.968 1.508-9.806 2.281-14.635 3.709-23.063-15.682-23.835-20.418-41.599l0.181-0.08c11.219 17.313 20.093 22.563 26.204 33.756C152.855 90.043 145.316 98.718 144.449 111.603z" fill="#cac1b2" stroke-width="none" opacity="1" stroke="none"/>
            <path id="SvgjsPath17482" d="M143.389 232.876c-2.452 0.381-4.644 0.709-7.109 0.989 -2.531-12.35-3.045-13.858 2.05-31.18 7.57-25.69 4.73-26.74 0.65-38.74 -5.181-15.21 4.37-19.42 7.64-29.62 1.85-5.8 1.13-11.689 0.49-17.62 -1.48-13.91 6.319-22.229 2.01-35.6 -4.74-14.729-16.45-19.648-31.05-41.09 -0.447-1.921-0.756-3.948-0.994-5.991 12.929 20.478 35.727 30.946 36.127 46.41C153.484 91.333 147.356 114.1 150 129c1.61 9.078-7 15-9 24 -3 12 9 22 5 33C140.088 200.357 138.928 216.401 143.389 232.876zM48 58c-9 11 1 25-5 38 -6 11 6 25-1 38 -3 7 4.152 14.053 2 20 -9.725 26.87-4.821 52.515-4.118 78.772 2.261-0.43 3.779-0.542 5.427-0.478 0.711-14.813-4.411-25.97-4.76-32.6 -0.36-7.04 2.95-11.53 4.16-17.45 1.71-8.41-0.38-18.63 2.66-26.58 1.9-5.42-1.33-11.069-1.99-16.26 -0.88-6.85 2.81-13.13 2.82-17.51 -0.61-7.38-4.41-11.37-3.86-17.52 0.32-3.68 1.82-6.93 3.18-10.31 4.1-10.23-0.47-12.2-1.03-21.02 -1.134-17.688 28.974-36.711 52.436-41.572C78.902 29.774 58.916 43.446 48 58zM46.397 36c-8.96 9.083-8.372 19.86-9.284 32.735 -0.721 10.172-12.931 19.243-10.958 29.098 3.909 19.52 9.418 32.397 4.963 53.628C30.013 156.731 32.397 163 32.397 168c-3.14 9.376-3.573 18.985-3.567 29.406 -0.07 10.373 0.408 20.797 2.567 31.594 0.362 2.175 0.196 4.218-0.159 6.225 1.085-0.164 2.188-0.383 3.448-0.68 3.02-15.189-3.05-39.63-1.45-47.81 1.745-9.261 4.592-10.646 3.81-20.88 -0.4-4.93-1.25-11.351-1.31-15.92 -0.203-14.404 7.428-20.775 2.43-33.32 -1.01-2.54-2.12-5.03-3.12-7.58 -5.219-13.284 1.624-20.396 5.8-30.74 2.32-5.73 2.25-7.87 1.55-14.79 -0.86-8.55-2.01-20.78 20.57-35.22 13.107-8.382 25.148-8.831 34.88-8.774C76.992 15.055 59.202 23.021 46.397 36zM97.211 6.536c-7.054-1.657-14.23-2.682-21.512-2.08C57.487 5.947 38.816 16.979 37.113 36.63 45.702 11.883 69.947 0.867 97.211 6.536zM126.834 59.708c-5.874-6.638-20.763-20.441-17.904-36.563 -0.251 2.617-1.317 6.185-2.091 7.821 5.657 26.844 24.4 25.05 26.021 46.982C133.567 74.046 129.607 62.841 126.834 59.708zM101.876 33.946c0.041 0.02 0.083 0.035 0.124 0.054C101.959 33.98 101.917 33.965 101.876 33.946 84.761 44.678 55.85 46.235 51 70c-1.266 6.203 5.054 18.03 0 27 -3.958 7.024 4 17 4 23s-4 11-5 18c-1 5 2 9 3 14 1 6-3 12-2 17 4.173 33.465-7.631 24.573 0.82 63.868 0.959 0.086 2.033 0.173 3.259 0.257 -0.94-5.08-1.69-12.63-0.83-22.75 1.54-18.06 4.07-11.92 0.51-27.25 -2.9-12.489-0.23-14.09 0.31-22.02 0.5-7.36-1.8-13.96-2.73-18.4 -3.18-15.12 9.72-17.31 6.69-26.25 -0.85-2.5-2.52-4.67-3.95-6.85 -7.58-11.968 1.421-13.924 0.8-23.23 -0.46-7.12-7-16.73 5.86-28.91 17.35-16.43 39.143-11.955 46.267-28.633C106.397 30.294 103.656 32.83 101.876 33.946zM158 190c1-9-1.131-17.628-4.131-26.628 -2-10 6.6-15.637 8.115-25.099 1.807-11.278-6.729-20.634 0.034-36.93 7.657-18.449 3.6-35.793-8.482-43.848 -14.671-10.086-23.385-20.865-30.952-37.156 6.736 35.057 29.35 37.938 35.255 56.606 3.95 12.48-3.89 22.5-2.939 36.31 0.405 5.96 2.941 11.623 2.12 17.69 -1.49 10.87-12.12 17.31-9.79 30.95 1.029 6.05 3.39 11.72 3.92 17.88 0.83 9.51-0.96 19.1-0.15 29.01 0.68 8.32 2.12 6.311 0.061 22.931 2.061-0.275 7.131-0.378 9.207-0.4C157.498 217.629 155.476 203.462 158 190zM114.267 8.481c10.364 3.309 12.499 13.877 25.333 24.504 5.42 4.5 15.6 9.53 23.989 18.8C150.646 34.024 125.583 8.481 114.267 8.481zM118.217 4.263c10.112-0.064 16.552 1.334 26.813 7.022 6.78 3.76 11.77 8.8 15.439 14.44C157.241 15.567 137.471-1.315 118.217 4.263zM169.249 130.686c4.75-16.351 6.351-25.88 4.51-36.75C169.27 105.867 163.235 112.89 169.249 130.686zM35.299 37.855c-5.1 8.58-7.65 19.96-8.21 23.7 -0.6 4.08-2.06 8.23-1.4 12.31C36.633 54.878 34.126 54.672 35.299 37.855zM29 229c-10.555-46.603 5.569-64.086-1.815-77.539 -5.86 19.443-7.903 20.479-4.996 59.664 0.79 10.69 0.7 19.11 0.46 24.561 2.485-0.057 4.312-0.176 6.192-0.461C29.196 233.218 29.487 231.15 29 229zM25.959 125.936c-1.901 6.5-1.314 13.373 0.51 19.979C28.109 137.985 27.759 132.695 25.959 125.936zM171.339 179.025c-0.239-11.98-1.58-19.57-3.31-25.15 -3.13 5.67-6.88 11.181-5.88 17.811 0.37 2.439 1.16 4.75 1.67 7.149 1.76 8.311-1.98 13.41-0.58 26.7 0.524 4.947 2.555 9.557 1.95 25.931 4.36 0.118 5.382 0.02 6.93 0.02C167.447 194.645 171.56 190.19 171.339 179.025z" fill="#bbab92" stroke-width="none" opacity="1" stroke="none"/>
            <path id="SvgjsPath17483" d="M41.174 37.035c2.742-4.962 5.685-9.62 9.504-13.836C68.75 3.245 94.287 10.679 98.519 10.509c-2.453 0.099-17.337-2.904-31.718 2.782C52.353 19.005 46.163 28.773 41.174 37.035zM82.104 15.495c9.209-0.041 19.252 3.171 20.252 3.641 -1.345-0.632-11.848-4.331-19.82-4.332 -7.33-0.001-14.298 2.961-20.784 6.078C68.208 18.053 74.954 15.527 82.104 15.495zM94.503 24.398c0.243-0.031 6.921-0.762 7.033-0.548 -0.046-0.089-1.342 0.007-1.454 0.007C75.188 23.911 50.574 37.095 43.97 57.105 51.898 36.451 78.067 26.495 94.503 24.398zM85.715 29.512c-4.868 1.411-9.764 3.261-14.134 5.861 1.722-1.024 3.72-1.784 5.575-2.521 14.368-5.716 22.167-4.655 23.782-4.583C95.832 27.849 90.673 28.075 85.715 29.512zM55.795 57.449c7.657-10.578 30.801-16.698 42.709-23.107C85.168 40.917 64.906 44.861 55.795 57.449zM23.802 90.407c-1.925 6.5 1.442 17.037 3.641 23.509 -1.452-4.276-4.294-16.879-2.45-22.924 2.54-8.321 8.077-15.33 10.361-23.765C32.245 76.654 25.938 83.204 23.802 90.407zM49.345 135.376c-0.227 0.832-0.669 1.795-0.712 2.659 0.033-0.666 0.549-1.511 0.779-2.123 4.786-12.716 5.62-16.075-0.64-28.802C52.467 116.524 53.679 119.49 49.345 135.376zM37.69 168.502c-0.001 0.172 0.073 3.122 0.156 3.272 -0.137-0.247 0.005-0.952 0.01-1.22 0.255-13.385 6.896-18.12 1.553-32.456C43.457 152.001 37.798 153.163 37.69 168.502zM49.653 184.464c-0.634 5.103-3.229 12.69-3.403 22.732 -0.023 1.294 0.233 2.588 0.209 3.877 0.028-1.552-0.07-3.089 0.032-4.643 0.482-7.301 2.122-11.081 3.062-16.426 2-10.691 0.184-12.236-0.424-23.268C49.161 173.583 50.294 179.311 49.653 184.464zM40.77 114.267c2.006 7.65 1.53 8.484 1.664 12.785 -0.051-1.65 0.944-3.732-1.023-13.009 -4.891-23.038 3.681-14.839 1.697-37.635C44.065 99.736 34.9 91.875 40.77 114.267zM125.891 58.415c15.459 19.39 2.691 37.278 8.563 47.381 -4.495-7.73 3.611-22.904-2.03-38.349 -3.499-9.572-12.808-15.293-17.928-25.886 -2.552-5.281-4.697-10.585-5.044-16.489C109.978 41.711 122.734 54.458 125.891 58.415zM129.333 48.056c2.588 2.805 5.433 5.618 8.623 7.742 -1.244-0.828-2.352-1.974-3.421-3.006 -15.846-15.29-16.277-27.594-17.245-34.801C118.533 32.05 120.594 38.583 129.333 48.056zM134.563 34.623c9.546 12.754 41.372 29.817 34.61 53.113 0 0.001-2.097 6.627-2.097 6.627 4.98-11.852 5.456-20.782-3.651-33.489 -8.378-11.687-21.297-17.214-29.644-27.799 -1.334-1.69-2.464-3.507-3.701-5.264C131.491 30.155 132.922 32.431 134.563 34.623zM160.783 35.442c-4.209-14.69-21.029-26.19-38.988-26.627C141.068 10.293 157.798 25.022 160.783 35.442zM102.187 31.702c4.048-3.483 6.929-6.043 8.311-19.639C109.441 19.675 107.764 26.903 102.187 31.702zM164.052 138.794c-0.281 7.611-3.443 11.155-5.54 16.217 -4.702 11.349 0.976 19.192 2.015 28.62 0.008 0.071 0.301 3.063 0.243 3.104 0.022-0.017-0.018-0.352-0.019-0.381 -0.194-12.388-6.224-19.056-1.091-31.181 4.217-9.965 7.672-12.175 2.237-32.578C162.678 126.498 164.282 132.588 164.052 138.794zM144.194 166.221c4.157 11.405 3.104 10.781 3.585 13.183 -0.029-0.145-0.092-2.743-0.735-5.67 -1.496-6.817-4.767-12.746-3.954-20.787 0.792-7.821 6.467-13.167 6.969-20.287 0.159-2.253-0.13-4.347-0.534-6.555C152.103 144.283 136.115 144.075 144.194 166.221zM151.224 99.355c-0.246 1.197-0.356 2.542-0.758 3.696 0.989-2.848 1.554-5.983 2.193-8.922 3.32-15.236-0.084-20.154-9.51-32.352C151.327 73.808 155.731 77.462 151.224 99.355z" fill="#d9d8d5" stroke-width="none" opacity="1" stroke="none"/>
            <path id="SvgjsPath17484" d="M174.649 71.396c-1.21-4.07-2.811-7.67-4.681-10.89 -0.279-9.79-2.09-21.87-8.01-32.31 -1.32-6.81-3.939-14.66-12.34-20.85 -4.44-3.27-13.45-6.83-22.28-8.63 -6.33-5.85-8.89-5.88-14.489-4.94 -11.091 1.85-11.421-5.86-19.74-0.14 -6.2-1.57-13.29-1.76-17.86-0.88 -4.94 0.95-11.31 4.15-15.94 7.94 -0.01 0-0.01 0-0.01 0 -7.19 1.94-13.41 5.31-16.93 10.62 -3.32 5.01-4.25 9.98-4.1 14.29 -1.68 3.45-2.44 6.86-2.8 10.28 -3.09 4.3-5.94 9.27-7.57 12.47 -1.923 3.763-5.022 20.157-3.29 27.42 -1.72 3.06-3.26 6.03-4.22 8.93 -0.93 2.81-1.52 5.59-1.86 8.53 -0.59 5.27 0.36 10.87 2.01 15.87 2.12 6.41 3.84 11.26 5.04 15.479 -3.87 9.061-3.32 16.73 0.07 24.87 -0.76 2.99-1.76 6.351-3.02 10.25 -7.25 22.391 0.01 48.86-0.01 69.08 0 1.9-0.08 4.48-0.17 6.91 -0.01 0.07-0.01 0.14-0.01 0.21 0.07 0.01 0.13 0.01 0.2 0 4.06-0.03 6.17-0.24 9.56-0.96 0.09-0.02 0.18-0.04 0.28-0.06 1.15-0.25 2.46-0.561 4.04-0.931 4.12-0.97 5.87-1.189 8.76-1.02 0.07 0 0.15 0.01 0.23 0.02 2.14 0.13 4.93 0.46 9.7 0.84 0.07 0.011 0.13 0.011 0.2 0.021 3.24 0.26 7.38 0.55 12.83 0.81 6.13 0.261 12.24 0.7 18.37 1.021 10.01 0.52 20.029 0.84 30.05 0.49 6.38-0.221 12.91-0.631 19.41-1.41 0.12-0.01 0.24-0.03 0.37-0.04 2.92-0.36 5.83-0.78 8.72-1.311 2.06-0.37 3.82-0.659 5.35-0.89 0.16-0.02 0.311-0.04 0.46-0.06 6-0.851 8.65-0.7 13.65-0.641 0.18 0 0.37 0.01 0.56 0.01 1.9 0.011 4.131 0.011 6.98-0.06 0.19 0 0.38-0.01 0.58-0.01 -0.01-0.08-0.021-0.16-0.021-0.25 -1.149-13.17-1.54-31.67-0.35-39.13 1.79-11.24 0.66-22.971-2.06-33.99 -0.521-2.101-1.08-3.93-1.681-5.58 1.17-2.2 2.19-4.43 2.76-6.78 1.221-5.02-0.06-9.17-1.59-13.68 2.94-8.6 5.91-18.49 6.051-23.85 0.17-6.48-0.74-12.141-1.601-15.891C176.279 86.715 177.27 80.215 174.649 71.396zM27.089 61.555c0.56-3.74 3.11-15.12 8.21-23.7 -0.5 7.17 0.26 14.42-2.62 22.28 -1.74 4.77-4.46 9.34-6.99 13.73C25.029 69.785 26.489 65.635 27.089 61.555zM25.459 127.926c0.14-0.681 0.31-1.341 0.5-1.99 1.8 6.76 2.15 12.05 0.51 19.979C24.959 140.445 24.119 134.205 25.459 127.926zM113.27 235.035c-10.65 0.22-21.41-0.25-32.05-0.79 -6.38-0.319-12.75-0.54-19.13-0.76 -2.69-0.09-4.92-0.21-6.79-0.34 -2.69-17.61 1.98-34.561 2.55-38.43 0.82-8.521-4.61-14.961-1.63-28.11 3.02-13.26-1.29-20.58-1.8-27.32 -0.79-10.47 9-12.41 7.78-21.569 -0.83-6.33-7.67-10.351-7.67-16.9 0.9-6.27 5.1-8.33 3.23-17.38 -1.23-5.98-7.92-18.1 13.54-31.5 14.98-9.36 29.52-9.16 35.29-20.45 1.33 7.07 3.63 13.89 8.96 20.24 3.82 4.51 8.45 8.44 11.53 13.55 6.62 11.01 2.94 23.7 2.63 29.3 -0.359 6.38 2.601 11.88 3.891 17.97 1.329 6.221-1.101 11.99-2.79 17.87 -0.801 2.79-1.131 5.24-1.16 7.33 -0.021 0.42-0.011 0.82 0.01 1.2 0.07-0.2 0.13-0.4 0.2-0.6 2.92-8.19 8.88-14.63 9.069-22.311 0.15-6.24-2.43-12.18-2.38-18.41 0.04-4.97 1.5-9.75 2.28-14.62 3.42-21.26-12.75-23.67-19.05-37.72 -0.55-1.22-1-2.53-1.37-3.92 1.03 1.59 2.09 3.15 3.18 4.7 9.32 13.23 17.49 18.92 23.021 29.05 8.14 14.94 0.609 23.57-0.26 36.48 -0.37 5.34 0.89 10.62 0.5 15.949 -0.44 6.11-2.83 9.49-5.91 14.74 -8.48 14.48-2.551 20.44 1.149 31.681 0 0.01 0 0.01 0.011 0.02 0 0.01 0 0.02 0.01 0.04 0.06 0.29 0.399 1.64 0.58 2.6 2.47 12.801-8.271 33.25-7 46.5 0.189 1.95 1.149 6.391 2.18 10.78C130.929 234.445 124.789 234.806 113.27 235.035zM171.339 179.025c0.23 11.67-3.779 13.76 0.62 51.21 0.05 0.36 0.101 0.78 0.16 1.25 -0.48 0-0.95 0.01-1.42 0.02 -1.84 0.04-3.67 0.011-5.51-0.039 0.1-2.7 0.12-5.761 0.01-9.211 -0.37-11.609-1.271-10.21-1.96-16.72 -1.4-13.29 2.34-18.39 0.58-26.7 -0.51-2.399-1.3-4.71-1.67-7.149 -1-6.63 2.75-12.141 5.88-17.811C169.759 159.455 171.1 167.045 171.339 179.025zM168.069 146.136c-0.3 0.93-0.641 1.85-1.03 2.75 -0.13 0.33-0.28 0.67-0.43 1 -1.91 4.26-4.44 8.229-5.99 12.649 -2.75 7.811 0.18 13.36 0.98 16.62 1.52 6.19-0.32 12.65-0.351 18.9 -0.04 11 3.44 12.34 3.37 33.39 -4.53-0.13-9.07-0.33-13.56 0.271 2.06-16.62 0.619-14.61-0.061-22.931 -0.81-9.91 0.98-19.5 0.15-29.01 -0.53-6.16-2.891-11.83-3.92-17.88 -2.33-13.641 8.3-20.08 9.79-30.95 0.13-0.96 0.18-1.92 0.159-2.87 -0.09-4.99-1.939-9.82-2.279-14.82 -0.95-13.81 6.89-23.83 2.939-36.31 -6.029-19.06-29.489-21.64-35.67-58.84 3.47 25.44 14.351 33.64 24.71 45 20 21.96 3.63 30.33 5.391 51.55 0.47 5.57 2.88 11.29 1.52 16.89 -2.63 9.311-10.47 16.801-9.56 27.45 0.54 6.36 3.43 12.23 4.51 18.49 2.16 12.51-1.101 19.68 1.97 37.56 0.851 4.91 0.49 10.801-0.13 16.73 -6.11 0.89-9.729 1.57-14.3 2.09 -0.5-2.439-1-5-1.44-7.399 -1.46-7.98 1.261-16.2 3.49-23.78 7.57-25.69 4.73-26.74 0.65-38.74 -5.181-15.21 4.37-19.42 7.64-29.62 1.85-5.8 1.13-11.689 0.49-17.62 -1.48-13.91 6.319-22.229 2.01-35.6 -3.73-11.59-13.66-19.41-21.34-28.31 -3.51-4.06-6.7-8.36-9.71-12.78 -1.5-6.45-1.561-14.06-1.95-19.64 0.21 5.86-0.04 12.16 0.94 18.12 0.05 0.35 0.109 0.7 0.18 1.05 0.58 3.08 1.52 6.07 3.06 8.84 4.49 8.07 13.801 14.1 16.28 22.24 2.65 10-2.31 18.25-1.78 27.66 0.351 6.24 3.13 12.181 2.96 18.47 -0.17 6.2-5.109 12.65-7.8 20.061 0.75-7.42 5.58-14.46 5-22.16 -0.46-6.08-3.56-11.66-3.689-17.79 -0.12-5.9 4.8-18.29-1.62-30.31 -5.641-10.57-16.391-14.29-21.19-29.38 -0.649-2.04-1.18-4.12-1.62-6.21 0.771-1.63 1.37-3.5 1.771-5.66 0.22-1.21 0.39-2.52 0.479-3.93 -0.319 3.73-1.13 6.74-2.319 9.21 -0.091 0.17-0.17 0.34-0.25 0.5 -7.3 13.98-27.811 10.31-44.78 26.38 -12.86 12.18-6.32 21.79-5.86 28.91 0.08 1.2-0.02 3-0.2 3.81 -2.05 6.79-6.75 9.71-0.6 19.42 1.43 2.18 3.1 4.35 3.95 6.85 3.03 8.94-9.87 11.13-6.69 26.25 0.93 4.44 3.23 11.04 2.73 18.4 -0.54 7.93-3.21 9.53-0.31 22.02 3.56 15.33 1.03 9.19-0.51 27.25 -0.86 10.12-0.11 17.67 0.83 22.75 -4.84-0.33-7.34-0.72-9.52-0.819 0.37-4.88 0.21-11.96-1.82-21.521 -0.66-3.08-1.59-6.14-1.94-9.28 -0.97-8.659 3.67-13.3 4.8-20.64 1.32-8.6 0.35-18.29 2.66-23.939 2.54-6.2-0.1-10.631-1.05-16.011 -2.17-12.26 6.13-12.58 0.27-27.8 -2.74-7.11-2.45-9.54-0.31-15.15 1.21-3.2 2.41-6.25 2.91-9.66 1.23-8.52-9.8-15.96 4.03-32.5 12.27-14.69 33.52-22.52 44.06-24.38 -24.02 3.87-53.765 23.204-52.68 41.62 0.718 12.194 5.194 8.275 1.03 21.02 -1.131 3.463-2.86 6.63-3.18 10.31 -0.55 6.15 3.25 10.14 3.86 17.52 -0.01 4.38-3.7 10.66-2.82 17.51 0.66 5.19 3.89 10.84 1.99 16.26 -3.04 7.95-0.95 18.17-2.66 26.58 -1.21 5.92-4.52 10.41-4.16 17.45 0.16 3.03 1 5.96 1.76 8.88 2.81 10.771 3.25 18.51 3 23.72 -2.79-0.109-5.19 0.28-11.5 1.881 -0.43 0.109-0.84 0.21-1.23 0.3 2.96-13.15-0.74-34.23-0.48-44.141 0.15-5.68 3.55-12.09 4.53-17.199 1.13-5.94-1.18-16.721-0.53-25.051 0.68-8.58 2.6-11.8 3.97-17.83 2.89-12.81-4.81-18.869-6.25-28.049 -1.51-9.55 6.76-18.69 8.54-28.86 1.84-10.54-6.38-20.18 7.73-35.03 17.72-18.67 37.6-18.53 48.35-18.78 -10.2-0.09-23.39-0.51-37.87 8.75 -22.58 14.44-21.43 26.67-20.57 35.22 0.7 6.92 0.77 9.06-1.55 14.79 -2.14 5.3-4.97 9.74-6.53 14.59 -1.49 4.64-1.82 9.66 0.73 16.15 1 2.55 2.11 5.04 3.12 7.58 0.45 1.13 0.9 2.33 1.16 3.521 0.07 0.33 0.37 1.79 0.43 1.939 0.9 10.36-4.19 15.76-4.02 27.86 0.06 4.569 0.91 10.99 1.31 15.92 0.17 2.229 0.25 4.149 0.13 5.46 -0.46 4.89-2.83 9.53-3.94 15.42 -1.6 8.18 4.47 32.62 1.45 47.81 -3.44 0.811-5.72 1.051-9.64 1.141 0.24-5.45 0.33-13.87-0.46-24.561 -1.34-18.06-3.03-33.71 1.85-49.5 1.09-3.52 2.06-6.569 2.89-9.319 0.27-0.87 0.52-1.721 0.75-2.53 2.76-9.7 3.33-16.01-0.12-28.17 -0.06-0.23-0.13-0.47-0.2-0.71 -0.47-1.63-1.01-3.36-1.63-5.22 -4.55-13.67-7.18-21.67-0.22-36.021 0.26-0.55 0.54-1.11 0.84-1.68 0.17-0.33 0.34-0.66 0.52-0.99 3.78-7.04 8.31-14.3 9.43-22.38 0.96-6.91 0.15-13.47 1.02-19.95 0.06-0.51 0.14-1.02 0.23-1.53 0.25-1.39 0.59-2.78 1.05-4.17 0.16-0.47 0.33-0.94 0.52-1.41 0.96-2.44 2.34-4.87 4.32-7.32 7.68-9.49 20.29-14.79 32.26-15.77 11.01-0.91 21.78 1.89 32.25 4.99 -10.66-3.41-21.62-6.44-32.93-5.63 -7.45 0.52-15.12 2.74-21.75 6.57 -3.76 2.16-7.19 4.84-10.06 8.02 -1.62 1.79-2.91 3.56-3.94 5.32 0.54-4.66 2.35-9.17 5.52-12.66 2.55-2.82 6.34-5.05 10.81-6.74 0.42-0.16 0.85-0.32 1.29-0.47 13.39-4.65 32.04-4.78 41.79-1.59 2.5 0.82 4.86 1.79 7.25 2.86 -2.229-1.17-4.449-2.22-6.79-3.15 -3.11-1.24-7.39-2.23-12.24-2.82 -0.04-0.01-0.08-0.02-0.12-0.02 -7.49-0.9-16.34-0.83-24.35 0.82 2.52-1.47 5.18-2.7 7.48-3.53 7.47-2.51 13.74-2.78 20.5-2.07 0.48 0.06 0.97 0.12 1.46 0.19 0.3 0.04 0.6 0.09 0.9 0.13 4.33 0.67 8.91 1.97 11.68 5.44 -1.94-2.92-5.87-4.96-10.4-6.23 3.57-2.06 5.04-1.4 10.57 1.07 2.54 1.13 5.06 1.4 7.81 1.03 5.351-0.74 6.75-1.85 12.471 2.27 -8.311-1.38-16.07-1.02-19.28 2.82 -0.14 0.17-0.28 0.35-0.4 0.53 3.7-4.46 12.721-4.07 21.931-1.63 0.7 0.18 1.41 0.38 2.12 0.59 8.18 2.41 16.189 6.28 20.439 9.62 6.351 5.01 9.08 10.24 10.76 15.54 -3.67-5.64-8.659-10.68-15.439-14.44 -3.68-2.04-6.87-3.54-9.94-4.61 -0.08-0.03-0.17-0.06-0.25-0.08 -5.77-1.99-11.13-2.48-18.54-2.31 2.971 0.11 5.86 0.28 8.811 0.68 10.81 1.46 19.54 7.1 27.17 14.37 3.81 3.63 8.13 10.5 11.479 18.97 2.431 6.18 4.351 13.22 5.17 20.47 -1.149-1.81-2.39-3.5-3.689-5.07 -1.08-8.84-3.66-17.23-12.851-25.45 -3.68-3.3-7.829-5.56-12.22-7.75 4.25 2.46 8.33 5.1 11.71 8.72 6.63 7.1 9.91 15.51 11.71 22.56 -8.39-9.27-18.569-14.3-23.989-18.8 -8.9-7.37-13.9-15.68-18.7-20.12 -2.05-1.88-4.28-3.27-6.78-4.46 1.87 0.97 3.62 2.01 5.24 3.38 1.63 1.38 3.06 3.02 4.41 4.69 0.189 0.24 0.38 0.48 0.569 0.72 6.3 7.97 10.65 14.53 22.521 22.64 6.859 4.69 13.01 9.95 17.72 16.41 0.37 0.51 0.72 1.02 1.07 1.54 1.38 2.04 2.609 4.2 3.68 6.49 0.23 0.49 0.45 0.98 0.66 1.48 0.16 0.38 0.32 0.76 0.47 1.15 1.521 3.84 2.73 8.06 3.05 12.21 0.091 3.32-0.189 5.9-0.83 8.38 -0.05 0.22-0.109 0.44-0.17 0.66 -0.83 2.91-2.14 5.78-3.899 9.66 -10.221 22.42-3.7 29.99-1.07 38.59 0.13 0.43 0.25 0.86 0.36 1.3C168.539 140.235 168.759 142.915 168.069 146.136zM169.249 130.686c-1.439-4.26-2.86-8.94-2.49-15.03 0.511-8.49 4.37-14.73 7-21.72C175.6 104.805 173.999 114.335 169.249 130.686z" fill="#9c845b" stroke-width="none" opacity="1" stroke="none"/>
          </g>
          <g id="svga-group-glasses-single-move" transform="matrix(1,0,0,1,0,0)">
            <g id="svga-group-glasses-single" transform="matrix(1,0,0,1,0,0)">
              <path id="SvgjsPath17449" d="M100,18.13L100,18.13L100,18.13L100,18.13z" fill="#26120b" stroke-width="none" opacity="1"/>
            </g>
          </g>
        </g>
      </g>
    </g>
    <rect id="SvgjsRect17302" width="200" height="15" x="0" y="185" fill="#ecf0f1" opacity="0.5" style="display: none;"/>
    <text id="SvgjsText17303" font-family="Roboto, Helvetica, Arial, sans-serif" font-size="10px" text-anchor="start" font-weight="400" anchor="start" fill="#333333" x="38.69989776611328" y="182.42827010154724" style="display: none;">
      <tspan id="SvgjsTspan17304" dy="13" x="38.69989776611328">Created on svgAvatars.com</tspan>
    </text>
  </g>
</svg>
