<svg xmlns="http://www.w3.org/2000/svg" width="500" height="500" version="1.1" viewBox="0 0 200 200" style="overflow:hidden!important"><defs id="SvgjsDefs8469"><radialGradient id="SvgjsRadialGradient8535" cx="100" cy="114" r="41" class="svga-on-canvas-facehighlight-gradient-single-0" gradientUnits="userSpaceOnUse"><stop id="SvgjsStop8536" offset="0" stop-color="#ffe4d6" stop-opacity=".5"/><stop id="SvgjsStop8537" offset=".9" stop-color="#f0c7b1" stop-opacity="0"/></radialGradient><radialGradient id="SvgjsRadialGradient8539" cx="100" cy="54" r="37" class="svga-on-canvas-facehighlight-gradient-single-1" gradientUnits="userSpaceOnUse"><stop id="SvgjsStop8540" offset="0" stop-color="#ffe4d6" stop-opacity=".5"/><stop id="SvgjsStop8541" offset=".9" stop-color="#f0c7b1" stop-opacity="0"/></radialGradient><linearGradient id="SvgjsLinearGradient9122" x1="100" x2="100" y1="142" y2="139" class="svga-on-canvas-mouth-gradient-single-0" gradientUnits="userSpaceOnUse"><stop id="SvgjsStop9123" offset=".1" stop-color="#e8b9a0" stop-opacity="1"/><stop id="SvgjsStop9124" offset="1" stop-color="#e1ac8f" stop-opacity="1"/></linearGradient><radialGradient id="SvgjsRadialGradient9538" cx="-568.659" cy="-521.042" r="59.751" class="svga-on-canvas-eyesiris-gradient-left-1" gradientTransform="matrix(0.096 -0.0248 0.0245 0.0961 141.2814 119.9893)" gradientUnits="userSpaceOnUse"><stop id="SvgjsStop9539" offset="0" stop-color="#fff" stop-opacity="1"/><stop id="SvgjsStop9540" offset="1" stop-color="#fff" stop-opacity="0"/></radialGradient><radialGradient id="SvgjsRadialGradient9542" cx="-582.838" cy="-519.099" r="59.745" class="svga-on-canvas-eyesiris-gradient-left-2" gradientTransform="matrix(0.0991 8.856319e-004 -0.0011 0.0991 131.1134 135.9855)" gradientUnits="userSpaceOnUse"><stop id="SvgjsStop9543" offset="0" stop-color="#fff" stop-opacity="1"/><stop id="SvgjsStop9544" offset="1" stop-color="#fff" stop-opacity="0"/></radialGradient><linearGradient id="SvgjsLinearGradient9548" x1="122.67" x2="123.606" y1="88.268" y2="87.152" class="svga-on-canvas-eyesiris-gradient-left-5" gradientTransform="matrix(1 0 0 1 -52 0)" gradientUnits="userSpaceOnUse"><stop id="SvgjsStop9549" offset="0" stop-color="#fff" stop-opacity="1"/><stop id="SvgjsStop9550" offset="1" stop-color="#fff" stop-opacity="0"/></linearGradient><linearGradient id="SvgjsLinearGradient9556" x1="129.636" x2="127.91" y1="79.822" y2="81.879" class="svga-on-canvas-eyesiris-gradient-left-7" gradientTransform="matrix(1 0 0 1 -52 0)" gradientUnits="userSpaceOnUse"><stop id="SvgjsStop9557" offset="0" stop-color="#fff" stop-opacity="1"/><stop id="SvgjsStop9558" offset="1" stop-color="#fff" stop-opacity="0"/></linearGradient><radialGradient id="SvgjsRadialGradient9561" cx="-568.654" cy="-521.042" r="59.752" class="svga-on-canvas-eyesiris-gradient-right-1" gradientTransform="matrix(0.096 -0.0248 0.0245 0.0961 193.2804 119.9894)" gradientUnits="userSpaceOnUse"><stop id="SvgjsStop9562" offset="0" stop-color="#fff" stop-opacity="1"/><stop id="SvgjsStop9563" offset="1" stop-color="#fff" stop-opacity="0"/></radialGradient><radialGradient id="SvgjsRadialGradient9565" cx="-582.833" cy="-519.102" r="59.747" class="svga-on-canvas-eyesiris-gradient-right-2" gradientTransform="matrix(0.0991 8.856319e-004 -0.0011 0.0991 183.1126 135.9856)" gradientUnits="userSpaceOnUse"><stop id="SvgjsStop9566" offset="0" stop-color="#fff" stop-opacity="1"/><stop id="SvgjsStop9567" offset="1" stop-color="#fff" stop-opacity="0"/></radialGradient><linearGradient id="SvgjsLinearGradient9571" x1="122.67" x2="123.606" y1="88.268" y2="87.152" class="svga-on-canvas-eyesiris-gradient-right-5" gradientUnits="userSpaceOnUse"><stop id="SvgjsStop9572" offset="0" stop-color="#fff" stop-opacity="1"/><stop id="SvgjsStop9573" offset="1" stop-color="#fff" stop-opacity="0"/></linearGradient><linearGradient id="SvgjsLinearGradient9579" x1="129.636" x2="127.91" y1="79.822" y2="81.879" class="svga-on-canvas-eyesiris-gradient-right-7" gradientUnits="userSpaceOnUse"><stop id="SvgjsStop9580" offset="0" stop-color="#fff" stop-opacity="1"/><stop id="SvgjsStop9581" offset="1" stop-color="#fff" stop-opacity="0"/></linearGradient><linearGradient id="SvgjsLinearGradient12174" x1="132" x2="126" y1="78" y2="84" class="svga-on-canvas-eyesiris-gradient-left-6" gradientTransform="matrix(1 0 0 1 -50 0)" gradientUnits="userSpaceOnUse"><stop id="SvgjsStop12175" offset="0" stop-color="#fff" stop-opacity="1"/><stop id="SvgjsStop12176" offset="1" stop-color="#fff" stop-opacity="0"/></linearGradient><linearGradient id="SvgjsLinearGradient12184" x1="132" x2="126" y1="78" y2="84" class="svga-on-canvas-eyesiris-gradient-right-6" gradientUnits="userSpaceOnUse"><stop id="SvgjsStop12185" offset="0" stop-color="#fff" stop-opacity="1"/><stop id="SvgjsStop12186" offset="1" stop-color="#fff" stop-opacity="0"/></linearGradient><radialGradient id="SvgjsRadialGradient12948" cx="126.275" cy="85.349" r="10.629" class="svga-on-canvas-eyesback-gradient-left-0" gradientTransform="matrix(-1 0 0 1 200 0)" gradientUnits="userSpaceOnUse"><stop id="SvgjsStop12949" offset="0" stop-color="#fff" stop-opacity="1"/><stop id="SvgjsStop12950" offset=".544" stop-color="#fdfefe" stop-opacity="1"/><stop id="SvgjsStop12951" offset=".74" stop-color="#f6f8f9" stop-opacity="1"/><stop id="SvgjsStop12952" offset=".879" stop-color="#eaeff2" stop-opacity="1"/><stop id="SvgjsStop12953" offset=".992" stop-color="#d9e3e8" stop-opacity="1"/><stop id="SvgjsStop12954" offset="1" stop-color="#d8e2e7" stop-opacity="1"/></radialGradient><radialGradient id="SvgjsRadialGradient12956" cx="125.875" cy="85.349" r="10.629" class="svga-on-canvas-eyesback-gradient-right-0" gradientUnits="userSpaceOnUse"><stop id="SvgjsStop12957" offset="0" stop-color="#fff" stop-opacity="1"/><stop id="SvgjsStop12958" offset=".544" stop-color="#fdfefe" stop-opacity="1"/><stop id="SvgjsStop12959" offset=".74" stop-color="#f6f8f9" stop-opacity="1"/><stop id="SvgjsStop12960" offset=".879" stop-color="#eaeff2" stop-opacity="1"/><stop id="SvgjsStop12961" offset=".992" stop-color="#d9e3e8" stop-opacity="1"/><stop id="SvgjsStop12962" offset="1" stop-color="#d8e2e7" stop-opacity="1"/></radialGradient><radialGradient id="SvgjsRadialGradient12964" cx="126.275" cy="85.349" r="10.629" class="svga-on-canvas-eyesfront-gradient-left-0" gradientTransform="matrix(-1 0 0 1 200 0)" gradientUnits="userSpaceOnUse"><stop id="SvgjsStop12965" offset="0" stop-color="#fff" stop-opacity="1"/><stop id="SvgjsStop12966" offset=".544" stop-color="#fdfefe" stop-opacity="1"/><stop id="SvgjsStop12967" offset=".74" stop-color="#f6f8f9" stop-opacity="1"/><stop id="SvgjsStop12968" offset=".879" stop-color="#eaeff2" stop-opacity="1"/><stop id="SvgjsStop12969" offset=".992" stop-color="#d9e3e8" stop-opacity="1"/><stop id="SvgjsStop12970" offset="1" stop-color="#d8e2e7" stop-opacity="1"/></radialGradient><radialGradient id="SvgjsRadialGradient12974" cx="123.715" cy="83.955" r="17.219" class="svga-on-canvas-eyesfront-gradient-left-3" fx="135.822" fy="83.989" gradientTransform="matrix(0.9998 0.0206 0.0166 -0.7916 -48.8004 147.8581)" gradientUnits="userSpaceOnUse"><stop id="SvgjsStop12975" offset="0" stop-color="#e1ac8f" stop-opacity="1"/><stop id="SvgjsStop12976" offset=".7" stop-color="#e1ac8f" stop-opacity=".3"/><stop id="SvgjsStop12977" offset="1" stop-color="#f0c7b1" stop-opacity="0"/></radialGradient><radialGradient id="SvgjsRadialGradient12979" cx="123.018" cy="104.865" r="27.497" class="svga-on-canvas-eyesfront-gradient-left-4" gradientTransform="matrix(-0.9336 -0.3584 -0.3046 0.7935 223.7724 65.7356)" gradientUnits="userSpaceOnUse"><stop id="SvgjsStop12980" offset=".95" stop-color="#000" stop-opacity="0"/><stop id="SvgjsStop12981" offset="1" stop-color="#000" stop-opacity=".2"/></radialGradient><radialGradient id="SvgjsRadialGradient12985" cx="125.875" cy="85.349" r="10.629" class="svga-on-canvas-eyesfront-gradient-right-0" gradientUnits="userSpaceOnUse"><stop id="SvgjsStop12986" offset="0" stop-color="#fff" stop-opacity="1"/><stop id="SvgjsStop12987" offset=".544" stop-color="#fdfefe" stop-opacity="1"/><stop id="SvgjsStop12988" offset=".74" stop-color="#f6f8f9" stop-opacity="1"/><stop id="SvgjsStop12989" offset=".879" stop-color="#eaeff2" stop-opacity="1"/><stop id="SvgjsStop12990" offset=".992" stop-color="#d9e3e8" stop-opacity="1"/><stop id="SvgjsStop12991" offset="1" stop-color="#d8e2e7" stop-opacity="1"/></radialGradient><radialGradient id="SvgjsRadialGradient12995" cx="123.315" cy="83.955" r="17.219" class="svga-on-canvas-eyesfront-gradient-right-3" fx="135.422" fy="83.989" gradientTransform="matrix(-0.9998 0.0206 -0.0166 -0.7916 248.0017 147.8663)" gradientUnits="userSpaceOnUse"><stop id="SvgjsStop12996" offset="0" stop-color="#e1ac8f" stop-opacity="1"/><stop id="SvgjsStop12997" offset=".7" stop-color="#e1ac8f" stop-opacity=".3"/><stop id="SvgjsStop12998" offset="1" stop-color="#f0c7b1" stop-opacity="0"/></radialGradient><radialGradient id="SvgjsRadialGradient13000" cx="122.617" cy="104.865" r="27.498" class="svga-on-canvas-eyesfront-gradient-right-4" gradientTransform="matrix(0.9336 -0.3584 0.3046 0.7935 -23.799 65.5921)" gradientUnits="userSpaceOnUse"><stop id="SvgjsStop13001" offset=".95" stop-color="#000" stop-opacity="0"/><stop id="SvgjsStop13002" offset="1" stop-color="#000" stop-opacity=".2"/></radialGradient><linearGradient id="SvgjsLinearGradient13009" x1="100" x2="100" y1="171" y2="128" class="svga-on-canvas-chinshadow-gradient-single-0" gradientUnits="userSpaceOnUse"><stop id="SvgjsStop13010" offset="0" stop-color="#e1ac8f" stop-opacity=".8"/><stop id="SvgjsStop13011" offset=".7" stop-color="#c27b55" stop-opacity="1"/></linearGradient></defs><g id="svga-group-wrapper"><g id="svga-group-backs-single"><path id="SvgjsPath8522" fill="#ecf0f1" stroke-width="none" d="M225 225H-25V-25h250V225z" opacity="1"/></g><g id="svga-group-humanwrap-move" transform="matrix(1,0,0,1,0,2)"><g id="svga-group-humanwrap" transform="matrix(0.8999997000000001,0,0,0.8999997000000001,9.986162770898432,11.369174732421868)"><g id="svga-group-hair-back-move" transform="matrix(1,0,0,1,0,0)"><g id="svga-group-hair-back" transform="matrix(1,0,0,1,0,0)"><path id="SvgjsPath11141" fill="#2c2219" stroke-width="none" d="M38.058 105.866c-4.527-10.708-3.86-15.133-2.654-23.504 -2.078 2.251-3.322 5.27-6.713 8.063 0.263-2.006 4.269-13.639 4.587-14.493 -3.844 3.504-5.969 4.251-7.809 4.972 1.242-1.853 2.066-4.007 3.9-7.933h11.529c0.231 4.281 1.066 9.569 2.312 14.214C42.551 87.622 40.819 90.365 38.058 105.866zM158.91 74.599c-0.047 3.839-1.342 11.034-2.908 15.869 0.805 0.541 1.743 1.173 1.539 1.009 5.951 4.778 6.908 5.603 7.514 13.386 4.324-9.33 0.656-21.307 0.439-30.263H158.91zM165.502 74.599h4.441c-0.582 1.969-1.936 4.788-3.422 6.633C165.963 79.067 165.656 75.986 165.502 74.599z" opacity="1"/><path id="SvgjsPath11142" fill="#0d0905" stroke-width="none" d="M34.21 74.635c-3.399 8.93-3.599 11.16-5.399 15.54 2.85-2.348 4.987-6.981 6.9-8.22 -0.33 3.02-1.9 9.12-0.15 15.8 0.66 2.53 1.5 4.98 2.511 7.37 0.26-3.56 0.79-13.93 4.079-17.08 -2.26 5.95-3.55 13.73-3.55 19.8 -6.41-11.17-4.939-17.3-3.43-25.09 -2.34 2.67-3 6.01-7.49 8.73 1.53-3.23 2.021-7.07 5.19-14.94 -2.63 2.63-4.4 3.68-7.91 4.72 1.318-2.181 2.478-4.946 3.497-7.194h1.082c-0.999 2.154-2.031 4.326-3.289 6.204C28.881 79.245 31.4 77.325 34.21 74.635zM156.002 90.468c0.216 0.149 1.676 1.152 2.332 1.728 2.736 2.402 6.264 4.594 6.018 15.28 4.543-7.848 3.954-19.464 2.539-25.79 2.017-2.169 3.379-4.842 4.074-7.094l-1.203-0.011c-0.582 1.969-1.655 4.34-3.141 6.185 -0.56-2.165-0.865-4.579-1.019-5.966l-0.108-0.2c0.217 8.956 3.115 19.588-0.243 29.516C164.645 96.333 162.841 94.915 156.002 90.468z" opacity="1"/></g></g><g id="svga-group-humanbody-single"><path id="SvgjsPath8542" fill="#f0c7b1" stroke="none" stroke-width="none" d="M195.417 199.778c-2.196-4.746-8.195-11.779-14.86-13.722 -8.239-2.403-26.837-5.308-33.733-6.923 -5.528-1.296-16.662-11.294-20.564-14.65 -0.7-0.6-1.273-1.839-1.287-2.76 -0.139-10.864 4.195-39.724 4.195-39.724H100 70.833c0 0 4.334 28.859 4.193 39.724 -0.011 0.921-0.587 2.16-1.285 2.76 -3.902 3.356-15.036 13.354-20.564 14.65 -6.897 1.615-25.495 4.619-33.733 7.022 -6.667 1.942-12.664 8.876-14.86 13.622 -3.708 8.008-4.584 22.5-4.584 35h100 100C200 222.278 199.123 207.786 195.417 199.778z" opacity="1"/><path id="SvgjsPath8543" fill="#ffe4d6" stroke="none" stroke-width="none" d="M159.156 184.058c24.342 3.542 34.586 8.708 37.794 50.721H200c0-12.5-0.877-26.992-4.583-35 -2.196-4.746-8.195-11.779-14.86-13.722 -8.239-2.403-26.837-5.308-33.733-6.923 -5.528-1.296-18.242-12.069-21.643-16.35 3.36 4.704 12.791 15.605 21.054 18.46C150.188 182.61 153.48 183.232 159.156 184.058zM53.766 181.244c8.263-2.854 17.693-13.756 21.054-18.46 -3.4 4.28-16.114 15.054-21.643 16.35 -6.896 1.615-25.494 4.619-33.733 7.022 -6.665 1.942-12.664 8.876-14.86 13.622 -3.706 8.008-4.583 22.5-4.583 35h3.05c3.188-41.744 13.475-47.183 37.794-50.721C46.52 183.232 49.813 182.61 53.766 181.244z" opacity="1"/><path id="SvgjsPath8544" fill="#e1ac8f" stroke="none" stroke-width="none" d="M95.646 197.62c0 0-5.074-1.609-7.083-2.379 -10.449-4.009-44.395-6.607-44.395-6.607s35.754 1.419 43.644 2.779c-0.458-4.767-3.017-20.004-3.017-20.004s5.149 16.815 6.409 21.057C91.878 194.734 95.646 197.62 95.646 197.62zM106.445 196.278c-0.089 0.073-0.191 0.168-0.302 0.268C106.256 196.461 106.358 196.372 106.445 196.278zM95.646 197.62c0 0 2.893 2.992 4.347 3.03 1.91 0.051 4.828-2.899 6.151-4.104 -1.265 0.957-4.159 1.391-5.31 1.436C99.504 198.033 95.646 197.62 95.646 197.62zM116.664 190.101c-1.545 0.248-4.386 0.789-4.386 0.789l2.287-14.89c-0.646 3.071-4.474 16.211-8.12 20.278 1.91-1.616 6.158-2.391 8.324-2.704 10.236-1.484 10.232-1.483 41.062-4.94C155.831 188.634 126.76 188.479 116.664 190.101z" opacity="1"/><path id="SvgjsPath8545" fill="none" stroke="#c27b55" stroke-width="1.5" d="M195.417 199.778c-2.196-4.746-8.195-11.779-14.86-13.722 -8.239-2.403-26.837-5.308-33.733-6.923 -5.528-1.296-16.662-11.294-20.564-14.65 -0.7-0.6-1.273-1.839-1.287-2.76 -0.139-10.864 4.195-39.724 4.195-39.724H100 70.833c0 0 4.334 28.859 4.193 39.724 -0.011 0.921-0.587 2.16-1.285 2.76 -3.902 3.356-15.036 13.354-20.564 14.65 -6.897 1.615-25.495 4.619-33.733 7.022 -6.667 1.942-12.664 8.876-14.86 13.622 -3.708 8.008-4.584 22.5-4.584 35h100 100C200 222.278 199.123 207.786 195.417 199.778z" opacity="1"/></g><g id="svga-group-chinshadow-single"><path id="SvgjsPath13008" fill="url(#SvgjsLinearGradient13009)" d="M124.272 162.248c-0.028-0.175-0.048-0.349-0.051-0.515 -0.094-7.38 1.819-22.721 3.098-32.078 -15.699-1.984-38.937-1.975-54.637 0.016 1.279 9.359 3.19 24.687 3.094 32.062 -0.001 0.119-0.014 0.243-0.03 0.367 3.825 3.586 7.667 6.528 11.055 8.151 5.312 2.546 21.035 2.427 26.401 0C116.613 168.71 120.456 165.812 124.272 162.248z" opacity="1"/></g><g id="svga-group-clothes-single"><path id="SvgjsPath11137" fill="#491212" stroke="none" stroke-width="none" d="M-3.682 236.192c-2.914-24.293 8.022-47.09 34.496-54.611 7.77-2.208 5.691-3.341 6.867-3.41 -0.039-0.211-0.045-0.2-0.045-0.63h-0.036c0.087-8.03 9.028-6.453 11.587-6.984 10.121-2.158 13.558-12.786 25.115-9.985 0.284 2.437 0.075 5.248-1.371 15.663 10.899 23.466 22.722 21.437 26.925 34.571 3.815-11.746 17.339-13.617 27.306-34.576 -0.655-5.884-2.083-11.033-1.482-15.935l0.057-0.042c7.744-2.583 11.127 0.874 14.21 3.854 9.397 9.083 14.382 3.325 19.085 7.457 1.871 1.659 2.547 3.997 2.547 6.518 21.412 3.11 45.974 9.898 41.089 57.481l0.096 0.104C181.094 235.667 57.546 241.095-3.682 236.192z" opacity="1"/><path id="SvgjsPath11138" fill="#3a0808" stroke="none" stroke-width="none" d="M100.268 209.685c4.229-10.638 16.946-13.132 26.543-32.755 0.098-0.108 0.347-0.591 0.656-1.237 -0.164-1.826-0.372-3.747-1.213-5.757 -0.522-3.35-0.939-6.489-0.587-9.535 1.974 0.578 3.842 1.262 5.12 2.66 1.882 2.052 0.455 5.609-1.346 9.042C126.063 186.844 117.594 197.493 100.268 209.685zM169.282 198.859c2.938 10.376 4.895 26.928 2.544 37.445 1.962-0.045 2.686-0.097 4.506-0.138C177.146 225.12 175.154 207.48 169.282 198.859zM137.604 200.735c-12.805 7.48-25.687 10.358-37.321 20.291 -11.64-9.904-24.647-11.637-37.453-19.108 -5.87-2.36-14.874-10.699-20.377-16.572 17.313 26.284 29.706 18.823 57.434 36.538 27.736-17.715 40.205-11.692 57.516-37.974C151.9 189.782 143.476 198.39 137.604 200.735zM99.81 210.936c-4.238-10.644-16.459-14.383-26.056-34.006 -0.093-0.108-0.343-0.591-0.652-1.237 0.156-1.826-0.262-3.841 0.586-5.857 0.521-3.358 0.748-6.092 0.393-9.132 -1.969 0.574-3.025 0.959-4.303 2.357 -1.88 2.052-0.453 5.609 1.347 9.042C74.502 186.844 82.479 198.74 99.81 210.936zM27.163 197.688c-4.305 9.396-4.34 27.432-3.528 38.479 1.821 0.041 2.548 0.093 4.506 0.138C25.791 225.787 26.379 208.26 27.163 197.688zM99.888 212.964c16.389-4.909 33.813-13.894 48.305-35.847 -13.084 17.643-32.525 28.063-47.926 34.455 -15.89-5.762-34.915-17.221-46.006-32.635C67.257 200.226 83.508 208.055 99.888 212.964z" opacity="1"/><path id="SvgjsPath11139" fill="#581f1f" stroke="none" stroke-width="none" d="M202.762 235.667c-0.115 0-0.256 0.001-0.374 0.001 -0.427-48.615-27.497-50.574-42.48-53.725 -2.345 0-3.563-6.505-5.288-8.24 -1.467-1.475-12.769-1.475-16.348-11.169 0.583 0.513 1.131 1.052 1.674 1.573 9.397 9.083 14.382 3.325 19.085 7.457 1.871 1.659 2.547 3.997 2.547 6.518 21.412 3.11 45.974 9.898 41.089 57.481L202.762 235.667zM-3.968 236.84c0.114 0 0.255 0.001 0.376 0.001 4.759-38.632 16.029-50.811 43.543-55.364 3.451-1.313 1.634-3.81 3.362-5.544 1.467-1.468 9.627-1.5 20.924-13.389 -0.582 0.513-3.075 1.042-3.615 1.563 -9.398 9.083-16.485 6.51-19.088 7.457 -3.209 1.188-3.707 4.028-3.707 6.546 -21.414 3.111-44.161 14.974-41.702 58.626L-3.968 236.84z" opacity="1"/><path id="SvgjsPath11140" fill="#1b0000" stroke="none" stroke-width="none" d="M161.69 177.978c0-9.858-9.265-7.895-13.529-8.812 -9.409-2.02-9.113-12.916-22.582-8.985 -0.574 4.657 0.516 8.738 1.473 15.997 -9.877 20.755-23.576 23.093-27.196 34.245 -3.957-12.38-16.045-11.134-26.81-34.171 1.498-10.838 1.648-13.354 1.36-15.774 -10.271-2.349-12.588 4.32-21.876 8.776 -5.637 2.642-7.229 0.263-12.067 2.633 -2.007 0.968-3.018 3.609-2.946 5.767 -0.013 0.01 0 0.01 0 0.01 0 0.139 0 0.267 0.023 0.396 -1.175 0.082 0.546 0.074-7.323 1.346 -25.363 4.1-36.61 25.534-34.005 56.906 11.89 0 1.011 4.382 183.147-0.077 8.456-0.214 22.799-0.447 23.402-0.447C208.321 189.265 184.836 181.568 161.69 177.978zM-3.624 236.057c2.579-36.004 8.018-50.026 41.046-57.329 17.978 29.839 39.98 25.499 62.232 42.189 -20.166-16.771-41.302-14.549-61.622-42.583 -0.228-2.354 1-4.943 3.535-5.959 1.796-0.702 3.72-0.498 5.6-0.488 7.087 0.054 12.546-5.502 17.793-9.578 2.499-1.67 6.22-1.752 9.2-1.292 0.231 3.874-1.262 9.721-1.762 13.845 -1.042-2.295-2.029-4.664-3.015-7.022 12.47 36.624 24.903 28.334 30.461 43.525 -1.177-0.327-21.014-7.468-36.822-23.188 -3.358-3.325-10.011-10.656-10.516-11.34 19.573 26.51 32.079 27.86 47.391 34.691 0 0.01 0.021 0.035 0.021 0.048 0.012 0.036 0.068 0.221 0.086 0.256 0.074-0.033 0.158-0.07 0.239-0.091 0.026-0.022 0.047-0.033 0.08-0.033 2.122-1.043 16.065-5.902 26.681-13.2 10.927-7.517 23.39-23.821 22.451-22.64 -18.253 18.573-21.075 22.785-49.212 35.67 -0.027 0-0.048-0.01-0.069-0.021 -0.022-0.131-0.064-0.257-0.107-0.387 0.011-0.062 0.032-0.121 0.054-0.178 4.948-13.579 19.476-8.33 31.51-45.554 -1.232 3.216-2.527 6.382-3.979 9.486 -0.457-5.455-2.042-9.756-1.865-14.247 2.084-0.693 7.742-1.022 9.308 0.542 6.529 5.586 7.059 9.677 17.696 9.677 3.411 0.02 7.871 0.45 8.375 6.708 -0.627 0.922-5.291 6.431-9.703 10.809 -15.438 15.368-29.249 15.664-50.619 32.007 0.521 0 1.605-1.131 2.029-1.418 16.712-11.864 28.719-11.677 44.085-24.249 7.082-5.785 13.897-15.044 14.63-16.222 0.022 0.013 0.059 0.013 0.079 0.013 28.198 4.853 42.321 15.462 40.764 57.069C76.043 234.783 58.884 238.145-3.624 236.057z" opacity="1"/></g><g id="svga-group-head" transform="matrix(1,0,0,1,0,0)"><g id="svga-group-ears-left-move" transform="matrix(1,0,0,1,0,0)"><g id="svga-group-ears-left" transform="matrix(1,0,0,1,0,0)"><path id="SvgjsPath13012" fill="#f0c7b1" stroke="#c27b55" stroke-width="1.5" d="M47.001 83.231c-1.376-2.453-5.638-8.48-9.98-7.003 -2.749 0.935-3.293 3.993-3.735 6.693 -0.588 3.591 0.471 10.694 1.389 13.26 0.881 2.467 3.533 7.23 5.264 9.045 2.13 2.225 4.775 9.324 5.194 10.061 0.66 1.162 1.536 2.911 4.122 2.692 2.853-0.244 4.584-1.85 5.856-2.121C58.253 115.192 50.582 89.616 47.001 83.231z" opacity="1"/><path id="SvgjsPath13013" fill="#c27b55" stroke-width="none" d="M44.197 98.104c-0.132-0.581 0.007-1.56 0.142-2.504 0.124-0.861 0.24-1.675 0.169-2.251 -0.267-2.154-1.773-6.249-2.757-8.467 -1.132-2.554-2.963-5.77-5.262-6.599 -0.95-0.343-1.575 0.067-1.938 0.484 -0.266 0.305-0.325 0.665-0.238 0.707 0.086 0.042 0.285-0.254 0.572-0.535 0.235-0.229 0.579-0.426 1.051-0.385 -0.19 1.073-1.167 6.883-0.744 10.845 0.333 3.115 1.593 5.442 1.79 5.791 0.029 0.367 0.077 0.726 0.148 1.075 0.929 4.547 4.971 9.717 6.378 11.409 0.259 0.313 0.531 0.497 0.598 0.423 0.066-0.076-0.094-0.387-0.353-0.7 -1.388-1.679-5.391-6.831-6.289-11.218 -0.952-4.656 2.318-11.556 3.048-13.017 0.371 0.685 0.687 1.344 0.93 1.893 0.19 0.431 0.402 0.936 0.619 1.479 -0.429 0.762-3.434 6.32-2.338 10.767 0.406 1.641 2.235 3.755 3.447 4.333 0.667 0.32 0.919 0.797 1.209 1.349 0.336 0.64 0.718 1.365 1.828 1.892 0.225 0.108 0.429 0.151 0.61 0.151 0.313 0 0.551-0.135 0.725-0.293 0.018 0.28 0.017 0.64 0.009 0.97 -0.012 0.431 0.042 0.783 0.137 0.791 0.094 0.008 0.196-0.332 0.207-0.76 0.016-0.526 0.013-1.177-0.072-1.488 -0.248-0.917-1.008-1.953-1.813-3.048C45.221 100.116 44.403 99.003 44.197 98.104zM36.95 94.073c-2.177-7.139 0.656-13.3 1.144-14.28 0.85 0.822 1.6 1.919 2.21 2.995C39.86 83.646 37.041 89.271 36.95 94.073zM46.341 104.515c-1.004-0.475-1.339-1.115-1.666-1.733 -0.293-0.559-0.598-1.136-1.369-1.505 -0.168-0.081-0.352-0.203-0.542-0.343 -2.486-6.263 0.272-9.001 0.963-9.562 0.211 0.766 0.369 1.468 0.439 2.031 0.063 0.517-0.052 1.339-0.167 2.134 -0.142 0.985-0.286 2.004-0.137 2.664 0.226 0.982 1.069 2.131 1.884 3.242 0.723 0.986 1.466 2.003 1.721 2.832C47.359 104.439 47.017 104.836 46.341 104.515z" opacity="1"/></g></g><g id="svga-group-ears-right-move" transform="matrix(1,0,0,1,0,0)"><g id="svga-group-ears-right" transform="matrix(1,0,0,1,0,0)"><path id="SvgjsPath13014" fill="#f0c7b1" stroke="#c27b55" stroke-width="1.5" d="M152.736 83.231c1.377-2.453 5.639-8.48 9.98-7.003 2.75 0.935 3.293 3.993 3.736 6.693 0.588 3.591-0.471 10.694-1.389 13.26 -0.881 2.467-3.533 7.23-5.266 9.045 -2.129 2.225-4.775 9.324-5.193 10.061 -0.658 1.162-1.535 2.911-4.121 2.692 -2.854-0.244-4.584-1.85-5.857-2.121C141.484 115.192 149.156 89.616 152.736 83.231z" opacity="1"/><path id="SvgjsPath13015" fill="#c27b55" stroke-width="none" d="M153.727 101.196c-0.805 1.096-1.564 2.131-1.813 3.048 -0.086 0.311-0.088 0.962-0.072 1.488 0.012 0.428 0.113 0.768 0.207 0.76s0.148-0.36 0.137-0.791c-0.008-0.331-0.008-0.69 0.01-0.97 0.174 0.158 0.412 0.293 0.725 0.293 0.182 0 0.385-0.043 0.609-0.151 1.109-0.526 1.492-1.252 1.828-1.892 0.289-0.552 0.543-1.028 1.209-1.349 1.213-0.578 3.041-2.692 3.447-4.333 1.096-4.447-1.908-10.005-2.338-10.767 0.217-0.544 0.43-1.049 0.619-1.479 0.244-0.549 0.559-1.208 0.93-1.893 0.73 1.46 4 8.361 3.049 13.017 -0.896 4.387-4.9 9.539-6.289 11.218 -0.258 0.313-0.418 0.624-0.352 0.7 0.066 0.074 0.338-0.109 0.598-0.423 1.406-1.692 5.449-6.862 6.379-11.409 0.07-0.35 0.117-0.708 0.146-1.075 0.197-0.349 1.459-2.676 1.791-5.791 0.422-3.961-0.555-9.772-0.744-10.845 0.473-0.042 0.814 0.156 1.051 0.385 0.287 0.281 0.486 0.577 0.572 0.535 0.086-0.042 0.027-0.402-0.238-0.707 -0.363-0.417-0.988-0.827-1.938-0.484 -2.299 0.83-4.131 4.045-5.262 6.599 -0.984 2.218-2.49 6.313-2.758 8.467 -0.072 0.576 0.045 1.39 0.17 2.251 0.135 0.945 0.273 1.924 0.141 2.504C155.336 99.003 154.518 100.116 153.727 101.196zM159.434 82.787c0.611-1.075 1.361-2.173 2.211-2.995 0.488 0.98 3.32 7.141 1.145 14.28C162.697 89.271 159.879 83.646 159.434 82.787zM152.27 104.275c0.254-0.829 0.998-1.846 1.721-2.832 0.816-1.111 1.658-2.26 1.885-3.242 0.148-0.66 0.004-1.679-0.137-2.664 -0.115-0.795-0.23-1.617-0.166-2.134 0.068-0.563 0.227-1.266 0.438-2.031 0.691 0.561 3.449 3.299 0.965 9.562 -0.191 0.14-0.375 0.263-0.543 0.343 -0.771 0.369-1.074 0.946-1.369 1.505 -0.326 0.618-0.662 1.258-1.666 1.733C152.721 104.836 152.379 104.439 152.27 104.275z" opacity="1"/></g></g><g id="svga-group-faceshape-wrap" transform="matrix(1,0,0,1,0,0)"><g id="svga-group-faceshape-single"><path id="SvgjsPath13005" fill="#f0c7b1" stroke="none" stroke-width="none" d="M144.004 126.997c-5.003 10.225-20.047 28.437-30.801 33.266 -5.366 2.412-21.089 2.53-26.401 0 -10.646-5.067-25.765-23.057-30.801-33.266C50.388 115.623 41.15 78.444 41.138 78.39c-1.3-4.988-1.996-10.225-2.004-15.623 -0.052-34 27.154-61.598 60.772-61.65 33.621-0.053 60.913 27.457 60.963 61.456 0.009 5.4-0.669 10.638-1.952 15.631C158.901 78.256 149.6 115.559 144.004 126.997z" opacity="1"/><path id="SvgjsPath13006" fill="#e8b9a0" stroke="none" stroke-width="none" d="M110.152 1.982c26.994 6.338 47.097 30.814 47.052 60.039 -0.009 5.399-0.704 10.635-2.004 15.624 -0.012 0.054-8.61 37.245-14.13 48.608 -4.859 10.004-19.7 27.468-30.067 32.521 -2.163 1.055-8.694 1.555-11.001 1.555 -2.307 0-8.837-0.5-11-1.555 -10.367-5.053-25.209-22.517-30.067-32.521 -5.521-11.363-14.119-48.554-14.13-48.608 -1.3-4.988-1.996-10.225-2.004-15.624C42.756 32.796 62.857 8.32 89.853 1.982 61.03 6.877 39.087 32.232 39.134 62.767c0.008 5.398 0.704 10.635 2.004 15.623 0.012 0.054 9.232 37.241 14.863 48.607 5.052 10.199 20.207 28.085 30.801 33.266 2.658 1.301 9.305 1.855 12.954 1.853 3.646 0.003 10.791-0.552 13.447-1.853 10.594-5.182 25.748-23.066 30.801-33.266 5.631-11.366 14.852-48.553 14.862-48.607 1.3-4.988 1.996-10.225 2.004-15.623C160.918 32.232 138.975 6.877 110.152 1.982z" opacity="1"/><path id="SvgjsPath13007" fill="none" stroke="#c27b55" stroke-width="1.5" d="M144.004 126.997c-5.003 10.225-20.047 28.437-30.801 33.266 -5.366 2.412-21.089 2.53-26.401 0 -10.646-5.067-25.765-23.057-30.801-33.266C50.388 115.623 41.15 78.444 41.138 78.39c-1.3-4.988-1.996-10.225-2.004-15.623 -0.052-34 27.154-61.598 60.772-61.65 33.621-0.053 60.913 27.457 60.963 61.456 0.009 5.4-0.669 10.638-1.952 15.631C158.901 78.256 149.6 115.559 144.004 126.997z" opacity="1"/></g></g><g id="svga-group-mouth-single-move" transform="matrix(1,0,0,1,0,0)"><g id="svga-group-mouth-single" transform="matrix(1,0,0,1,0,0)"><path id="SvgjsPath9121" fill="url(#SvgjsLinearGradient9122)" d="M99.825 142.068c-3.24 0-4.753-2.802-4.753-2.802s4.797 0.781 9.279-0.064C104.352 139.202 102.675 142.068 99.825 142.068z" opacity="1"/><path id="SvgjsPath9125" fill="#c27b55" stroke="none" stroke-width="none" d="M95.211 139.349c-0.132-0.039-0.23-0.149-0.208-0.285 0.021-0.137 0.151-0.224 0.286-0.209 3.612 0.857 5.963 0.661 8.766-0.043 0.145-0.035 0.27 0.062 0.297 0.195s-0.063 0.256-0.193 0.296C101.098 140.207 98.142 140.241 95.211 139.349zM85.447 133.958c0.313-0.144 0.582-0.086 1.073-0.115 1.419-0.249 3.128-0.323 4.54-0.611 1.348-0.274 2.774-0.662 4.158-0.597 1.488 0.071 2.879 0.669 4.353 0.829 1.401 0.151 2.708-0.229 4.053-0.557 1.542-0.376 3.01-0.287 4.56 0.006 1.938 0.363 3.774 0.857 5.689 1.038 0.582 0.055 0.365 0.413 0.032 0.454 -1.713 0.205-3.431-0.068-5.194-0.249 -1.425-0.146-2.868-0.329-4.274 0.021 -1.518 0.379-3.437 0.822-4.605 0.808 -1.3-0.017-2.521-0.538-3.784-0.807 -1.551-0.327-3.091-0.02-4.647 0.143 -1.938 0.201-3.672 0.34-5.579 0.047C85.312 134.29 85.306 134.023 85.447 133.958z" opacity="1"/></g></g><g id="svga-group-eyes-left-move" transform="matrix(1,0,0,1,1,0)"><g id="svga-group-eyes-left" transform="matrix(0.8999997000000001,0,0,0.8999997000000001,7.461155195898428,8.426392466601555)"><g id="svga-group-eyesback-left"><path id="SvgjsPath12947" fill="url(#SvgjsRadialGradient12948)" d="M62.381 89.681c2.428 2.331 6.769 2.584 13.004 2.584 6.229 0 9.858-1.361 11.353-4.016 1.805-3.206-3.878-9.816-12.912-9.816C68.021 78.433 55.521 83.098 62.381 89.681z" opacity="1"/></g><g id="svga-group-eyesiriswrapper-left" transform="matrix(1,0,0,1,0.5,1.5)"><g id="svga-group-eyesiriscontrol-left" transform="matrix(1,0,0,1,0,0)"><g id="svga-group-eyesiris-left" transform="matrix(0.7999993000000002,0,0,0.7999993000000002,14.800442426367177,16.800058799999988)"><path id="SvgjsPath12187" fill="#2b3b56" stroke="#081428" stroke-width=".5" d="M81.235 86.526c-1.086 5.079-5.203 8.071-9.202 6.676 -3.996-1.394-6.356-6.647-5.269-11.727 1.085-5.083 5.211-8.075 9.208-6.679C79.965 76.189 82.322 81.442 81.235 86.526z" opacity="1"/><path id="SvgjsPath12188" fill="#3d4c65" stroke-width="none" d="M81.056 84.591c-0.553 5.639-3.844 8.577-7.441 8.271 -3.323-0.285-6.293-3.404-6.57-8.791 1.15-0.42 2.676 0.263 4.014 0.002 -0.003 0.062-0.02 0.117-0.021 0.18 -0.109 2.068 1.195 3.87 2.908 4.017 1.72 0.146 3.197-1.419 3.303-3.486 0.012-0.269-0.001-0.534-0.033-0.789C78.409 84.225 79.869 83.999 81.056 84.591z" opacity="1"/><path id="SvgjsPath12189" fill="#000" stroke-width="none" d="M75.084 80.814c-1.65-0.6-3.334 0.599-3.76 2.69 -0.426 2.081 0.567 4.26 2.217 4.861 1.65 0.603 3.333-0.598 3.764-2.68C77.733 83.595 76.737 81.417 75.084 80.814z" opacity=".9"/><path id="SvgjsPath12190" fill="none" stroke="#081428" stroke-width=".75" d="M75.084 80.814c-1.65-0.6-3.334 0.599-3.76 2.69 -0.426 2.081 0.567 4.26 2.217 4.861 1.65 0.603 3.333-0.598 3.764-2.68C77.733 83.595 76.737 81.417 75.084 80.814z" opacity="1"/><path id="SvgjsPath12191" fill="#fff" stroke-width="none" d="M70.451 89.818c-0.157 0.695-1.008 0.399-0.854-0.298 0.153-0.673 0.562-1.086 0.818-1.679 0.276-0.633 1.039-0.067 0.762 0.567C70.965 88.897 70.572 89.273 70.451 89.818L70.451 89.818zM71.807 88.71c-0.234 0.348-0.542 1.638-0.675 2.06 -0.211 0.672 0.642 0.961 0.851 0.298 0.073-0.229 0.32-1.373 0.45-1.563C72.799 88.958 72.18 88.16 71.807 88.71L71.807 88.71zM73.646 92.031c0.459-0.676 0.413-1.45 0.403-2.292 -0.007-0.723-0.888-0.724-0.882 0 0.007 0.465 0.115 1.114-0.146 1.498C72.65 91.781 73.271 92.579 73.646 92.031L73.646 92.031zM74.545 89.599c0.009 0.697 0.074 1.377 0.236 2.044 0.169 0.69 1.021 0.396 0.854-0.298 -0.142-0.576-0.2-1.144-0.205-1.746C75.421 88.875 74.54 88.875 74.545 89.599L74.545 89.599z" opacity=".5"/><path id="SvgjsPath12192" fill="#fff" stroke-width="none" d="M79.246 82.364c-0.868 0.663-2.174 0.066-2.916-1.334 -0.738-1.402-0.63-3.077 0.242-3.738 0.868-0.667 2.175-0.068 2.91 1.333C80.225 80.027 80.118 81.7 79.246 82.364z" opacity=".8"/></g></g></g><g id="svga-group-eyesfront-left"><path id="SvgjsPath12972" fill="#f0c7b1" stroke="none" stroke-width="none" d="M54.8 79.995c0 13.807 8.507 30.004 19 30.004s19-11.193 19-25 -8.507-25-19-25S54.8 66.188 54.8 79.995zM62.381 89.681c-6.859-6.583 5.641-11.248 11.444-11.248 9.034 0 14.717 6.61 12.912 9.816 -1.494 2.654-5.123 4.016-11.353 4.016C69.149 92.265 64.809 92.011 62.381 89.681z" opacity="1"/><path id="SvgjsPath12973" fill="url(#SvgjsRadialGradient12974)" d="M58.697 84.55c-0.075 7.456 8.647 13.464 18.038 13.428 9.389-0.043 16.987-6.116 16.962-13.573 -0.023-7.456-7.647-13.465-17.04-13.426C67.265 71.021 58.799 74.35 58.697 84.55zM73.825 78.633c9.034 0 14.718 6.542 12.912 9.716 -1.494 2.627-5.123 3.975-11.353 3.975 -6.235 0-10.576-0.251-13.005-2.558C55.521 83.25 68.021 78.633 73.825 78.633z" opacity="1"/><path id="SvgjsPath12978" fill="url(#SvgjsRadialGradient12979)" d="M62.381 89.681c2.428 2.331 6.769 2.584 13.004 2.584 6.229 0 9.858-1.361 11.353-4.016 1.805-3.206-3.878-9.816-12.912-9.816C68.021 78.433 55.521 83.098 62.381 89.681z" opacity="1"/><path id="SvgjsPath12982" fill="#c27b55" stroke="none" stroke-width="none" d="M89.188 82.843c0.345-0.344-4.745-7.529-13.379-7.832 -9.13-0.319-16.789 6.017-16.789 6.017s8.302-6.009 16.569-5.565C85.2 75.98 88.916 83.114 89.188 82.843z" opacity="1"/><path id="SvgjsPath12983" fill="#000" stroke="none" stroke-width="none" d="M86.479 88.878l0.335-2.293c-3.319-8.705-15.518-11.145-25.718-2.11 -0.359 0.462-0.768 0.821-0.468 1.832l2.711 4.484c-2.466-2.355-3.742-4.143-4.917-5.817l-0.952-0.498c12.896-12.359 27.1-9.455 31.717 1.537l-1.12-0.167L86.479 88.878zM82.57 91.345c-4.308 0.56-7.537 1.078-13.275 0.76C72.953 92.963 78.842 92.698 82.57 91.345z" opacity="1"/></g></g></g><g id="svga-group-eyes-right-move" transform="matrix(1,0,0,1,-1,0)"><g id="svga-group-eyes-right" transform="matrix(0.8999997000000001,0,0,0.8999997000000001,12.487146836328122,8.426392466601555)"><g id="svga-group-eyesback-right"><path id="SvgjsPath12955" fill="url(#SvgjsRadialGradient12956)" d="M137.22 89.681c-2.428 2.331-6.769 2.584-13.004 2.584 -6.229 0-9.858-1.361-11.353-4.016 -1.805-3.206 3.878-9.816 12.912-9.816C131.579 78.433 144.079 83.098 137.22 89.681z" opacity="1"/></g><g id="svga-group-eyesiriswrapper-right" transform="matrix(1,0,0,1,-0.5,1.5)"><g id="svga-group-eyesiriscontrol-right" transform="matrix(1,0,0,1,0,0)"><g id="svga-group-eyesiris-right" transform="matrix(0.7999993000000002,0,0,0.7999993000000002,25.200088199999982,16.800058799999988)"><path id="SvgjsPath12193" fill="#2b3b56" stroke="#081428" stroke-width=".5" d="M133.235 86.526c-1.086 5.079-5.202 8.071-9.201 6.676 -3.997-1.394-6.356-6.647-5.27-11.727 1.086-5.083 5.212-8.075 9.208-6.679C131.965 76.189 134.322 81.442 133.235 86.526z" opacity="1"/><path id="SvgjsPath12194" fill="#3d4c65" stroke-width="none" d="M133.056 84.591c-0.553 5.639-3.844 8.577-7.44 8.271 -3.322-0.285-6.294-3.404-6.57-8.791 1.151-0.42 2.677 0.263 4.014 0.002 -0.003 0.062-0.019 0.117-0.021 0.18 -0.108 2.068 1.195 3.87 2.909 4.017 1.72 0.146 3.197-1.419 3.302-3.486 0.013-0.269-0.001-0.534-0.032-0.789C130.409 84.225 131.869 83.999 133.056 84.591z" opacity="1"/><path id="SvgjsPath12195" fill="#000" stroke-width="none" d="M127.084 80.814c-1.65-0.6-3.335 0.599-3.76 2.69 -0.427 2.081 0.567 4.26 2.217 4.861 1.65 0.603 3.334-0.598 3.765-2.68C129.733 83.595 128.736 81.417 127.084 80.814z" opacity=".9"/><path id="SvgjsPath12196" fill="none" stroke="#081428" stroke-width=".75" d="M127.084 80.814c-1.65-0.6-3.335 0.599-3.76 2.69 -0.427 2.081 0.567 4.26 2.217 4.861 1.65 0.603 3.334-0.598 3.765-2.68C129.733 83.595 128.736 81.417 127.084 80.814z" opacity="1"/><path id="SvgjsPath12197" fill="#fff" stroke-width="none" d="M122.451 89.818c-0.157 0.695-1.008 0.399-0.854-0.298 0.153-0.673 0.562-1.086 0.817-1.679 0.276-0.633 1.039-0.067 0.762 0.567C122.965 88.897 122.571 89.273 122.451 89.818L122.451 89.818zM123.807 88.71c-0.234 0.348-0.542 1.638-0.675 2.06 -0.211 0.672 0.642 0.961 0.851 0.298 0.072-0.229 0.32-1.373 0.449-1.563C124.8 88.958 124.18 88.16 123.807 88.71L123.807 88.71zM125.646 92.031c0.46-0.676 0.414-1.45 0.403-2.292 -0.007-0.723-0.889-0.724-0.882 0 0.008 0.465 0.115 1.114-0.146 1.498C124.65 91.781 125.271 92.579 125.646 92.031L125.646 92.031zM126.545 89.599c0.009 0.697 0.074 1.377 0.236 2.044 0.17 0.69 1.021 0.396 0.854-0.298 -0.143-0.576-0.201-1.144-0.205-1.746C127.422 88.875 126.54 88.875 126.545 89.599L126.545 89.599z" opacity=".5"/><path id="SvgjsPath12198" fill="#fff" stroke-width="none" d="M131.246 82.364c-0.868 0.663-2.174 0.066-2.916-1.334 -0.738-1.402-0.63-3.077 0.243-3.738 0.867-0.667 2.174-0.068 2.909 1.333C132.225 80.027 132.118 81.7 131.246 82.364z" opacity=".8"/></g></g></g><g id="svga-group-eyesfront-right"><path id="SvgjsPath12993" fill="#f0c7b1" stroke="none" stroke-width="none" d="M125.801 59.999c-10.493 0-19 11.193-19 25s8.507 25 19 25 19-15.513 19-29.319S136.294 59.999 125.801 59.999zM124.216 92.265c-6.229 0-9.858-1.361-11.353-4.016 -1.805-3.206 3.878-9.816 12.912-9.816 5.804 0 18.304 4.665 11.444 11.248C134.792 92.011 130.451 92.265 124.216 92.265z" opacity="1"/><path id="SvgjsPath12994" fill="url(#SvgjsRadialGradient12995)" d="M122.943 70.979c-9.393-0.039-17.017 5.971-17.04 13.426 -0.025 7.458 7.573 13.53 16.962 13.573 9.391 0.037 18.113-5.972 18.038-13.428C140.802 74.35 132.336 71.021 122.943 70.979zM137.221 89.766c-2.429 2.307-6.77 2.558-13.005 2.558 -6.229 0-9.858-1.348-11.353-3.975 -1.806-3.173 3.878-9.716 12.912-9.716C131.579 78.633 144.08 83.25 137.221 89.766z" opacity="1"/><path id="SvgjsPath12999" fill="url(#SvgjsRadialGradient13000)" d="M137.22 89.681c-2.428 2.331-6.769 2.584-13.004 2.584 -6.229 0-9.858-1.361-11.353-4.016 -1.805-3.206 3.878-9.816 12.912-9.816C131.579 78.433 144.079 83.098 137.22 89.681z" opacity="1"/><path id="SvgjsPath13003" fill="#c27b55" stroke="none" stroke-width="none" d="M110.413 82.843c-0.345-0.344 4.745-7.529 13.379-7.832 9.13-0.319 16.789 6.017 16.789 6.017s-8.302-6.009-16.569-5.565C114.4 75.98 110.685 83.114 110.413 82.843z" opacity="1"/><path id="SvgjsPath13004" fill="#000" stroke="none" stroke-width="none" d="M111.533 85.845l-1.12 0.167c4.617-10.991 18.82-13.896 31.717-1.537l-0.952 0.498c-1.175 1.674-2.451 3.462-4.917 5.817l2.711-4.484c0.3-1.01-0.108-1.37-0.468-1.832 -10.2-9.035-22.398-6.595-25.718 2.11l0.335 2.293L111.533 85.845zM130.306 92.104c-5.738 0.318-8.968-0.2-13.275-0.76C120.759 92.698 126.647 92.963 130.306 92.104z" opacity="1"/></g></g></g><g id="svga-group-facehighlight-single"><path id="SvgjsPath8534" fill="url(#SvgjsRadialGradient8535)" d="M141 113.974c0.035 22.622-18.292 40.994-40.938 41.025 -22.642 0.037-41.028-18.273-41.063-40.9 -0.035-22.62 18.292-41.064 40.937-41.1C122.579 72.964 140.967 91.349 141 113.974z" opacity="1"/><path id="SvgjsPath8538" fill="url(#SvgjsRadialGradient8539)" d="M137.5 53.999c0 20.711-16.789 37.5-37.499 37.5 -20.711 0-37.501-16.789-37.501-37.5s16.79-37.5 37.501-37.5C120.711 16.499 137.5 33.288 137.5 53.999z" opacity="1"/></g><g id="svga-group-eyebrows-left-move" transform="matrix(1,0,0,1,1,-1)"><g id="svga-group-eyebrows-left-rotate" transform="matrix(0.9914448857307434,0.13052619993686676,-0.13052619993686676,0.9914448857307434,9.9188814163208,-8.73218059539795)"><g id="svga-group-eyebrows-left" transform="matrix(0.8999997000000001,0,0,0.8999997000000001,7.319943834765624,7.017208551562497)"><path id="SvgjsPath12131" fill="#4e4341" stroke-width="none" d="M52.488 73.87c7.475-9.383 20.338-7.822 30.878-6.314 2.681 0.384 5.441 0.672 8.07 1.336 1.884 0.475 3.365 2.622 1.851 4.356 -0.708 0.825-2.253 0.672-3.207 0.652C77.459 73.645 63.193 66.387 52.488 73.87z" opacity="1"/></g></g></g><g id="svga-group-eyebrows-right-move" transform="matrix(1,0,0,1,-1,-1)"><g id="svga-group-eyebrows-right-rotate" transform="matrix(0.9914448857307434,-0.13052618503570557,0.13052618503570557,0.9914448857307434,-8.207858085632324,17.373056411743164)"><g id="svga-group-eyebrows-right" transform="matrix(0.8999997000000001,0,0,0.8999997000000001,12.683827113867181,7.032833598437492)"><path id="SvgjsPath12132" fill="#4e4341" stroke-width="none" d="M147.577 73.49c-2.164-1.448-4.454-2.47-7.043-2.889 -9.497-1.54-27.586 4.79-32.341 3.45 -2.912-0.822-2.323-3.739-1.035-4.458 0.775-0.433 0.99-0.422 7.909-1.612C126.824 65.961 139.988 64.355 147.577 73.49z" opacity="1"/></g></g></g><g id="svga-group-nose-single-move" transform="matrix(1,0,0,1,0,0)"><g id="svga-group-nose-single" transform="matrix(1,0,0,1,0,0)"><path id="SvgjsPath9164" fill="#e1ac8f" stroke="none" stroke-width="none" d="M91.115 115.499c-0.878 2.064 5.934 4.292 8.519 4.429 2.8 0.147 10.646-2.9 9.316-4.992 -1.399-2.195-6.643-0.286-8.906-0.286C97.792 114.649 92.291 112.745 91.115 115.499z" opacity="1"/><path id="SvgjsPath9165" fill="#c27b55" stroke="none" stroke-width="none" d="M101.857 117.058c-0.23-0.759 1.876-1.584 2.657-1.694 1.101-0.16 3.36 0.802 3.158 1.592 -0.184 0.698-2.148-0.533-2.86-0.429C104.078 116.634 102.075 117.769 101.857 117.058zM94.974 116.811c0.968 0 2.404 0.623 2.668 0.074 0.315-0.655-2.139-1.461-2.86-1.372 -0.596 0.07-2.733 1.315-2.439 1.839C92.617 117.833 93.698 116.811 94.974 116.811z" opacity="1"/><path id="SvgjsPath9166" fill="#fff5ef" stroke="none" stroke-width="none" d="M100.089 111.999c0.607 0 1.742-0.74 1.792-2.23 0.201-6.008-0.956-23.833-1.792-23.77 -0.78 0.059-2.267 17.637-1.948 23.77C98.22 111.271 99.404 111.999 100.089 111.999z" opacity=".2"/></g></g><g id="svga-group-beardwrap" transform="matrix(1,0,0,1,0,0)"><g id="svga-group-beard-single-move" transform="matrix(1,0,0,1,0,0)"><g id="svga-group-beard-single" transform="matrix(1,0,0,1,0,0)"><path id="SvgjsPath11024" fill="#6b4e40" stroke="none" stroke-width="none" d="M100,18.13L100,18.13L100,18.13L100,18.13z" opacity="1"/></g></g></g><g id="svga-group-mustache-single-move" transform="matrix(1,0,0,1,0,0)"><g id="svga-group-mustache-single" transform="matrix(1,0,0,1,0,0)"><path id="SvgjsPath9767" fill="#2a232b" stroke-width="none" d="M100,18.13L100,18.13L100,18.13L100,18.13z" opacity="1"/></g></g><g id="svga-group-hair-front" transform="matrix(1,0,0,1,0,0)"><path id="SvgjsPath11144" fill="#3b3128" stroke-width="none" d="M57.802 28.734c9.237-8.79 44.55-0.761 55.197 0.239 10.142 0.782 23.526-30.339 43.604 49.479 -0.045 3.839-1.289 10.633-2.796 15.468 -0.145-0.101-0.286-0.208-0.431-0.306 0 0 0.518 3.257-6.059 14.39 0.349-8.073-1.212-13.893-2.492-21.414 -15.709-19.987-30.389-24.674-41.56-28.155 7.5 8.755 14.919 16.79 18.165 25.564 -13.646-9.576-32.408-28.884-32.408-28.884S90.426 59.819 116.709 84C105.766 81.32 85.363 70.32 71.072 49.048c-2.746 4.5 12.4 30.794 12.827 31.801 -7.663-6.086-18.079-14.636-20.755-24.62 0 0-1.571 4.043-2.662 8.635 -2.878 12.162-2.904 27.281-3.429 31.125 -1.665-8.721-1.925-18.482-1.922-18.355 -3.905 17.893-0.419 30.394-0.352 34.724 -5.198-10.435-10.604-22.897-12.177-34.534C42.604 77.824 54.221 27.134 57.802 28.734z" opacity=".1"/><path id="SvgjsPath11145" fill="#3b3128" stroke-width="none" d="M29.382 67.866c0.08-5.39 1.12-13.92 2.921-18.78 -3.28 3.39-7.41 7.39-10.78 9.5 4.46-3.86 5.841-7.16 15.921-28.3 6.189-12.98 10.287-26.75 22.378-28.37 4.079-0.56 8.05 0.99 11.779 2.59 9.61-8.79 21.59-12.331 32.671-11.331 33.879 2.51 42.916 24.391 61.036 28.771 -2.84 0.83-7.616-0.468-10.336-1.748 3.75 5.06 2.422 4.531 10.692 12.801 3.369 3.34 6.482 7.444 10.543 9.854 -5.449-0.681-8.313-4.834-16.282-9.104 1.149 1.84 5.249 8.094 11.929 14.494 2.87 2.74 7.6 6.584 10.898 8.914 -2.409-0.96-9.488-3.726-15.607-9.152 3.169 4.531 12.262 12.94 8.145 29.881 -0.832-7.406 0.002-16.415-7.049-20.895 0.784 3.301 3.814 10.222 1.604 17.708H158.91c-0.047 3.839-1.342 10.934-2.908 15.769 -0.151-0.101-0.297-0.208-0.449-0.306 0 0-0.503 3.257-7.344 14.39 0.363-8.073-0.222-13.893-1.553-21.414 -16.346-19.987-31.619-24.674-43.241-28.155 7.804 8.755 13.813 18.837 17.192 27.612 -11.046-11.66-33.834-29.767-33.834-29.767s0.364 4.866 27.712 29.046c-9.449-5.795-29.698-15.006-44.566-36.278 -2.858 4.5 10.819 30.794 11.264 31.801 -7.974-6.086-14.646-16.636-17.435-26.62 0 0-3.716 6.043-4.847 10.635 -2.995 12.162-1.984 22.281-2.528 26.125 -1.732-8.721-3.042-13.482-3.039-13.355 -4.066 17.893 0.604 32.394 0.672 36.724C48.6 100.471 41.934 85.908 40.297 74.271H28.7C29.369 69.944 28.873 69.932 29.382 67.866z" opacity="1"/><path id="SvgjsPath11146" fill="#1c150e" stroke-width="none" d="M22.764 37.286c3.811-0.17 5.876 0.099 10.356-0.261 0.67-1.53 2.738-5.55 3.438-7.07C33.059 33.055 25.794 36.976 22.764 37.286z" opacity="1"/><path id="SvgjsPath11147" fill="#2c2219" stroke-width="none" d="M120 6c16.027-2.29 30.9 14.922 44.42 16.002 -2.873 0.59-7.386-1.022-9.989-2.247 3.75 5.06 2.74 5.09 11.011 13.36 3.369 3.34 5.77 6.92 9.83 9.33 -4.352-0.722-7.869-4.955-15.656-9.179C150.467 19.744 136.495 7.833 120 6zM63.748 50.777c0 0-3.716 6.043-4.847 10.635 -2.995 12.162-1.984 22.281-2.528 26.125 -1.732-8.721-3.042-13.482-3.039-13.355 -0.098 0.428-0.185 0.851-0.272 1.275 -3.569 17.303 0.878 31.222 0.944 35.449C48.6 100.471 41.934 86.008 40.297 74.372H28.7c0.669-4.328 0.173-4.44 0.682-6.505 0.08-5.39 1.12-13.92 2.921-18.78 -3.28 3.39-7.41 7.39-10.78 9.5 4.384-3.794 5.799-7.06 15.417-27.242C39.903 26.734 43.257 22.367 47 18c-7 9-11 20-12 31 2-6 8.079-10.064 12.204-14.833C42.858 40.958 39.721 47.555 38 57c1.263-2.166 3.05-3.376 4.352-5 -2.063 6.007-1.46 9.452-0.544 14.033C42.71 58.906 44.209 47.331 48 41c0 11-3.411 21.569 1.005 33.277 -0.041-8.667 3.242-16.555 5.526-22.481 -0.454 2.152-0.105 7.455 0.016 9.648 1.278-6.668 2.146-13.21 6.033-18.583 -1.734-9.968-4.468-20.679-0.784-23.305 -5.987 10.398 12.487 19.472 11.935 19.03 10.333 5.74 16.882 6.44 22.24 7.796 -3.495-2.813-5.311-6.313-8.84-9.096 10 3.45 23.963 14.121 31.086 18.481 1.902 2.784 2.074 3.492 2.641 4.833 -4.081-1.928-9.18-3.742-15.442-5.618 14.409 16.165 11.53 12.905 17.192 27.612 -9.815-10.361-9.8-10.658-32.423-28.645 2.733 3.566 9.971 13.486 26.301 27.924 -3.69-2.263-31.135-17.061-44.566-36.278 -0.641 5.223 0.076 8.654 11.264 31.801C79.136 76.769 71.168 69.641 63.748 50.777zM118.857 60.601c8.503 4.017 17.955 10.501 27.799 22.537 1.331 7.521 1.916 13.341 1.553 21.414 1.527-2.485 2.724-4.558 3.684-6.309 3.342-6.095 3.66-8.081 3.66-8.081 0.152 0.098 0.298 0.205 0.449 0.306 1.566-4.835 2.861-11.629 2.908-15.468h10.733c2.212-7.485-1.049-15.243-1.833-18.544 7.051 4.48 7.24 12.74 7.57 20.16 3.37-16.67-5.95-24.64-8.9-29.41 6.17 4.79 13.061 8.53 15.471 9.49 -3.301-2.33-7.41-5.47-10.28-8.21 -3.639-3.486-6.618-7.18-8.769-10.124C158.216 35.96 154.726 32.363 150 30c7.927 5.284 10.424 13.671 12.956 21.745 -1.214-1.753-3.177-2.936-4.23-4.512 1.251 3.286 3.089 6.694 2.274 10.767 -5-7-7-17-15-23 8.079 8.079 8.639 29.358 8.605 33.148C146.453 29.071 111.941-7.698 77 6c35-11 65 26 69 58 -7-8-9-18-19-23 5 5 8 13 11 19 -11-13-20-26-35-35 7 8 16 15 21 25 3 3 4 7 6 10 -7-7-15.796-14.161-24.869-16.816C115.319 51.958 118.141 58.904 118.857 60.601z" opacity="1"/><path id="SvgjsPath11148" fill="#1c150e" stroke-width="none" d="M117.766 5.829c8.292-0.029 31.523 6.494 43.094 29.199C148.464 17.819 135.714 9.892 117.766 5.829zM137.845 38.708C124.893 11.58 100.687 3.229 87.714 4.067 97.087 3.465 123.506 13.067 137.845 38.708zM73.181 14.559C72.572 9.286 65.426 3.87 57.615 6.905c-0.671 0.261-1.261 0.737-1.929 0.979C64.214 4.803 72.008 9.383 73.181 14.559zM70.78 17.966c-2.271-3.246-5.344-6.239-9.309-7.198C49.418 7.854 40.4 25.7 38.314 33.687c0.263-1.003 10.596-25.068 23.497-22.066C65.532 12.47 68.414 15.113 70.78 17.966zM69.574 20.271c-1.129 13.933 30.875 23.767 37.895 29.705C94.975 39.407 69.766 32.882 69.574 20.271zM124.793 51.149c-2.651-4.433-13.662-22.247-31.359-32.846 -10.977-6.574-15.238-2.604-17.326-1.636C90.316 10.093 116.346 39.44 124.793 51.149z" opacity="1"/><path id="SvgjsPath11149" fill="#4a423a" stroke-width="none" d="M154.605 30.218c0 0-12.998-14.019-32.379-20.881C136.712 12.957 145.32 20.083 154.605 30.218zM122.58 10.545c8.373 2.862 22.848 18.934 24.674 22.069C142.53 24.503 131.43 12.888 122.58 10.545zM96.203 7.936c16.427 3.769 31.383 22.259 31.383 22.259C120.613 19.403 109.143 9.004 96.203 7.936zM82.027 17.556c7.952 2.046 25.885 16.866 26.805 18.162C106.244 32.075 90.721 18.78 82.027 17.556zM76.314 19.112c8.738 1.131 15.985 8.446 17.066 9.925C88.838 22.824 84.179 19.303 76.314 19.112zM75.442 21.879c8.537 8.845 21.252 11.429 25.864 17.449C94.935 31.012 83.235 29.092 75.442 21.879zM85.865 42.83c-11.211-6.084-18.966-11.368-20.703-12.851 -1.836-1.565-6.52-5.33-3.095-9.151 -2.542 1.67-2.01 5.382 1.396 8.925C67.167 33.607 84.863 42.83 85.865 42.83 84.895 42.303 85.864 42.83 85.865 42.83zM93.761 46.37c-8.66-2.08-17.527-5.034-24.96-10.046 -5.172-3.487-12.865-11.624-8.86-16.402 1.146-1.371 3.559-2.013 5.297-1.993 -1.732-0.021-3.829 0.4-5.168 1.556 -3.872 3.344 0.268 11.895 6.736 16.54C74.633 41.646 84.462 44.373 93.761 46.37zM94.196 11.99c1.66 0.332 3.306 0.552 4.901 1.161 13.539 5.162 26.441 21.077 26.441 21.077C118.564 23.811 106.82 13.181 94.196 11.99zM95.438 16.421c15.557 5.988 32.561 25.947 33.561 26.663C121.432 31.611 108.664 19.74 95.438 16.421zM56.114 18.851c-10.322-2.044-15.184 15.403-15.779 16.404C43.838 28.076 49.19 18.188 56.114 18.851zM56.22 30.75c-8.761 8.218-6.864 18.622-6.717 23.478C49.338 45.406 51.606 36.237 56.22 30.75z" opacity="1"/><path id="SvgjsPath11150" fill="#0d0905" stroke-width="none" d="M31.491 50.465c-3.98 10.99-2.87 22.38-2.931 23.38 -0.079 0.171-0.238 0.529-0.317 0.703 1.05-0.224 0.815-0.006 1.079-0.006 2.013-4.338 4.543-10.008 11.318-19.136 -4.29 5.17-8.16 10.6-11.21 16.62 1.811-11.55 9.17-21.13 10.021-22.35 -4.04 5.13-7.82 10.61-9.87 17.39 0.08-5.39 1.319-13.72 3.12-18.58 -3.28 3.39-7.41 7.69-10.78 9.8 4.46-3.86 6.04-6.86 16.12-28 6.189-12.98 9.689-26.55 21.78-28.17 4.079-0.56 8.05 0.79 11.779 2.39 9.61-8.79 21.59-11.83 32.671-10.83 33.879 2.51 42.409 23.86 60.529 28.24 -2.84 0.83-7.65-0.88-10.37-2.16 3.75 5.06 2.74 5.09 11.011 13.36 3.369 3.34 5.77 6.92 9.83 9.33 -4.4-0.73-7.94-5.05-15.91-9.32 1.149 1.84 5.629 8.96 12.31 15.36 2.87 2.74 6.979 5.88 10.28 8.21 -2.41-0.96-9.301-4.7-15.471-9.49 2.95 4.77 12.271 12.74 8.9 29.41 -0.33-7.42-0.52-15.68-7.57-20.16 0.784 3.301 4.045 11.059 1.833 18.544h0.317 0.875c2.142-6.938-0.861-13.751-2.085-17.224 6.409 5.8 6.31 18.31 5.67 24.379 2.521-6.85 3.479-13.449 1.46-20.489 -1.13-3.96-3.5-7.46-5.96-10.71 -0.17-0.23-0.351-0.46-0.521-0.69 4.69 3.76 10.521 7.08 16.11 8.14 0 0-17.069-12.22-24.31-23.26 1.8 1.29 4.25 3.34 6.64 4.95 3.45 2.35 6.17 3.54 10.14 3.04 -4.72-2.17-7.83-6.79-11.149-10.25 -7.37-7.74-4.36-3.42-10.56-11.66 5 2.04 7.649 1.84 10.67 0.75 -1.701-0.4-3.48-0.87-5.08-1.49 -13.41-5.19-28.451-28.98-60.24-29.1 -10.9-0.05-22.641 4.17-30.32 12.49 -1.33-0.61-2.68-1.13-4.04-1.57 -17.26-5.55-23.17 10.32-30.74 26.41 -2.88 2.39-8.47 7.94-16.029 8.68 3.67 0.26 7.54 0.58 12.06 0.2 -6.62 15.06-6.979 16.7-15.57 23.75C24.331 58.795 26.661 55.875 31.491 50.465zM35.961 30.755c-0.7 1.52-2.37 4.34-3.04 5.87 -4.48 0.36-5.55 0.39-9.36 0.56C26.591 36.875 32.461 33.855 35.961 30.755zM39.938 70.539c0 1.85 2.122 11.566 4.412 17.556 -1.18-6.81-1.41-13.92-1.229-20.82 0.18-7.13 1.3-14.12 3.34-20.95 -4.72 19.62-2.17 45.13 7.229 63.271 -1.909-9.51-3.02-19.14-1.81-28.82 0.28-2.24 0.66-4.46 1.16-6.66 0 0-0.92-8.37 1.49-22.32 -1.641 11.57-0.5 22.83 1.76 34.21 -0.22-8.28 0.2-16.63 2.32-24.67 1.159-4.4 2.439-5.78 4.5-10.88 -1.131-4.1-1.711-8.32-2.11-12.54 1.93 12.83 5.399 20.15 12.35 30.55 2.061 3.07 4.2 5.89 7.16 8.15 -2.08-3.64-8.96-19.1-9.37-20.14 -1.37-3.47-2.2-7.06-1.569-10.78 -2.04-3.2-3.83-6.56-5.46-9.99 5.229 9.7 12.039 18.21 20.34 25.49 4.29 3.77 8.859 7.25 13.56 10.48 4.841 3.33 10.04 5.93 15.03 8.99 -6.52-5.46-12.99-11.4-17.41-16.21 -2.68-2.92-5.81-5.87-7.97-9.21 -2.15-3.33-3.08-7.14-4.78-10.7 1.69 2.91 2.9 6.02 4.15 8.13 0.31 0.52 11.819 9.16 16.89 13.98 6.44 6.11 9.75 8.16 15.851 14.6 -2.791-6.18-3.521-9.17-11.131-19.26 -5.02-6.66-7.09-7.03-13.779-17.45 1.729 2.37 3.479 4.67 5.47 6.83 1.04 1.13 2.1 2.22 3.17 3.32 6.21 1.86 11.96 2.92 21.659 8.94 16.671 10.35 20.201 18.04 26.971 24.64 -1.2-4.17-4.88-11.15-8.18-16.9 -3.01-5.25-6.32-10.68-9.99-15.14 4.641 4.16 8.07 9.47 11.13 14.84 3.22 5.68 6.81 11.79 7.899 18.31 -2.109-1.62-4.01-3.43-5.869-5.34 1.119 6.33 1.73 12.93 1.439 19.36 9.016-14.682 12.535-35.524 9.849-48.787 6.943 27.12-5.726 44.18-11.658 54.876 0.46-6.54-0.2-21.98-0.71-26.4 -2.21-2.759-17.912-19.588-41.29-27.14 4.12 4.12 7.729 8.4 10.58 13.51 2.61 4.7 5.1 9.62 6.6 15.03 -5.3-5.3-11.079-10.12-16.739-15.01 -5.82-5.03-11.44-10.28-17.24-15.33 1.569 2.35 3.42 4.57 14.779 15.65 5.99 5.85 15.33 14.29 15.53 14.51 -1-0.38-17.76-9.09-25.62-15.05 -8.22-6.23-17.02-14.11-22.58-22.81 -0.489 6.01 3.061 12.45 4.9 16.33 2 4.21 4.979 11.6 8.229 16.96 -5.04-2.96-8.85-7.15-11.92-12.14 -3.189-5.18-6.06-10.19-7.84-16.03 -1.5 2.98-3.14 5.96-3.84 9.25 -0.74 3.46-1.229 6.95-1.57 10.47 -0.67 7.07-1.43 14.33-1.02 21.44 -1.74-5.47-3.07-10.94-3.64-16.67 -1.7 9.52-0.091 23.48 1.779 37.28 -5.149-7.021-9.5-17.16-11.99-26.3C41.511 81.005 39.658 74.499 39.938 70.539z" opacity="1"/></g><g id="svga-group-glasses-single-move" transform="matrix(1,0,0,1,0,5)"><g id="svga-group-glasses-single" transform="matrix(0.8499995000000001,0,0,0.8499995000000001,15.000635939453119,12.750042499999992)"><path id="SvgjsPath12070" fill="#fff" stroke-width="none" d="M144.81 91.54C142.14 98.8 135.17 104 127 104c-10.48 0-19-8.52-19-19 0-3.42 0.92-6.62 2.51-9.4C128.02 74.06 138.37 78.97 144.81 91.54zM56.51 75.6C54.92 78.38 54 81.58 54 85c0 10.48 8.52 19 19 19 8.17 0 15.14-5.2 17.81-12.46C84.37 78.97 74.02 74.06 56.51 75.6z" opacity=".2"/><path id="SvgjsPath12071" fill="#fff" stroke-width="none" d="M110.51 75.6c3.28-5.73 9.43-9.6 16.49-9.6 10.48 0 19 8.52 19 19 0 2.3-0.43 4.5-1.19 6.54C138.37 78.97 128.02 74.06 110.51 75.6zM90.81 91.54C91.57 89.5 92 87.3 92 85c0-10.48-8.52-19-19-19 -7.06 0-13.22 3.88-16.49 9.6C74.02 74.06 84.37 78.97 90.81 91.54z" opacity=".4"/><path id="SvgjsPath12072" fill="#26120b" stroke-width="none" d="M156.69 79.96l-9.77 3.44C146.1 73.1 137.51 65 127 65c-9.41 0-17.28 6.51-19.41 15.26 -0.01 0-0.01-0.01-0.02-0.02 -1.69-1.69-4.97-2.51-7.57-2.51s-5.88 0.83-7.57 2.51c-0.01 0-0.01 0.01-0.02 0.02C90.28 71.5 82.41 65 73 65c-10.51 0-19.1 8.11-19.92 18.4l-9.77-3.44v2.88l9.76 3.43C53.73 96.72 62.39 105 73 105c11.05 0 20-8.95 20-20 0-0.31-0.03-0.62-0.05-0.93 0.01 0 0.02 0 0.03 0 0-2.39 3.6-4.68 7.02-4.68s7.02 2.3 7.02 4.68c0.01 0 0.02 0 0.03 0C107.03 84.38 107 84.69 107 85c0 11.05 8.95 20 20 20 10.61 0 19.27-8.27 19.94-18.72l9.76-3.43V79.96zM73 103.5c-10.22 0-18.5-8.28-18.5-18.5 0-10.22 8.28-18.5 18.5-18.5S91.5 74.78 91.5 85C91.5 95.22 83.22 103.5 73 103.5zM127 103.5c-10.22 0-18.5-8.28-18.5-18.5 0-10.22 8.28-18.5 18.5-18.5s18.5 8.28 18.5 18.5C145.5 95.22 137.22 103.5 127 103.5z" opacity="1"/></g></g></g></g></g><rect id="SvgjsRect8519" width="200" height="15" x="0" y="185" fill="#ecf0f1" opacity=".5" style="display:none"/><text id="SvgjsText8520" x="38.7" y="182.428" fill="#333" anchor="start" font-family="Roboto, Helvetica, Arial, sans-serif" font-size="10" font-weight="400" text-anchor="start" style="display:none"><tspan id="SvgjsTspan8521" x="38.7" dy="13">Created on svgAvatars.com</tspan></text></g></svg>