<?xml version="1.0"?>
<svg xmlns="http://www.w3.org/2000/svg" version="1.1" width="500px" height="500px" viewBox="0 0 200 200" style="overflow:hidden!important;">
  <defs id="SvgjsDefs1007">
    <radialGradient id="SvgjsRadialGradient2907" cx="100" cy="114" r="41" gradientUnits="userSpaceOnUse" class="svga-on-canvas-facehighlight-gradient-single-0">
      <stop id="SvgjsStop2908" stop-opacity="0.5" stop-color="#ffe4d6" offset="0"/>
      <stop id="SvgjsStop2909" stop-opacity="0" stop-color="#f0c7b1" offset="0.9"/>
    </radialGradient>
    <radialGradient id="SvgjsRadialGradient2911" cx="100" cy="54" r="37" gradientUnits="userSpaceOnUse" class="svga-on-canvas-facehighlight-gradient-single-1">
      <stop id="SvgjsStop2912" stop-opacity="0.5" stop-color="#ffe4d6" offset="0"/>
      <stop id="SvgjsStop2913" stop-opacity="0" stop-color="#f0c7b1" offset="0.9"/>
    </radialGradient>
    <linearGradient id="SvgjsLinearGradient3036" x1="100" y1="142" x2="100" y2="139" gradientUnits="userSpaceOnUse" class="svga-on-canvas-mouth-gradient-single-0">
      <stop id="SvgjsStop3037" stop-opacity="1" stop-color="#e8b9a0" offset="0.1"/>
      <stop id="SvgjsStop3038" stop-opacity="1" stop-color="#e1ac8f" offset="1"/>
    </linearGradient>
    <radialGradient id="SvgjsRadialGradient4403" cx="129.041" cy="83.945" r="15.117" gradientTransform="matrix(-0.9945 0.1042 0.1042 0.9945 192.8281 -12.4633)" gradientUnits="userSpaceOnUse" class="svga-on-canvas-eyesback-gradient-left-0">
      <stop id="SvgjsStop4404" stop-opacity="1" stop-color="#ffffff" offset="0"/>
      <stop id="SvgjsStop4405" stop-opacity="1" stop-color="#fcfdfd" offset="0.315"/>
      <stop id="SvgjsStop4406" stop-opacity="1" stop-color="#f4f7f8" offset="0.504"/>
      <stop id="SvgjsStop4407" stop-opacity="1" stop-color="#e5ecef" offset="0.66"/>
      <stop id="SvgjsStop4408" stop-opacity="1" stop-color="#d8e2e7" offset="0.76"/>
    </radialGradient>
    <radialGradient id="SvgjsRadialGradient4410" cx="128.643" cy="83.986" r="15.116" gradientTransform="matrix(0.9945 0.1042 -0.1042 0.9945 7.1738 -12.4633)" gradientUnits="userSpaceOnUse" class="svga-on-canvas-eyesback-gradient-right-0">
      <stop id="SvgjsStop4411" stop-opacity="1" stop-color="#ffffff" offset="0"/>
      <stop id="SvgjsStop4412" stop-opacity="1" stop-color="#fcfdfd" offset="0.316"/>
      <stop id="SvgjsStop4413" stop-opacity="1" stop-color="#f4f7f8" offset="0.505"/>
      <stop id="SvgjsStop4414" stop-opacity="1" stop-color="#e5ecef" offset="0.661"/>
      <stop id="SvgjsStop4415" stop-opacity="1" stop-color="#d8e2e7" offset="0.76"/>
    </radialGradient>
    <radialGradient id="SvgjsRadialGradient4417" cx="129.041" cy="83.945" r="15.117" gradientTransform="matrix(-0.9945 0.1042 0.1042 0.9945 192.8281 -12.4633)" gradientUnits="userSpaceOnUse" class="svga-on-canvas-eyesfront-gradient-left-0">
      <stop id="SvgjsStop4418" stop-opacity="1" stop-color="#ffffff" offset="0"/>
      <stop id="SvgjsStop4419" stop-opacity="1" stop-color="#fcfdfd" offset="0.316"/>
      <stop id="SvgjsStop4420" stop-opacity="1" stop-color="#f4f7f8" offset="0.505"/>
      <stop id="SvgjsStop4421" stop-opacity="1" stop-color="#e5ecef" offset="0.661"/>
      <stop id="SvgjsStop4422" stop-opacity="1" stop-color="#d8e2e7" offset="0.76"/>
    </radialGradient>
    <radialGradient id="SvgjsRadialGradient4426" cx="121.986" cy="82.496" fx="133.239" fy="82.527" r="16.003" gradientTransform="matrix(0.9998 0.0208 0.0166 -0.7998 -45.3195 145.9395)" gradientUnits="userSpaceOnUse" class="svga-on-canvas-eyesfront-gradient-left-3">
      <stop id="SvgjsStop4427" stop-opacity="1" stop-color="#e1ac8f" offset="0"/>
      <stop id="SvgjsStop4428" stop-opacity="0.3" stop-color="#e1ac8f" offset="0.7"/>
      <stop id="SvgjsStop4429" stop-opacity="0" stop-color="#f0c7b1" offset="1"/>
    </radialGradient>
    <radialGradient id="SvgjsRadialGradient4431" cx="68.931" cy="105.995" r="29.524" gradientTransform="matrix(1.0336 0 0 1.0336 -1.6796 1.3127)" gradientUnits="userSpaceOnUse" class="svga-on-canvas-eyesfront-gradient-left-4">
      <stop id="SvgjsStop4432" stop-opacity="0" stop-color="#000000" offset="0.95"/>
      <stop id="SvgjsStop4433" stop-opacity="0.2" stop-color="#000000" offset="1"/>
    </radialGradient>
    <radialGradient id="SvgjsRadialGradient4437" cx="128.643" cy="83.986" r="15.116" gradientTransform="matrix(0.9945 0.1042 -0.1042 0.9945 7.1738 -12.4633)" gradientUnits="userSpaceOnUse" class="svga-on-canvas-eyesfront-gradient-right-0">
      <stop id="SvgjsStop4438" stop-opacity="1" stop-color="#ffffff" offset="0"/>
      <stop id="SvgjsStop4439" stop-opacity="1" stop-color="#fcfdfd" offset="0.316"/>
      <stop id="SvgjsStop4440" stop-opacity="1" stop-color="#f4f7f8" offset="0.505"/>
      <stop id="SvgjsStop4441" stop-opacity="1" stop-color="#e5ecef" offset="0.661"/>
      <stop id="SvgjsStop4442" stop-opacity="1" stop-color="#d8e2e7" offset="0.76"/>
    </radialGradient>
    <radialGradient id="SvgjsRadialGradient4446" cx="121.587" cy="82.496" fx="132.839" fy="82.527" r="16.003" gradientTransform="matrix(-0.9998 0.0208 -0.0166 -0.7998 244.5208 145.9478)" gradientUnits="userSpaceOnUse" class="svga-on-canvas-eyesfront-gradient-right-3">
      <stop id="SvgjsStop4447" stop-opacity="1" stop-color="#e1ac8f" offset="0"/>
      <stop id="SvgjsStop4448" stop-opacity="0.3" stop-color="#e1ac8f" offset="0.7"/>
      <stop id="SvgjsStop4449" stop-opacity="0" stop-color="#f0c7b1" offset="1"/>
    </radialGradient>
    <radialGradient id="SvgjsRadialGradient4451" cx="69.316" cy="105.995" r="29.524" gradientTransform="matrix(-1.0336 0 0 1.0336 201.6796 1.3127)" gradientUnits="userSpaceOnUse" class="svga-on-canvas-eyesfront-gradient-right-4">
      <stop id="SvgjsStop4452" stop-opacity="0" stop-color="#000000" offset="0.95"/>
      <stop id="SvgjsStop4453" stop-opacity="0.2" stop-color="#000000" offset="1"/>
    </radialGradient>
    <radialGradient id="SvgjsRadialGradient4508" cx="-582.838" cy="-519.099" r="59.745" gradientTransform="matrix(0.0991 8.856319e-004 -0.0011 0.0991 131.1134 135.9855)" gradientUnits="userSpaceOnUse" class="svga-on-canvas-eyesiris-gradient-left-2">
      <stop id="SvgjsStop4509" stop-opacity="1" stop-color="#ffffff" offset="0"/>
      <stop id="SvgjsStop4510" stop-opacity="0" stop-color="#ffffff" offset="1"/>
    </radialGradient>
    <linearGradient id="SvgjsLinearGradient4514" x1="122.67" y1="88.268" x2="123.606" y2="87.152" gradientTransform="matrix(1 0 0 1 -52 0)" gradientUnits="userSpaceOnUse" class="svga-on-canvas-eyesiris-gradient-left-5">
      <stop id="SvgjsStop4515" stop-opacity="1" stop-color="#ffffff" offset="0"/>
      <stop id="SvgjsStop4516" stop-opacity="0" stop-color="#ffffff" offset="1"/>
    </linearGradient>
    <linearGradient id="SvgjsLinearGradient4522" x1="129.636" y1="79.822" x2="127.91" y2="81.879" gradientTransform="matrix(1 0 0 1 -52 0)" gradientUnits="userSpaceOnUse" class="svga-on-canvas-eyesiris-gradient-left-7">
      <stop id="SvgjsStop4523" stop-opacity="1" stop-color="#ffffff" offset="0"/>
      <stop id="SvgjsStop4524" stop-opacity="0" stop-color="#ffffff" offset="1"/>
    </linearGradient>
    <radialGradient id="SvgjsRadialGradient4531" cx="-582.833" cy="-519.102" r="59.747" gradientTransform="matrix(0.0991 8.856319e-004 -0.0011 0.0991 183.1126 135.9856)" gradientUnits="userSpaceOnUse" class="svga-on-canvas-eyesiris-gradient-right-2">
      <stop id="SvgjsStop4532" stop-opacity="1" stop-color="#ffffff" offset="0"/>
      <stop id="SvgjsStop4533" stop-opacity="0" stop-color="#ffffff" offset="1"/>
    </radialGradient>
    <linearGradient id="SvgjsLinearGradient4537" x1="122.67" y1="88.268" x2="123.606" y2="87.152" gradientUnits="userSpaceOnUse" class="svga-on-canvas-eyesiris-gradient-right-5">
      <stop id="SvgjsStop4538" stop-opacity="1" stop-color="#ffffff" offset="0"/>
      <stop id="SvgjsStop4539" stop-opacity="0" stop-color="#ffffff" offset="1"/>
    </linearGradient>
    <linearGradient id="SvgjsLinearGradient4545" x1="129.636" y1="79.822" x2="127.91" y2="81.879" gradientUnits="userSpaceOnUse" class="svga-on-canvas-eyesiris-gradient-right-7">
      <stop id="SvgjsStop4546" stop-opacity="1" stop-color="#ffffff" offset="0"/>
      <stop id="SvgjsStop4547" stop-opacity="0" stop-color="#ffffff" offset="1"/>
    </linearGradient>
    <linearGradient id="SvgjsLinearGradient4610" x1="127.637" y1="79.822" x2="125.91" y2="81.88" gradientTransform="matrix(1 0 0 1 -50 0)" gradientUnits="userSpaceOnUse" class="svga-on-canvas-eyesiris-gradient-left-1">
      <stop id="SvgjsStop4611" stop-opacity="1" stop-color="#ffffff" offset="0"/>
      <stop id="SvgjsStop4612" stop-opacity="0" stop-color="#ffffff" offset="1"/>
    </linearGradient>
    <linearGradient id="SvgjsLinearGradient4615" x1="129.637" y1="79.823" x2="127.91" y2="81.881" gradientUnits="userSpaceOnUse" class="svga-on-canvas-eyesiris-gradient-right-1">
      <stop id="SvgjsStop4616" stop-opacity="1" stop-color="#ffffff" offset="0"/>
      <stop id="SvgjsStop4617" stop-opacity="0" stop-color="#ffffff" offset="1"/>
    </linearGradient>
    <linearGradient id="SvgjsLinearGradient4637" x1="132" y1="78" x2="126" y2="84" gradientTransform="matrix(1 0 0 1 -50 0)" gradientUnits="userSpaceOnUse" class="svga-on-canvas-eyesiris-gradient-left-6">
      <stop id="SvgjsStop4638" stop-opacity="1" stop-color="#ffffff" offset="0"/>
      <stop id="SvgjsStop4639" stop-opacity="0" stop-color="#ffffff" offset="1"/>
    </linearGradient>
    <linearGradient id="SvgjsLinearGradient4647" x1="132" y1="78" x2="126" y2="84" gradientUnits="userSpaceOnUse" class="svga-on-canvas-eyesiris-gradient-right-6">
      <stop id="SvgjsStop4648" stop-opacity="1" stop-color="#ffffff" offset="0"/>
      <stop id="SvgjsStop4649" stop-opacity="0" stop-color="#ffffff" offset="1"/>
    </linearGradient>
    <linearGradient id="SvgjsLinearGradient4730" x1="128" y1="106" x2="128" y2="69" gradientUnits="userSpaceOnUse" class="svga-on-canvas-glasses-gradient-single-1">
      <stop id="SvgjsStop4731" stop-opacity="0.95" stop-color="#26120b" offset="0"/>
      <stop id="SvgjsStop4732" stop-opacity="1" stop-color="#26120b" offset="1"/>
    </linearGradient>
    <linearGradient id="SvgjsLinearGradient4734" x1="72" y1="106" x2="72" y2="69" gradientUnits="userSpaceOnUse" class="svga-on-canvas-glasses-gradient-single-2">
      <stop id="SvgjsStop4735" stop-opacity="0.95" stop-color="#26120b" offset="0"/>
      <stop id="SvgjsStop4736" stop-opacity="1" stop-color="#26120b" offset="1"/>
    </linearGradient>
    <linearGradient id="SvgjsLinearGradient4899" x1="100" y1="171" x2="100" y2="131" gradientUnits="userSpaceOnUse" class="svga-on-canvas-chinshadow-gradient-single-0">
      <stop id="SvgjsStop4900" stop-opacity="0.8" stop-color="#e1ac8f" offset="0"/>
      <stop id="SvgjsStop4901" stop-opacity="1" stop-color="#c27b55" offset="0.7"/>
    </linearGradient>
  </defs>
  <g id="svga-group-wrapper">
    <g id="svga-group-backs-single">
      <path id="SvgjsPath3078" d="M225 225H-25V-25h250V225z" fill="#ecf0f1" stroke-width="none" opacity="1"/>
    </g>
    <g id="svga-group-humanwrap-move" transform="matrix(1,0,0,1,0,2)">
      <g id="svga-group-humanwrap" transform="matrix(0.8499995000000001,0,0,0.8499995000000001,14.838330710937484,16.450543116210923)">
        <g id="svga-group-hair-back-move" transform="matrix(1,0,0,1,0,0)">
          <g id="svga-group-hair-back" transform="matrix(1,0,0,1,0,0)">
            <path id="SvgjsPath3262" d="M155.728 11.564H44.272C28.491 30.71 21.813 58.319 32.461 90.745c8.949 28.091 13.512 36.882 21.14 58.24 0 0 0.003-4.164-0.1-6.51 3.068 7.797 1.906 5.192 4.189 9.279 0.064-3.704-0.192-7.47-0.55-11.13 2.294 9.156 3.72 11.162 6.37 16.48 0.481-3.005 0.55-5.61 0.55-8.3 0.006 0.022 5.33 16.002 5.33 16.02 0.26 0.771 0.51 1.5 0.73 2.15 0.284-3.106 0.558-7.202 0.773-11.023 0.698 2.131 1.545 4.613 2.445 7.111 0.388 2.607 0.785 5.354 1.151 8.021 0.15-1.35 50.867-1.35 51.018 0 0.366-2.668 0.764-5.415 1.151-8.023 0.9-2.498 1.747-4.979 2.445-7.109 0.216 3.821 0.489 7.917 0.773 11.023 0.221-0.65 0.471-1.38 0.73-2.15 0-0.018 5.324-15.997 5.33-16.02 0 2.689 0.068 5.295 0.55 8.3 2.65-5.318 4.076-7.324 6.37-16.48 -0.357 3.66-0.614 7.426-0.55 11.13 2.283-4.087 1.121-1.482 4.189-9.279 -0.103 2.346-0.1 6.51-0.1 6.51 7.628-21.358 12.19-30.149 21.14-58.24C178.187 58.319 171.509 30.71 155.728 11.564z" fill="#26221e" stroke-width="none" opacity="1" stroke="none"/>
            <path id="SvgjsPath3263" d="M155.731 11.562l1.149 5.18c13.415 18.712 18.158 44.437 8.958 73.864 -7.896 26.509-10.606 31.566-18.6 55.41 0.228-8.06-0.251-4.342 3.07-15.99 5.598-19.239 8.217-21.629 8.96-32.09 -1.767 11.506-7.022 17.952-10.37 31.68 -0.112 0.387-1.438 5.071-1.58 5.44 0 0.564-3.993 12.566-4.45 13.58 2.057-30.407 12.97-43.777 18.92-67.34 3.275-14.069 1.713-20.565-0.21-34.17 -0.978-6.889-2.307-14.719-5.38-17.19 3.303 3.303 4.087 11.762 4.66 17.22 0.404 3.898 2.475 15.697 0.93 26.87 -3.525 20.76-15.2 39.243-17.79 57.66 0 0 0.01 0.01 0 0.02 -2.935 11.237-3.169 13.813-7.04 23.021 -0.176-4.356-0.183-7.088 0.031-10.836 5.971-15.562 4.394-10.082 7.99-29.964 -0.22 0.598-3.94 11.747-7.424 22.354 0.236-2.84 0.535-6.295 0.902-10.704 0 0 0 0.01-0.01 0.03 -3.081 20.755-1.168 10.467-6.479 28.02 -1.796-14.726 2.294-35.978 2.71-39.279 -3.055 12.144-4.802 21.952-4.28 33.93 -0.307 0.995-0.52 1.694-0.678 2.22 -0.717-11.735-0.791-13.635-0.795-13.939 -0.376 17.315 0.313 1.76-2.906 25.071 -0.216 0.637-0.442 1.305-0.69 2.038 -0.74-5.766-1.127-13.335-1.421-16.189 -2.111-0.395-4.519-0.51-6.55-0.51 -9.976 0.257-3.828 0.929-17.36 1.256 -13.532-0.327-7.385-0.999-17.361-1.256 -2.031 0-4.438 0.115-6.55 0.51 -0.294 2.854-0.68 10.424-1.42 16.189 -0.249-0.733-0.475-1.401-0.69-2.038 -3.211-23.254-2.532-7.841-2.906-25.071 -0.004 0.305-0.079 2.204-0.795 13.94 -0.158-0.524-0.371-1.225-0.678-2.221 0.521-11.978-1.225-21.786-4.28-33.93 0.416 3.302 4.506 24.554 2.71 39.279 -5.323-17.587-3.395-7.268-6.479-28.02 -0.01-0.021-0.01-0.03-0.01-0.03 0.368 4.41 0.666 7.865 0.902 10.705 -3.483-10.606-7.204-21.757-7.424-22.354 3.596 19.873 2.02 14.401 7.991 29.965 0.214 3.747 0.207 6.479 0.031 10.835 -3.871-9.208-4.105-11.783-7.04-23.021 -0.01-0.01 0-0.02 0-0.02 -2.59-18.417-14.265-36.9-17.79-57.66 -1.545-11.173 0.525-22.972 0.93-26.87 0.573-5.458 1.357-13.917 4.66-17.22 -3.073 2.471-4.402 10.301-5.38 17.19 -1.923 13.605-3.485 20.101-0.21 34.17 5.95 23.563 16.863 36.933 18.92 67.34 -0.457-1.014-4.45-13.016-4.45-13.58 -0.143-0.369-1.468-5.054-1.58-5.44 -3.348-13.728-8.604-20.174-10.37-31.68 0.743 10.461 3.362 12.851 8.96 32.09 3.321 11.648 2.843 7.931 3.07 15.99 -7.993-23.844-10.703-28.901-18.6-55.41 -9.2-29.427-4.457-55.152 8.958-73.864l1.149-5.18C28.488 30.708 21.813 58.32 32.461 90.745c8.949 28.091 13.512 36.882 21.14 58.24 0 0 0.003-4.164-0.1-6.51 3.068 7.797 1.906 5.192 4.189 9.279 0.064-3.704-0.192-7.47-0.55-11.13 2.294 9.156 3.72 11.162 6.37 16.48 0.481-3.005 0.55-5.61 0.55-8.3 0.006 0.022 5.33 16.002 5.33 16.02 0.26 0.771 0.51 1.5 0.73 2.15 0.284-3.106 0.558-7.202 0.773-11.023 2.884 8.8 2.179 4.808 3.597 15.133 0.15-1.35 0.303-2.573 0.458-3.707 0.02 0.052 0.041 0.105 0.061 0.157 2.231-14.414 2.258-12.435 3.011-18.76 19.125 1.023 24.679 1.032 43.959 0 0.757 6.367 0.762 4.21 3.011 18.76 0.021-0.052 0.041-0.105 0.061-0.158 0.155 1.134 0.308 2.358 0.458 3.708 1.419-10.337 0.714-6.334 3.597-15.133 0.216 3.821 0.489 7.917 0.773 11.023 0.221-0.65 0.471-1.38 0.73-2.15 0-0.018 5.324-15.997 5.33-16.02 0 2.689 0.068 5.295 0.55 8.3 2.65-5.318 4.076-7.324 6.37-16.48 -0.357 3.66-0.614 7.426-0.55 11.13 2.283-4.087 1.121-1.482 4.189-9.279 -0.103 2.346-0.1 6.51-0.1 6.51 7.628-21.358 12.19-30.149 21.14-58.24C178.187 58.32 171.512 30.708 155.731 11.562zM69.491 163.165c-1.323-5.24-2.458-8.576-3.365-11.2 1.074 2.769 1.867 4.804 2.233 5.771 0.499-2.595 0.93-5.54 1.05-6.54 0.171 0.597 0.405 1.37 0.686 2.266C69.925 156.226 69.726 159.425 69.491 163.165zM71.052 153.015c0.061-1.21 0.115-2.355 0.159-3.379 0.122 0.597 0.601 3.492 1.213 7.415C71.652 154.783 71.276 153.685 71.052 153.015zM77.631 148.405c-0.097 0.384-0.678 3.295-1.321 6.632 0.183-2.979 0.253-5.581 0.209-7.292 1.364-0.173 5.699-0.332 12.026 0.629C85.419 148.395 81.815 148.405 77.631 148.405zM122.369 148.405c-4.185 0-7.789-0.011-10.915-0.031 5.565-0.845 10.097-0.874 12.026-0.629 -0.044 1.711 0.026 4.312 0.21 7.29C123.047 151.698 122.466 148.788 122.369 148.405zM127.576 157.051c0.611-3.924 1.091-6.818 1.213-7.415 0.044 1.023 0.098 2.168 0.159 3.379C128.724 153.684 128.348 154.783 127.576 157.051zM130.509 163.165c-0.234-3.74-0.434-6.939-0.604-9.704 0.28-0.896 0.515-1.669 0.686-2.266 0.119 1 0.551 3.945 1.05 6.54 0.366-0.967 1.159-3.004 2.234-5.776C132.968 154.584 131.833 157.921 130.509 163.165z" fill="#070604" stroke-width="none" opacity="1" stroke="none"/>
          </g>
        </g>
        <g id="svga-group-humanbody-single">
          <path id="SvgjsPath2914" d="M195.417 199.778c-2.196-4.746-8.195-11.779-14.86-13.722 -8.239-2.403-26.837-5.308-33.733-6.923 -5.528-1.296-16.662-11.294-20.564-14.65 -0.7-0.6-1.273-1.839-1.287-2.76 -0.139-10.864 4.195-39.724 4.195-39.724H100 70.833c0 0 4.334 28.859 4.193 39.724 -0.011 0.921-0.587 2.16-1.285 2.76 -3.902 3.356-15.036 13.354-20.564 14.65 -6.897 1.615-25.495 4.619-33.733 7.022 -6.667 1.942-12.664 8.876-14.86 13.622 -3.708 8.008-4.584 22.5-4.584 35h100 100C200 222.278 199.123 207.786 195.417 199.778z" fill="#f0c7b1" stroke-width="none" opacity="1" stroke="none"/>
          <path id="SvgjsPath2915" d="M159.156 184.058c24.342 3.542 34.586 8.708 37.794 50.721H200c0-12.5-0.877-26.992-4.583-35 -2.196-4.746-8.195-11.779-14.86-13.722 -8.239-2.403-26.837-5.308-33.733-6.923 -5.528-1.296-18.242-12.069-21.643-16.35 3.36 4.704 12.791 15.605 21.054 18.46C150.188 182.61 153.48 183.232 159.156 184.058zM53.766 181.244c8.263-2.854 17.693-13.756 21.054-18.46 -3.4 4.28-16.114 15.054-21.643 16.35 -6.896 1.615-25.494 4.619-33.733 7.022 -6.665 1.942-12.664 8.876-14.86 13.622 -3.706 8.008-4.583 22.5-4.583 35h3.05c3.188-41.744 13.475-47.183 37.794-50.721C46.52 183.232 49.813 182.61 53.766 181.244z" fill="#ffe4d6" stroke-width="none" opacity="1" stroke="none"/>
          <path id="SvgjsPath2916" d="M95.646 197.62c0 0-5.074-1.609-7.083-2.379 -10.449-4.009-44.395-6.607-44.395-6.607s35.754 1.419 43.644 2.779c-0.458-4.767-3.017-20.004-3.017-20.004s5.149 16.815 6.409 21.057C91.878 194.734 95.646 197.62 95.646 197.62zM106.445 196.278c-0.089 0.073-0.191 0.168-0.302 0.268C106.256 196.461 106.358 196.372 106.445 196.278zM95.646 197.62c0 0 2.893 2.992 4.347 3.03 1.91 0.051 4.828-2.899 6.151-4.104 -1.265 0.957-4.159 1.391-5.31 1.436C99.504 198.033 95.646 197.62 95.646 197.62zM116.664 190.101c-1.545 0.248-4.386 0.789-4.386 0.789l2.287-14.89c-0.646 3.071-4.474 16.211-8.12 20.278 1.91-1.616 6.158-2.391 8.324-2.704 10.236-1.484 10.232-1.483 41.062-4.94C155.831 188.634 126.76 188.479 116.664 190.101z" fill="#e1ac8f" stroke-width="none" opacity="1" stroke="none"/>
          <path id="SvgjsPath2917" d="M195.417 199.778c-2.196-4.746-8.195-11.779-14.86-13.722 -8.239-2.403-26.837-5.308-33.733-6.923 -5.528-1.296-16.662-11.294-20.564-14.65 -0.7-0.6-1.273-1.839-1.287-2.76 -0.139-10.864 4.195-39.724 4.195-39.724H100 70.833c0 0 4.334 28.859 4.193 39.724 -0.011 0.921-0.587 2.16-1.285 2.76 -3.902 3.356-15.036 13.354-20.564 14.65 -6.897 1.615-25.495 4.619-33.733 7.022 -6.667 1.942-12.664 8.876-14.86 13.622 -3.708 8.008-4.584 22.5-4.584 35h100 100C200 222.278 199.123 207.786 195.417 199.778z" fill="none" stroke="#c27b55" stroke-width="1.5" opacity="1"/>
        </g>
        <g id="svga-group-chinshadow-single">
          <path id="SvgjsPath4898" d="M100.021 171.866c8.183 0 16.871-4.943 24.199-10.675 -0.001-6.702 1.451-19.105 2.652-28.205 -15.382-2.247-38.406-2.279-53.766-0.152 1.184 8.96 2.625 21.206 2.671 28.02C83.119 166.767 91.822 171.866 100.021 171.866z" fill="url(#SvgjsLinearGradient4899)" opacity="1"/>
        </g>
        <g id="svga-group-clothes-single">
          <path id="SvgjsPath3228" d="M-5.95 234.616c-0.097-1.305 0.096-7.32 0.182-9.162 1.676-34.52 9.815-34.842 45.602-46.602 17.162-5.637 21.952-7.468 28.06-21.871 1.732-4.086 3.229-7.618 6.451-8.872 16.41 10.047 30.559 9.724 50.891 1.363 3.773 0.586 4.934 5.929 5.811 9.79 5.64 23.845 40.362 18.461 55.969 28.298 16.196 8.864 16.935 38.516 16.775 47.393 0.004 0.026 0.006 0.046 0.007 0.065C182.728 236.014 20.313 236.492-5.95 234.616z" fill="#39557e" stroke-width="none" opacity="1" stroke="none"/>
          <path id="SvgjsPath3229" d="M182.492 222.599c0.909-12.229 1.182-21.815 4.462-33.152 -4.75 17.574 1.584 31.396-7.798 41.009C180.333 227.314 182.202 226.501 182.492 222.599zM18.51 206.248c-1.726-4.69-3.941-10.92-4.77-18.307 -0.301 0.161-0.422-0.745-0.714-0.586 1.192 13.22 5.083 20.817 6.268 40.019C19.107 220.494 20.157 210.726 18.51 206.248zM123.111 150.582c-0.624 0.172-1.25 0.928-1.879 1.073 8.78 8.904 3.019 12.265 15.854 27.903 0.357-0.199 1.519-0.911 2.917-1.814C131.547 172.431 129.646 159.234 123.111 150.582zM127.984 178.849c0.48 1.599 1.182 2.956 1.996 4.292 -0.49 0.207-0.975 0.433-1.471 0.623 -2.536-3.662-4.971-7.31-6.589-14.88 -1.671-7.814-0.948-6.651-6.375-15.19 0.343-0.058 1.023-0.493 1.554-0.587C122.234 161.005 124.345 169.755 127.984 178.849zM136.27 180.046c-0.518 0.298-1.04 0.58-1.564 0.862 -7.207-8.34-10.05-18.66-14.846-28.339 0.329-0.071 0.974-0.979 1.275-1.044 4.255 5.021 4.237 7.511 5.529 11.985C128.348 169.113 132.925 176.335 136.27 180.046zM112.113 155.051c3.854 11.032 6.377 19.741 7.078 31.438 -0.504 0.103-1.006 0.203-1.511 0.289 -0.698-6.112-1.601-12.464-1.867-13.927 -1.064-5.854-2.984-13.68-4.724-17.654C111.433 155.154 111.771 155.1 112.113 155.051zM127.576 184.12c-0.596 0.221-1.197 0.421-1.799 0.618 -6.32-8.721-6.205-20.123-11.174-31.226 0.194-0.03 0.499-0.051 0.693-0.08 5.517 10.376 3.757 7.383 6.258 17.906C122.863 176.839 125.571 181.785 127.576 184.12zM116.725 186.932c-0.396 0.063-0.801 0.106-1.202 0.158 -1.437-11.685-2.015-20.899-5.835-31.754 0.268-0.024 0.536-0.04 0.802-0.066C113.948 164.7 115.354 178.074 116.725 186.932zM90.506 155.457C87 166.149 86.255 174.5 85.584 185.779c-0.396-0.076-0.796-0.149-1.187-0.229 0.301-9.598 1.511-21.52 5.259-30.177C89.94 155.404 90.223 155.426 90.506 155.457zM73.665 182.298c-0.45-0.18-0.903-0.353-1.352-0.55 5.427-7.417 7.915-19.667 8.576-29.212 0.356 0.099 0.712 0.182 1.067 0.271C82.212 164.065 78.521 172.691 73.665 182.298zM89.11 155.313c-4.297 8.516-5.687 20.342-5.506 30.059 -0.343-0.077-0.664-0.163-0.999-0.241 -0.362-11.391 0.919-20.313 5.481-30.088C88.43 155.086 88.762 155.276 89.11 155.313zM63.765 177.669c-0.565-0.305-1.131-0.608-1.691-0.924 3.012-2.229 6.067-5.612 8.114-9.492 1.842-3.49 6.022-13.854 6.88-17.206 0.288 0.127 0.583 0.226 0.875 0.336C75.729 161.135 71.003 170.933 63.765 177.669zM71.647 181.475c-0.6-0.258-1.188-0.543-1.782-0.813 5.091-9.12 7.394-19.314 8.429-30.16 0.66 0.242 1.321 1.667 1.983 1.856C78.754 162.773 77.147 172.728 71.647 181.475zM76.713 149.903c-0.697 2.172-1.653 4.229-2.629 6.328 -2.326 5.216-4.664 13.816-12.697 20.111 -0.582-0.331-1.159-0.674-1.736-1.018 7.396-6.788 11.247-16.835 15.192-26.102C75.445 149.477 76.07 149.619 76.713 149.903z" fill="#27446f" stroke-width="none" opacity="1" stroke="none"/>
          <path id="SvgjsPath3230" d="M57.333 175.454l-2.069-1.538c-22.055 9.523-41.926 2.852-56.539 29.547 -3.991 7.288-4.545 18.273-4.545 31.377C1.369 178.39 18.115 196.628 57.333 175.454zM196.71 207.091c5.439 11.127 4.946 21.213 7.122 27.749 0-13.104-2.448-23.057-5.272-30.988 -8.032-22.559-35.624-20.007-53.664-27.794l-2.069 1.536C164.723 190.902 184.014 181.115 196.71 207.091z" fill="#4e688d" stroke-width="none" opacity="1" stroke="none"/>
          <path id="SvgjsPath3231" d="M187.067 187.455c-13.433-10.616-50.315-4.529-55.917-28.223 -0.701-3.026-1.827-9.248-5.936-9.876 -0.202 0.047-0.816-0.155-0.815-0.155 -16.182 7.008-33.106 9.09-50.09-1.202 -7.632 2.969-5.548 18.164-19.974 25.281 -6.29 3.161-14.488 3.445-26.402 7.406 -29.668 9.339-33.597 21.576-33.808 44.76 -0.078 1.682-0.293 8.174-0.172 9.284 29.106 2.102 194.721 1.151 209.945 0.402 0.011-0.057 0.011-0.119 0-0.178C204.205 217.771 202.179 196.583 187.067 187.455zM125.622 150.046c7.731 2.875-0.892 16.031 17.001 25.962 -2.362 1.614-4.969 3.234-5.537 3.551 -12.835-15.639-6.916-17.92-15.212-27.548C123.412 151.239 124.185 150.545 125.622 150.046zM121.456 152.115c4.254 5.024 3.916 6.921 5.208 11.396 1.684 5.603 6.261 12.824 9.605 16.535 -2.501 1.44-5.099 2.693-7.76 3.718 -2.536-3.662-4.731-7.344-6.481-14.88 -1.543-6.639-1.004-7.17-6.162-15.076C116.939 153.64 119.765 152.504 121.456 152.115zM115.404 153.906c5.516 10.378 3.649 6.909 6.15 17.433 1.309 5.5 4.017 10.446 6.021 12.781 -3.23 1.19-6.547 2.086-9.896 2.657 -0.698-6.112-1.518-12.459-1.76-13.927 -1.073-6.498-3.092-13.68-4.831-17.654C112.464 155.04 114.042 154.132 115.404 153.906zM110.489 155.27c3.459 9.431 4.864 22.805 6.235 31.662 -3.158 0.499-6.508 0.68-9.638 0.68 -0.001-0.03-2.036-18.832-2.834-31.169C106.43 156.083 108.718 155.811 110.489 155.27zM103.717 156.468c0.053 13.91 1.025 17.525 2.586 31.154 -3.744 0.013-7.48-0.178-11.226-0.536 2.538-23.363 3.81-30.534 3.81-30.534C100.866 156.552 102.659 156.505 103.717 156.468zM98.222 156.552c-2.98 18.285-3.49 22.712-3.842 30.464 -3.423-0.319-6.789-0.796-9.981-1.466 0.301-9.598 1.511-21.52 5.259-30.177C92.501 155.697 95.367 156.54 98.222 156.552zM89.11 155.313c-4.297 8.516-5.687 20.342-5.506 30.059 -4.157-0.918-7.729-2.095-11.291-3.623 5.427-7.417 7.915-19.667 8.576-29.212C83.596 153.271 86.459 154.663 89.11 155.313zM80.277 152.358c-1.523 10.415-3.13 20.369-8.629 29.116 -3.263-1.392-6.461-2.979-9.574-4.729 3.012-2.229 6.067-5.612 8.114-9.492 1.842-3.49 5.915-13.619 6.772-16.967C78.012 150.739 79.204 152.049 80.277 152.358zM74.094 148.831c0.827 0.561 1.599 0.903 2.511 1.312 -0.697 2.168-1.545 3.99-2.521 6.089 -2.326 5.216-4.664 13.816-12.697 20.111 -1.492-0.848-2.973-1.743-4.422-2.682C69.393 166.228 67.293 152.256 74.094 148.831zM-5.575 234.432c0.146-4.763 1.287-20.803 3.861-28.177 3.32-9.512 8.278-13.597 14.589-17.326 -0.432 11.225 4.791 15.313 5.13 28.729 0.096 4.063 0.601 8.052 1.213 12.056 -0.28-4.207-0.397-8.378-0.376-12.595 0.062-12.207-4.884-17.006-4.884-28.632 13.355-7.608 35.654-10.696 41.794-14.135 14.15 10.354 27.314 15.818 50.819 15.665 17.036 0 26.96-4.89 37.458-13.234 14.42 6.477 31.095 4.024 42.352 12.997 -1.776 5.867-2.995 8.928-3.326 12.126 -0.768 7.53 0.372 12.885-0.602 19.802 -0.569 4.015-3.35 6.969-4.101 10.913 2.186-7.389 6.127-4.682 5.646-22.101 -0.276-9.824 0.51-10.079 2.982-20.337 12.328 8.578 15.5 28.732 16.197 44.771C167.506 234.695 8.491 234.762-5.575 234.432z" fill="#0c2850" stroke-width="none" opacity="1" stroke="none"/>
        </g>
        <g id="svga-group-head" transform="matrix(1,0,0,1,0,0)">
          <g id="svga-group-ears-left-move" transform="matrix(1,0,0,1,0,0)">
            <g id="svga-group-ears-left" transform="matrix(1,0,0,1,0,0)">
              <path id="SvgjsPath2927" d="M45.671 84.344c-1.485-2.462-6.327-9.199-10.031-8.254 -3.012 0.772-2.973 4.971-3.206 7.455 -0.34 3.644-0.464 9.992 0.525 12.568 0.951 2.473 3.96 7.252 5.828 9.075 2.299 2.235 5.97 9.358 6.422 10.097 0.711 1.168 2.137 2.84 4.325 2.708 3.071-0.185 5.724-3.087 5.965-4.485C56.8 105.918 49.536 90.75 45.671 84.344z" fill="#f0c7b1" stroke="#c27b55" stroke-width="1.5" opacity="1"/>
              <path id="SvgjsPath2928" d="M44.2 99.341c-0.143-0.563 0.007-1.513 0.154-2.429 0.133-0.835 0.258-1.624 0.182-2.182 -0.289-2.09-1.915-6.06-2.976-8.212 -1.223-2.476-3.199-5.595-5.679-6.399 -1.024-0.333-1.699 0.065-2.089 0.468 -0.288 0.296-0.353 0.645-0.259 0.687 0.095 0.041 0.307-0.248 0.617-0.519 0.254-0.222-0.508-0.04 0 0 -0.205 1.04-0.865 6.302-0.41 10.143 0.358 3.022 1.05 5.279 1.263 5.617 0.031 0.356 0.083 0.705 0.16 1.043 1.002 4.41 7.518 10.177 9.034 11.82 0.28 0.303 0.574 0.483 0.646 0.409s-0.101-0.373-0.379-0.678c-1.498-1.632-7.971-7.381-8.939-11.635 -1.027-4.514 3.912-11.207 4.699-12.623 0.401 0.665 0.742 1.303 1.004 1.835 0.207 0.417 0.434 0.906 0.67 1.435 -0.463 0.738-5.118 6.127-3.934 10.441 0.438 1.591 3.822 3.642 5.131 4.203 0.72 0.31 0.99 0.772 1.304 1.306 0.364 0.624 0.033 2.229 1.23 2.739 0.244 0.104 0.464 0.146 0.659 0.146 0.338 0 0.594-0.13 0.783-0.284 0.02 0.271 0.019 0.619 0.009 0.941 -0.012 0.418 0.047 0.609 0.148 0.617 0.103 0.009 0.21-0.174 0.223-0.587 0.017-0.51 0.014-1.141-0.077-1.444 -0.269-0.889-1.088-1.894-1.957-2.957C44.563 102.197 44.422 100.213 44.2 99.341zM34.969 95.432c-2.348-6.923 1.283-13.229 1.81-14.179 1.012 0.399 2.562 2.193 3.221 3.235C39.52 85.321 35.067 90.775 34.969 95.432zM45.772 106.464c-1.084-0.462-0.706-1.984-1.056-2.584 -0.318-0.542-0.646-1.102-1.479-1.46 -0.18-0.078-0.379-0.196-0.583-0.332 -2.682-6.075 0.293-8.73 1.039-9.273 0.229 0.742 0.399 1.423 0.476 1.97 0.068 0.5-0.059 1.298-0.181 2.068 -0.153 0.955-0.31 1.944-0.147 2.584 0.244 0.953 0.411 2.97 1.291 4.048 0.781 0.956 1.583 1.942 1.857 2.746C46.871 106.391 46.5 106.775 45.772 106.464z" fill="#c27b55" stroke-width="none" opacity="1" stroke="none"/>
            </g>
          </g>
          <g id="svga-group-ears-right-move" transform="matrix(1,0,0,1,0,0)">
            <g id="svga-group-ears-right" transform="matrix(1,0,0,1,0,0)">
              <path id="SvgjsPath2929" d="M154.066 84.344c1.486-2.462 6.328-9.199 10.031-8.254 3.012 0.772 2.973 4.971 3.207 7.455 0.34 3.644 0.463 9.992-0.525 12.568 -0.951 2.473-3.961 7.252-5.828 9.075 -2.299 2.235-5.971 9.358-6.422 10.097 -0.711 1.168-2.137 2.84-4.326 2.708 -3.07-0.185-5.723-3.087-5.965-4.485C142.938 105.918 150.203 90.75 154.066 84.344z" fill="#f0c7b1" stroke="#c27b55" stroke-width="1.5" opacity="1"/>
              <path id="SvgjsPath2930" d="M154.322 103.243c-0.869 1.063-1.688 2.068-1.957 2.957 -0.092 0.304-0.094 0.935-0.078 1.444 0.014 0.413 0.121 0.596 0.225 0.587 0.102-0.008 0.16-0.199 0.148-0.617 -0.01-0.322-0.012-0.67 0.008-0.941 0.189 0.154 0.445 0.284 0.783 0.284 0.195 0 0.416-0.042 0.66-0.146 1.195-0.511 0.865-2.116 1.229-2.739 0.314-0.534 0.584-0.997 1.305-1.306 1.309-0.561 4.693-2.611 5.131-4.203 1.184-4.314-3.471-9.704-3.934-10.441 0.234-0.529 0.463-1.018 0.668-1.435 0.264-0.532 0.604-1.171 1.006-1.835 0.787 1.416 5.725 8.108 4.699 12.623 -0.969 4.254-7.441 10.003-8.939 11.635 -0.279 0.305-0.453 0.604-0.381 0.678 0.074 0.074 0.367-0.106 0.646-0.409 1.516-1.643 8.031-7.41 9.033-11.82 0.078-0.338 0.131-0.687 0.162-1.043 0.211-0.337 0.904-2.594 1.262-5.617 0.455-3.841-0.205-9.103-0.41-10.143 0.508-0.04-0.254-0.222 0 0 0.311 0.271 0.523 0.56 0.617 0.519 0.094-0.042 0.029-0.39-0.258-0.687 -0.391-0.403-1.066-0.801-2.09-0.468 -2.48 0.804-4.457 3.923-5.68 6.399 -1.061 2.152-2.686 6.122-2.975 8.212 -0.076 0.558 0.049 1.347 0.182 2.182 0.146 0.916 0.297 1.866 0.154 2.429C155.316 100.213 155.176 102.197 154.322 103.243zM159.738 84.488c0.66-1.042 2.209-2.835 3.221-3.235 0.527 0.95 4.158 7.256 1.811 14.179C164.672 90.775 160.219 85.321 159.738 84.488zM152.75 106.229c0.273-0.804 1.076-1.79 1.857-2.746 0.879-1.078 1.047-3.095 1.291-4.048 0.162-0.64 0.006-1.629-0.146-2.584 -0.123-0.77-0.25-1.568-0.182-2.068 0.076-0.547 0.246-1.228 0.475-1.97 0.746 0.543 3.721 3.199 1.039 9.273 -0.203 0.136-0.402 0.254-0.584 0.332 -0.832 0.358-1.16 0.918-1.479 1.46 -0.35 0.6 0.029 2.123-1.055 2.584C153.238 106.775 152.867 106.391 152.75 106.229z" fill="#c27b55" stroke-width="none" opacity="1" stroke="none"/>
            </g>
          </g>
          <g id="svga-group-faceshape-wrap" transform="matrix(1,0,0,1,0,0)">
            <g id="svga-group-faceshape-single">
              <path id="SvgjsPath4895" d="M158.785 78.006l-0.005 0c-0.01 0.046-12.197 40.27-15.879 52.418 -0.715 2.358-1.931 4.551-3.556 6.386 -6.375 7.194-23.768 25.057-39.324 25.057 -15.849 0-33.591-19.045-39.708-26.214 -1.442-1.688-2.507-3.633-3.172-5.765 -3.607-11.551-16.126-51.648-16.137-51.694h-0.001c-1.298-4.992-1.994-10.231-2.002-15.634C38.949 28.536 66.155 0.92 99.773 0.867c33.621-0.053 60.913 27.476 60.964 61.499C160.746 67.769 160.068 73.01 158.785 78.006z" fill="#f0c7b1" stroke-width="none" opacity="1"/>
              <path id="SvgjsPath4896" d="M132.168 10.26c14.31 11.135 23.671 29.457 23.699 50.208 0.009 5.404-0.615 10.645-1.796 15.641l-0.004 0c-0.009 0.046-11.223 40.27-14.608 52.417 -0.658 2.358-1.776 4.551-3.271 6.385 -5.865 7.195-21.866 25.059-36.178 25.059 -14.582 0-30.904-19.047-36.531-26.215 -1.327-1.689-2.306-3.633-2.918-5.764 -3.318-11.552-14.836-51.649-14.846-51.695h-0.001c-1.194-4.992-1.834-10.231-1.842-15.634 -0.029-20.827 9.348-39.239 23.713-50.412C50.392 21.159 38.967 40.508 39.001 62.56c0.008 5.403 0.704 10.643 2.002 15.634h0.001c0.01 0.046 12.53 40.143 16.137 51.694 0.666 2.132 1.73 4.076 3.172 5.765 6.116 7.169 23.858 26.214 39.708 26.214 15.557 0 32.949-17.862 39.324-25.057 1.625-1.835 2.841-4.027 3.556-6.386 3.682-12.148 15.869-52.372 15.879-52.418l0.005 0c1.283-4.997 1.961-10.237 1.952-15.641C160.704 40.389 149.297 21.135 132.168 10.26z" fill="#e8b9a0" stroke-width="none" opacity="1"/>
              <path id="SvgjsPath4897" d="M158.785 78.006l-0.005 0c-0.01 0.046-12.197 40.27-15.879 52.418 -0.715 2.358-1.931 4.551-3.556 6.386 -6.375 7.194-23.768 25.057-39.324 25.057 -15.849 0-33.591-19.045-39.708-26.214 -1.442-1.688-2.507-3.633-3.172-5.765 -3.607-11.551-16.126-51.648-16.137-51.694h-0.001c-1.298-4.992-1.994-10.231-2.002-15.634C38.949 28.536 66.155 0.92 99.773 0.867c33.621-0.053 60.913 27.476 60.964 61.499C160.746 67.769 160.068 73.01 158.785 78.006z" fill="none" stroke="#c27b55" stroke-width="1.5" opacity="1"/>
            </g>
          </g>
          <g id="svga-group-mouth-single-move" transform="matrix(1,0,0,1,0,0)">
            <g id="svga-group-mouth-single" transform="matrix(1,0,0,1,0,0)">
              <path id="SvgjsPath3035" d="M96.227 139.237l8.297-0.207C103.563 143.5 96.884 142.858 96.227 139.237z" fill="url(#SvgjsLinearGradient3036)" opacity="1"/>
              <path id="SvgjsPath3039" d="M96.343 139.52c-0.371-0.05-0.315-0.579 0.08-0.542 0.043 0.006 4.308 0.546 7.878-0.215 0.386-0.075 0.5 0.455 0.13 0.534C101.634 139.895 98.015 139.755 96.343 139.52zM100.083 135.95c-1.503 0-2.96-0.521-4.424-0.776 -1.64-0.287-3.274-0.041-4.915 0.104 -1.676 0.149-5.333-0.013-6.365-0.666 -0.578-0.367-0.47-1.221 0.181-1.449 0.614-0.22 1.571 0.236 2.191 0.347 2.872 0.515 4.384-0.034 6.902-0.118 3.851-0.116 4.26 1.501 9.064 0.53 5.165-1.044 7.491-0.254 11.197-1.37 0.508-0.154 1.112-0.56 1.645-0.286 0.615 0.318 0.585 1.185-0.049 1.464 -3.406 1.502-7.174 0.895-10.955 1.526C103.073 135.502 101.596 135.95 100.083 135.95z" fill="#c27b55" stroke-width="none" opacity="1" stroke="none"/>
            </g>
          </g>
          <g id="svga-group-eyes-left-move" transform="matrix(1,0,0,1,0,0)">
            <g id="svga-group-eyes-left" transform="matrix(1,0,0,1,0,0)">
              <g id="svga-group-eyesback-left">
                <path id="SvgjsPath4402" d="M61.752 82.523c-0.506-2.285 5.191-3.973 12.711-3.051 7.518 0.923 12.738 5.524 12.052 7.844 -0.38 1.286-10.639 3.245-14.253 2.847C68.598 89.758 62.974 88.04 61.752 82.523z" fill="url(#SvgjsRadialGradient4403)" opacity="1"/>
              </g>
              <g id="svga-group-eyesiriswrapper-left" transform="matrix(1,0,0,1,0.25,0.25)">
                <g id="svga-group-eyesiriscontrol-left" transform="matrix(1,0,0,1,0,0)">
                  <g id="svga-group-eyesiris-left" transform="matrix(1,0,0,1,0,0)">
                    <path id="SvgjsPath4694" d="M79.788 85.588c-0.869 3.192-4.162 5.073-7.361 4.196 -3.197-0.876-5.084-4.178-4.214-7.371 0.869-3.195 4.168-5.076 7.365-4.198C78.772 79.09 80.659 82.392 79.788 85.588z" fill="#4e60a3" stroke="#152975" stroke-width="0.5" opacity="1"/>
                    <path id="SvgjsPath4695" d="M78.855 85.662c-0.849 2.452-3.407 3.881-5.899 3.199 -2.3-0.631-3.752-2.838-3.563-5.171 0.853-0.067 1.787-0.087 2.756-0.04 -0.01 0.033-0.027 0.062-0.036 0.096 -0.306 1.125 0.407 2.305 1.592 2.63 1.189 0.326 2.401-0.326 2.707-1.451 0.039-0.147 0.06-0.294 0.065-0.439C77.29 84.782 78.088 85.165 78.855 85.662z" fill="#6777b2" stroke-width="none" opacity="1"/>
                    <path id="SvgjsPath4696" d="M74.813 82.21c-1.203-0.344-2.429 0.342-2.739 1.54 -0.311 1.191 0.412 2.438 1.614 2.783 1.204 0.345 2.43-0.342 2.741-1.534C76.742 83.801 76.016 82.555 74.813 82.21zM75.075 86.442c-0.5 0.156-1.017-0.051-1.154-0.462 -0.133-0.411 0.163-0.867 0.667-1.019 0.503-0.156 1.019 0.051 1.157 0.459C75.881 85.831 75.582 86.287 75.075 86.442z" fill="#000000" stroke-width="none" opacity="0.9"/>
                    <path id="SvgjsPath4697" d="M70.811 87.159c-0.37 0.222-0.922 0.023-1.238-0.447 -0.316-0.466-0.269-1.024 0.102-1.247 0.368-0.219 0.925-0.021 1.239 0.446C71.226 86.378 71.181 86.938 70.811 87.159z" fill="#ffffff" stroke-width="none" opacity="0.6"/>
                    <path id="SvgjsPath4698" d="M78.71 83.74c-0.846 0.507-2.117 0.051-2.837-1.02 -0.72-1.072-0.612-2.352 0.234-2.857 0.844-0.509 2.118-0.053 2.834 1.019C79.66 81.954 79.556 83.232 78.71 83.74z" fill="#ffffff" stroke-width="none" opacity="0.8"/>
                  </g>
                </g>
              </g>
              <g id="svga-group-eyesfront-left">
                <path id="SvgjsPath4424" d="M53.294 83c0.809 10.899 11.637 23.583 20.506 22.236 10.498 0.106 20.864-7.868 20.864-22.305s-5.087-26.528-21.127-26.528C62.037 56.402 53.294 68.563 53.294 83zM61.752 82.523c-0.506-2.285 5.191-3.973 12.711-3.051 7.518 0.923 12.738 5.524 12.052 7.844 -0.38 1.286-10.639 3.245-14.253 2.847C68.598 89.758 62.974 88.04 61.752 82.523z" fill="#f0c7b1" stroke-width="none" opacity="1"/>
                <path id="SvgjsPath4425" d="M72.262 90.163c3.614 0.398 13.873-1.561 14.253-2.847 0.687-2.32-4.534-6.921-12.052-7.844C68.003 78.68 62.9 79.816 61.907 81.6c0.898-6.4 7.7-11.397 15.987-11.434 8.911-0.037 16.148 5.676 16.172 12.765 0.021 7.088-7.185 12.862-16.095 12.902 -8.913 0.037-16.149-5.676-16.173-12.764 0-0.105 0.016-0.208 0.019-0.313C63.147 88.083 68.651 89.764 72.262 90.163z" fill="url(#SvgjsRadialGradient4426)" opacity="1"/>
                <path id="SvgjsPath4430" d="M61.752 82.523c-0.506-2.285 5.191-3.973 12.711-3.051 7.518 0.923 12.738 5.524 12.052 7.844 -0.38 1.286-10.639 3.245-14.253 2.847C68.598 89.758 62.974 88.04 61.752 82.523z" fill="url(#SvgjsRadialGradient4431)" opacity="1"/>
                <path id="SvgjsPath4434" d="M62.148 77.417c4.208-1.978 9.35-2.16 13.838-1.005 2.404 0.561 4.965 1.285 7.063 2.638 1.945 1.135 3.525 2.5 5.002 4.19 -1.342-1.701-2.773-3.118-4.623-4.27 -2.276-1.416-4.769-2.294-7.364-2.916C71.478 74.928 66.342 75.184 62.148 77.417z" fill="#c27b55" stroke-width="none" opacity="1"/>
                <path id="SvgjsPath4435" d="M62.769 78.02c0.88-0.352 4.065-1 5.456-1.066 1.687-0.082 5.073 0.125 6.735 0.424 3.374 0.608 9.251 2.483 11.678 7.184 0.746 1.445 0.074 2.456-0.123 2.675 0.3-2.426-4.838-6.746-12.052-7.604 -7.52-0.894-13.217 0.743-12.711 2.958 1.222 5.348 6.846 7.013 10.51 7.405 4.099 0.439 11.684-1.539 12.686-1.753 -1.999 1.009-7.524 2.095-9.767 2.303 -0.744 0.07-2.24 0.104-2.986 0.085 -5.949-0.158-10.169-3.175-11.729-7.26C59.464 80.745 60.56 78.902 62.769 78.02z" fill="#000000" stroke-width="none" opacity="1"/>
              </g>
            </g>
          </g>
          <g id="svga-group-eyes-right-move" transform="matrix(1,0,0,1,0,0)">
            <g id="svga-group-eyes-right" transform="matrix(1,0,0,1,0,0)">
              <g id="svga-group-eyesback-right">
                <path id="SvgjsPath4409" d="M137.849 82.523c0.506-2.285-5.191-3.973-12.711-3.051 -7.518 0.923-12.738 5.524-12.052 7.844 0.38 1.286 10.639 3.245 14.253 2.847C131.003 89.758 136.627 88.04 137.849 82.523z" fill="url(#SvgjsRadialGradient4410)" opacity="1"/>
              </g>
              <g id="svga-group-eyesiriswrapper-right" transform="matrix(1,0,0,1,-0.25,0.25)">
                <g id="svga-group-eyesiriscontrol-right" transform="matrix(1,0,0,1,0,0)">
                  <g id="svga-group-eyesiris-right" transform="matrix(1,0,0,1,0,0)">
                    <path id="SvgjsPath4699" d="M131.788 85.588c-0.869 3.192-4.162 5.073-7.362 4.196 -3.196-0.876-5.084-4.178-4.214-7.371 0.869-3.195 4.169-5.076 7.365-4.198C130.772 79.09 132.658 82.392 131.788 85.588z" fill="#4e60a3" stroke="#152975" stroke-width="0.5" opacity="1"/>
                    <path id="SvgjsPath4700" d="M130.855 85.662c-0.849 2.452-3.408 3.881-5.899 3.199 -2.3-0.631-3.753-2.838-3.563-5.171 0.854-0.067 1.787-0.087 2.756-0.04 -0.01 0.033-0.027 0.062-0.036 0.096 -0.306 1.125 0.407 2.305 1.593 2.63 1.189 0.326 2.401-0.326 2.707-1.451 0.038-0.147 0.06-0.294 0.065-0.439C129.29 84.782 130.089 85.165 130.855 85.662z" fill="#6777b2" stroke-width="none" opacity="1"/>
                    <path id="SvgjsPath4701" d="M126.813 82.21c-1.202-0.344-2.429 0.342-2.738 1.54 -0.312 1.191 0.412 2.438 1.613 2.783 1.204 0.345 2.431-0.342 2.742-1.534C128.741 83.801 128.016 82.555 126.813 82.21zM127.075 86.442c-0.5 0.156-1.018-0.051-1.154-0.462 -0.133-0.411 0.163-0.867 0.667-1.019 0.503-0.156 1.019 0.051 1.157 0.459C127.881 85.831 127.582 86.287 127.075 86.442z" fill="#000000" stroke-width="none" opacity="0.9"/>
                    <path id="SvgjsPath4702" d="M122.812 87.159c-0.37 0.222-0.923 0.023-1.238-0.447 -0.316-0.466-0.27-1.024 0.102-1.247 0.367-0.219 0.926-0.021 1.239 0.446C123.227 86.378 123.181 86.938 122.812 87.159z" fill="#ffffff" stroke-width="none" opacity="0.6"/>
                    <path id="SvgjsPath4703" d="M130.71 83.74c-0.846 0.507-2.116 0.051-2.837-1.02 -0.72-1.072-0.612-2.352 0.234-2.857 0.845-0.509 2.117-0.053 2.834 1.019C131.66 81.954 131.557 83.232 130.71 83.74z" fill="#ffffff" stroke-width="none" opacity="0.8"/>
                  </g>
                </g>
              </g>
              <g id="svga-group-eyesfront-right">
                <path id="SvgjsPath4444" d="M126.063 56.402c-16.04 0-21.127 12.091-21.127 26.528s10.366 22.412 20.864 22.305c8.869 1.347 19.697-11.337 20.506-22.236C146.307 68.563 137.563 56.402 126.063 56.402zM127.339 90.163c-3.614 0.398-13.873-1.561-14.253-2.847 -0.687-2.32 4.534-6.921 12.052-7.844 7.52-0.922 13.217 0.767 12.711 3.051C136.627 88.04 131.003 89.758 127.339 90.163z" fill="#f0c7b1" stroke-width="none" opacity="1"/>
                <path id="SvgjsPath4445" d="M127.339 90.163c-3.614 0.398-13.873-1.561-14.253-2.847 -0.687-2.32 4.534-6.921 12.052-7.844 6.46-0.792 11.563 0.345 12.556 2.128 -0.898-6.4-7.7-11.397-15.987-11.434 -8.911-0.037-16.148 5.676-16.172 12.765 -0.021 7.088 7.185 12.862 16.095 12.902 8.913 0.037 16.149-5.676 16.173-12.764 0-0.105-0.016-0.208-0.019-0.313C136.453 88.083 130.949 89.764 127.339 90.163z" fill="url(#SvgjsRadialGradient4446)" opacity="1"/>
                <path id="SvgjsPath4450" d="M137.849 82.523c0.506-2.285-5.191-3.973-12.711-3.051 -7.518 0.923-12.738 5.524-12.052 7.844 0.38 1.286 10.639 3.245 14.253 2.847C131.003 89.758 136.627 88.04 137.849 82.523z" fill="url(#SvgjsRadialGradient4451)" opacity="1"/>
                <path id="SvgjsPath4454" d="M137.452 77.417c-4.208-1.978-9.35-2.16-13.838-1.005 -2.404 0.561-4.965 1.285-7.063 2.638 -1.945 1.135-3.525 2.5-5.002 4.19 1.342-1.701 2.773-3.118 4.623-4.27 2.276-1.416 4.769-2.294 7.364-2.916C128.123 74.928 133.259 75.184 137.452 77.417z" fill="#c27b55" stroke-width="none" opacity="1"/>
                <path id="SvgjsPath4455" d="M136.832 78.02c-0.88-0.352-4.065-1-5.456-1.066 -1.687-0.082-5.073 0.125-6.735 0.424 -3.374 0.608-9.251 2.483-11.678 7.184 -0.746 1.445-0.074 2.456 0.123 2.675 -0.3-2.426 4.838-6.746 12.052-7.604 7.52-0.894 13.217 0.743 12.711 2.958 -1.222 5.348-6.846 7.013-10.51 7.405 -4.099 0.439-11.684-1.539-12.686-1.753 1.999 1.009 7.524 2.095 9.767 2.303 0.744 0.07 2.24 0.104 2.986 0.085 5.949-0.158 10.169-3.175 11.729-7.26C140.137 80.745 139.041 78.902 136.832 78.02z" fill="#000000" stroke-width="none" opacity="1"/>
              </g>
            </g>
          </g>
          <g id="svga-group-facehighlight-single">
            <path id="SvgjsPath2906" d="M141 113.974c0.035 22.622-18.292 40.994-40.938 41.025 -22.642 0.037-41.028-18.273-41.063-40.9 -0.035-22.62 18.292-41.064 40.937-41.1C122.579 72.964 140.967 91.349 141 113.974z" fill="url(#SvgjsRadialGradient2907)" opacity="1"/>
            <path id="SvgjsPath2910" d="M137.5 53.999c0 20.711-16.789 37.5-37.499 37.5 -20.711 0-37.501-16.789-37.501-37.5s16.79-37.5 37.501-37.5C120.711 16.499 137.5 33.288 137.5 53.999z" fill="url(#SvgjsRadialGradient2911)" opacity="1"/>
          </g>
          <g id="svga-group-eyebrows-left-move" transform="matrix(1,0,0,1,0,0)">
            <g id="svga-group-eyebrows-left-rotate" transform="matrix(1,0,0,1,0,0)">
              <g id="svga-group-eyebrows-left" transform="matrix(1,0,0,1,0,0)">
                <path id="SvgjsPath4724" d="M54 74.189c9.954-9.974 16.761-5.915 30.589-3.264 0.845 0.162 6.32 1.539 5.31 3.469 -0.483 0.924-2.036 0.814-2.903 0.798C73.308 74.936 66.652 65.197 54 74.189z" fill="#2a232b" stroke-width="none" opacity="1"/>
              </g>
            </g>
          </g>
          <g id="svga-group-eyebrows-right-move" transform="matrix(1,0,0,1,0,0)">
            <g id="svga-group-eyebrows-right-rotate" transform="matrix(1,0,0,1,0,0)">
              <g id="svga-group-eyebrows-right" transform="matrix(1,0,0,1,0,0)">
                <path id="SvgjsPath4725" d="M146 74.189c-9.953-9.974-16.761-5.915-30.589-3.264 -0.846 0.162-6.32 1.539-5.311 3.469 0.483 0.924 2.036 0.814 2.903 0.798C126.691 74.936 133.348 65.197 146 74.189z" fill="#2a232b" stroke-width="none" opacity="1"/>
              </g>
            </g>
          </g>
          <g id="svga-group-nose-single-move" transform="matrix(1,0,0,1,0,0)">
            <g id="svga-group-nose-single" transform="matrix(1,0,0,1,0,0)">
              <path id="SvgjsPath3044" d="M91.115 115.499c-0.878 2.064 5.934 4.292 8.519 4.429 2.8 0.147 10.646-2.9 9.316-4.992 -1.399-2.195-6.643-0.286-8.906-0.286C97.792 114.649 92.291 112.745 91.115 115.499z" fill="#e1ac8f" stroke-width="none" opacity="1" stroke="none"/>
              <path id="SvgjsPath3045" d="M101.857 117.058c-0.23-0.759 1.876-1.584 2.657-1.694 1.101-0.16 3.36 0.802 3.158 1.592 -0.184 0.698-2.148-0.533-2.86-0.429C104.078 116.634 102.075 117.769 101.857 117.058zM94.974 116.811c0.968 0 2.404 0.623 2.668 0.074 0.315-0.655-2.139-1.461-2.86-1.372 -0.596 0.07-2.733 1.315-2.439 1.839C92.617 117.833 93.698 116.811 94.974 116.811z" fill="#c27b55" stroke-width="none" opacity="1" stroke="none"/>
              <path id="SvgjsPath3046" d="M100.089 111.999c0.607 0 1.742-0.74 1.792-2.23 0.201-6.008-0.956-23.833-1.792-23.77 -0.78 0.059-2.267 17.637-1.948 23.77C98.22 111.271 99.404 111.999 100.089 111.999z" fill="#fff5ef" stroke-width="none" opacity="0.2" stroke="none"/>
            </g>
          </g>
          <g id="svga-group-beardwrap" transform="matrix(1,0,0,1,0,0)">
            <g id="svga-group-beard-single-move" transform="matrix(1,0,0,1,0,0)">
              <g id="svga-group-beard-single" transform="matrix(1,0,0,1,0,0)">
                <path id="SvgjsPath3155" d="M100,18.13L100,18.13L100,18.13L100,18.13z" fill="#2a232b" stroke-width="none" opacity="1"/>
              </g>
            </g>
          </g>
          <g id="svga-group-mustache-single-move" transform="matrix(1,0,0,1,0,0)">
            <g id="svga-group-mustache-single" transform="matrix(1,0,0,1,0,0)">
              <path id="SvgjsPath3153" d="M100,18.13L100,18.13L100,18.13L100,18.13z" fill="#2a232b" stroke-width="none" opacity="1"/>
            </g>
          </g>
          <g id="svga-group-hair-front" transform="matrix(1,0,0,1,0,0)">
            <path id="SvgjsPath3265" d="M81.229 37.267c12.868-1.984 19.271-3.835 26.7-2.011 17.444-4.256 44.396 12.821 44.058 12.472L141.505 9.063 88.143 6.881 81.229 37.267z" fill="#16130f" stroke-width="none" opacity="1" stroke="none"/>
            <path id="SvgjsPath3266" d="M50.214 85.807c2.957 4.436 8.314 11.276 12.339 14.709 -2.166-5.199-11.455-39.957-5.884-58.116 6.415 19.058 17.901 30.843 28.959 35.166C90.152 84 96.677 90.884 102.587 95.204c-3.693-7.418-14.389-22.06-13.441-31.808 6.019 10.762 17.187 23.032 22.754 24.513C94.746 59.06 87.155 30.495 98.25 19.439c3.388 2.466 7.684 11.057 9.76 16.067 3.816-6.809 15.501-21.191 21.898-17.104 3.72 0.333 4.728 10.728 7.586 22.708 4.045 16.953 10.875 32.875-4.194 59.398 11.119-7.509 12.444-18.398 15.07-22.79 4.999 10.392-18.126 49.618-21.001 53.267C141.619 122.75 151.022 102.456 154 95c13.552-33.93 9.558-52.597 1.728-83.436 -7.896-9.581-18.07-17.045-29.498-21.929 -19.196-8.478-46.619-8.019-66.12-0.95 -23.241 8.537-45.426 35.3-44.1 59.82 0.534-2.312 1.689-7.771 3.347-10.7 4.39-7.421 7.084-12.414 19.143-22.311 -4.311 7.94-9.086 17.787-11.97 26.22 -0.379 1.2-0.099-0.002-0.92 3.19 -4.831 19.61-4.502 36.043 4.05 57.6 0-0.617-0.12-5.095-0.21-6.84 -0.829-30.82-3.078-26.765 4.546-46.484 -1.788 11.785-5.229 15.159 3.954 54.514 2.669 11.057 7.916 20.029 9.11 21.63 2.258 3.269 11.117 15.923 14.49 20.58 -0.205-0.998-3.327-14.442-3.46-15.01 0.075 0.201 0.149 0.398 0.224 0.6C54.358 117.327 49.203 101.373 50.214 85.807z" fill="#35322f" stroke-width="none" opacity="1" stroke="none"/>
            <path id="SvgjsPath3267" d="M155.728 11.564c-1.649-2.001-3.403-3.904-5.241-5.716 11.457 21.016 11.061 63.695 0.934 85.15 7.038-29.279 4.398-51.764-3.538-68.978 1.987 16.464 2.237 31.978-1.69 49.464 -1.172-27.563-6.817-57.424-16.322-59.923 -10.977-2.886-15.539 8.058-20.769 13.673 -0.173-8.436-7.063-13.397-11.004-11.641 -9.891 4.408-8.668 29.141-6.553 40.405 -8.174-20.514-3.401-27.292-2.115-43.828 -13 15-12.089 31.694-7.428 48.829 -11-19-8-43 7-59C67.229 10.592 59.735 34.63 70.185 59.893 58.097 42.439 64.788 21.31 67.229 3.625 52.156 34.975 45.806 45.856 50.778 77c-13.436-30.542 1.965-56.832 9.727-69.149 -6 4-13.519 12.6-17.765 22.646C44.692 23.606 51.123 11.063 59 6c-13.274 4.286-19.292 15.971-22.461 23.692C41.606 7.936 59.577 3.009 66.338-2.241 46.903-0.249 37.683 11.521 30.683 17.521 39.525 3.052 51.008-4.183 69.016-13.938c-3.097 0.738-6.091 1.604-8.907 2.624 -23.241 8.537-45.426 35.3-44.1 59.82 0.534-2.312 1.689-7.771 3.347-10.7 4.39-7.421 7.084-12.414 19.143-22.311 -4.311 7.94-9.086 17.787-11.97 26.22 -0.379 1.2-0.099-0.002-0.92 3.19 -4.831 19.61-4.502 36.043 4.05 57.6 0-0.617-0.12-5.095-0.21-6.84 -0.829-30.82-3.078-26.765 4.546-46.484 -1.788 11.785-5.229 15.159 3.954 54.514 2.669 11.057 7.916 20.029 9.11 21.63 2.258 3.269 11.117 15.923 14.49 20.58 -0.205-0.998-3.327-14.442-3.46-15.01 0.075 0.201 0.149 0.398 0.224 0.6 -3.956-14.168-9.11-30.122-8.1-45.688 2.957 4.436 8.314 11.276 12.339 14.709 -2.166-5.199-11.455-39.957-5.884-58.116 6.415 19.058 17.901 30.843 28.959 35.166C90.152 84 96.677 90.884 102.587 95.204c-3.693-7.418-14.389-22.06-13.441-31.808 6.019 10.762 17.187 23.032 22.754 24.513C94.746 59.06 87.155 30.495 98.25 19.439c3.165 2.303 7.121 9.95 9.321 15.031 0.018-1.067 0.018-1.067 0 0 0.155 0.358 0.303 0.706 0.439 1.036 3.816-6.809 15.501-21.191 21.898-17.104 3.72 0.333 4.728 10.728 7.586 22.708 4.045 16.953 10.875 32.875-4.194 59.398 11.119-7.509 12.444-18.398 15.07-22.79 4.999 10.392-18.126 49.618-21.001 53.267C141.619 122.75 151.022 102.456 154 95 167.552 61.07 163.558 42.403 155.728 11.564z" fill="#26221e" stroke-width="none" opacity="1" stroke="none"/>
            <path id="SvgjsPath3268" d="M54.619 131.235c-4.236-6.189-8.827-15.104-12.867-30.5 0 0-0.333-1.27-0.799-3.182 -4.715-19.148-7.161-35.212-2.584-50.318 -2.627 11.899-1.206 21.003 0.692 32.688C41.148 92.628 46.781 117.201 54.619 131.235zM33.619 36.485c-5.395 14.443-7.984 24.807-7.5 39C26.623 65.374 27.51 57.158 33.619 36.485zM55.619 38.985c-2.777 13.875-4.327 20.931-1.716 33.45 1.867 9.42 3.447 14.162 6.216 23.3C52.657 61.519 52.504 64.386 55.619 38.985zM72.869 41.735c1.788 20.072 12.09 36.972 27.25 50.5C86.549 77.997 75.978 60.925 72.869 41.735zM85.619 47.235c5.267 19.48 9.782 27.643 25.61 39.93C96.521 73.738 92.827 67.68 85.619 47.235zM165.804 32.739c-0.605-1.818-6.422-13.972-13.814-22.025 5.357 6.684 9.14 14.642 12.457 21.823 0.001 0 0.112 0.219 0.249 0.629 4.96 13.976 5.59 33.072 5.089 39.832C171.294 63.328 170.692 46.457 165.804 32.739zM152.88 94.235c-4.602 8.878-6.871 12.852-7.598 14.196 0.001 0-0.066 0.145-0.216 0.378 -7.072 11.362-8.508 11.86-15.897 20.216C140.68 117.921 143.675 115.46 152.88 94.235zM143.299 67.99c0.153 13.452-2.029 20.352-9.018 31.167C141.371 89.838 144.452 82.171 143.299 67.99zM53.368 117.333c0 0-0.196-0.748-0.432-1.883 -3.218-15.218-3.527-22.919-3.817-29.715 -0.429 13.946 0.793 27.354 8.5 50.75C57.619 136.485 55.753 127.676 53.368 117.333zM28.804 16.079c3.802-5.144 5.058-6.782 9.815-11.093 -8.532 6.663-14.775 14.633-19.724 29.688 -0.392 1.132-0.346 1.071-0.776 3.062C20.969 28.461 28.804 15.473 28.804 16.079zM57.429 41.485c4.052 13.7 12.798 26.843 25.671 34C71.097 67.419 62.26 54.079 57.429 41.485zM134.553 14.582c-1.265-1.483-2.858-2.238-4.327-2.826 1 0.481 1.648 0.748 2.607 1.548 1.106 1.053 2.361 2.361 3.324 4.244 5.606 10.221 9.457 41.919 10.297 52.955C146.421 59.6 143.574 24.02 134.553 14.582zM97.769 13.216c4.979 0.069 8.812 0.213 12.009 12.171C107.379 12.334 101.588 13.007 97.769 13.216zM89.335-0.068C80.56 6.535 75.979 18.659 75.792 29.408 76.833 18.938 81.454 6.861 89.335-0.068z" fill="#444443" stroke-width="none" opacity="1" stroke="none"/>
            <path id="SvgjsPath3269" d="M155.831 11.662c-7.896-9.582-18.174-17.143-29.602-22.027 -19.196-8.478-46.619-8.019-66.12-0.95 -23.241 8.537-45.426 35.3-44.1 59.82 2.566-11.025 8.714-20.72 22.49-33.01 -4.311 7.94-9.086 17.787-11.97 26.22 -0.379 1.2-0.099-0.002-0.92 3.19 -4.831 19.61-4.502 36.043 4.05 57.6 0-0.617-0.12-5.095-0.21-6.84 -0.829-30.82 0.813-32.675 5.837-51.161 -3.8 12.478-6.519 19.835 2.663 59.19 2.669 11.057 7.916 20.029 9.11 21.63 2.258 3.269 11.117 15.923 14.49 20.58 -0.206-1-11.993-45.903-11.29-58.21 3.365 4.433 9.484 11.38 13.86 14.88 -2.168-6.381-5.93-23.423-6.5-27.07 -0.09-0.65-0.22-1.57-0.38-2.68 -1.189-7.291-1.932-21.021-0.26-29.18 1.481 5.059 4.965 13.05 8.2 17.43 6.745 9.379 9.956 11.43 19.71 16.9 6.016 8.228 11.756 13.338 19.13 18.68 -11.845-20.011-13.297-24.944-14.49-32.12 5.456 11.223 12.598 19.667 23.689 24.61 -8.703-17.044-22.838-44.488-17.459-62.38 0.946-3.081 2.045-5.154 2.57-5.85v-0.02c0.068-0.147 0.06-0.129 0.1-0.2 1.688 1.205 7.787 9.563 9.5 15.56 0.011-0.01 0.011-0.02 0.021-0.03 1.267-2.533 4.484-7.169 7.729-10.56 16.615-16.613 16.758-2.04 18.721 7.41 8.082 32.594 11.446 46.342-3.431 69.58 8.596-3.947 15.656-15.089 17.521-24.45 -3.159 23.102-11.221 34.676-23.69 55.74 2.91-2.089 2.59-1.882 3.59-2.61 32.326-22.212 42.264-80.399 30.242-102.902 8.775 19.989 0.511 75.588-29.771 101.052 19.955-29.485 20.537-43.486 22.56-65.62 1.35-14.309 0.449-18.735-0.479-23.47 0.543 4.677 0.84 7.448-0.261 17.42 -1.973 15.043-4.987 31.514-16.689 41.79 13.733-20.855 10.343-35.993 2.68-65.98 -1.979-7.784-2.434-23.397-15.47-14.3 -5.16 3.425-10.166 10.124-12.99 15.68 -1.562-5.649-4.792-11.777-9.97-17.24 -0.02-0.02-0.05-0.07-0.07-0.06 -1.822 2.912-10.67 11.246-2.61 37.07 3.86 12.465 9.448 22.083 15.67 32.39 -13.746-7.828-28.114-32.458-26.791-51.62 0.313-5.359 1.382-12.417 1.22-17.9 -0.807 13.3-5.346 21.354-0.98 34.6 0 0 1.26 4.12 3.15 8.55 0.561 13.101 6.94 22.296 13.94 33.65 -17.286-15.125-27.847-36.655-30.3-57.9 -0.6-8.81 3.465-23.018 7.2-25.15 -3.907 2.627-8.805 12.239-9.31 23.48 -0.385 10.926 6.498 30.484 14.2 41.27 -9.374-6.058-18.5-12.899-26.13-34.66 1.899-8.935 4.806-14.084 5.6-25.91 -1.883 12.57-4.897 15.589-8.03 28.11 -2.011 7.073-2.438 30.361 6.75 55.33 -5.463-6.071-14.528-19.557-16.93-27.3 -8.496-22.848 3.521-47.839 6.52-51.8 1.659-2.32 4.089-4.836 5.07-7.43 -3.984 6.947-6.792 4.377-14.27 24.56 -3.99 11.964-3.175 25.464 0.46 35.44 1.321 3.516 4.859 9.505 6.88 14.2 -1.688 13.469 5.969 41.852 9.82 54.5 -10.324-16.373-17.78-24.85-22.22-53.02 -3.586-22.754-7.284-36.619 11.98-75.14 -3.442 6.136-5.164 9.043-9.13 17.13l-0.01 0.01c-9.9 20.647-13.651 35.24-12.38 60.03 -6.982-29.604 0.523-49.203 13.14-76.29C42.383 11.562 54.786 3.262 59.629 0c-4.802 2.877-35.973 19.182-42.84 43.215C19.123 22.46 38.134-1.463 60.599-9.475c18.812-6.53 46.021-7.101 64.75 1.18 12.789 5.481 23.954 14.45 31.83 25.437L155.831 11.662z" fill="#070604" stroke-width="none" opacity="1" stroke="none"/>
          </g>
          <g id="svga-group-glasses-single-move" transform="matrix(1,0,0,1,0,0)">
            <g id="svga-group-glasses-single" transform="matrix(1,0,0,1,0,0)">
              <path id="SvgjsPath4760" d="M100,18.13L100,18.13L100,18.13L100,18.13z" fill="#26120b" stroke-width="none" opacity="1"/>
            </g>
          </g>
        </g>
      </g>
    </g>
    <rect id="SvgjsRect1057" width="200" height="15" x="0" y="185" fill="#ecf0f1" opacity="0.5" style="display: none;"/>
    <text id="SvgjsText1058" font-family="Roboto, Helvetica, Arial, sans-serif" font-size="10px" text-anchor="start" font-weight="400" anchor="start" fill="#333333" x="38.69989776611328" y="182.42827010154724" style="display: none;">
      <tspan id="SvgjsTspan1059" dy="13" x="38.69989776611328">Created on svgAvatars.com</tspan>
    </text>
  </g>
</svg>
