<svg xmlns="http://www.w3.org/2000/svg" width="500" height="500" version="1.1" viewBox="0 0 200 200" style="overflow:hidden!important"><defs id="SvgjsDefs13729"><radialGradient id="SvgjsRadialGradient13795" cx="100" cy="114" r="41" class="svga-on-canvas-facehighlight-gradient-single-0" gradientUnits="userSpaceOnUse"><stop id="SvgjsStop13796" offset="0" stop-color="#fdc5a5" stop-opacity=".5"/><stop id="SvgjsStop13797" offset=".9" stop-color="#eeaa83" stop-opacity="0"/></radialGradient><radialGradient id="SvgjsRadialGradient13799" cx="100" cy="54" r="37" class="svga-on-canvas-facehighlight-gradient-single-1" gradientUnits="userSpaceOnUse"><stop id="SvgjsStop13800" offset="0" stop-color="#fdc5a5" stop-opacity=".5"/><stop id="SvgjsStop13801" offset=".9" stop-color="#eeaa83" stop-opacity="0"/></radialGradient><radialGradient id="SvgjsRadialGradient13884" cx="-568.659" cy="-521.042" r="59.751" class="svga-on-canvas-eyesiris-gradient-left-1" gradientTransform="matrix(0.096 -0.0248 0.0245 0.0961 141.2814 119.9893)" gradientUnits="userSpaceOnUse"><stop id="SvgjsStop13885" offset="0" stop-color="#fff" stop-opacity="1"/><stop id="SvgjsStop13886" offset="1" stop-color="#fff" stop-opacity="0"/></radialGradient><radialGradient id="SvgjsRadialGradient13888" cx="-582.838" cy="-519.099" r="59.745" class="svga-on-canvas-eyesiris-gradient-left-2" gradientTransform="matrix(0.0991 8.856319e-004 -0.0011 0.0991 131.1134 135.9855)" gradientUnits="userSpaceOnUse"><stop id="SvgjsStop13889" offset="0" stop-color="#fff" stop-opacity="1"/><stop id="SvgjsStop13890" offset="1" stop-color="#fff" stop-opacity="0"/></radialGradient><linearGradient id="SvgjsLinearGradient13894" x1="122.67" x2="123.606" y1="88.268" y2="87.152" class="svga-on-canvas-eyesiris-gradient-left-5" gradientTransform="matrix(1 0 0 1 -52 0)" gradientUnits="userSpaceOnUse"><stop id="SvgjsStop13895" offset="0" stop-color="#fff" stop-opacity="1"/><stop id="SvgjsStop13896" offset="1" stop-color="#fff" stop-opacity="0"/></linearGradient><linearGradient id="SvgjsLinearGradient13898" x1="127.212" x2="126.463" y1="82.296" y2="83.189" class="svga-on-canvas-eyesiris-gradient-left-6" gradientTransform="matrix(1 0 0 1 -52 0)" gradientUnits="userSpaceOnUse"><stop id="SvgjsStop13899" offset="0" stop-color="#fff" stop-opacity="1"/><stop id="SvgjsStop13900" offset="1" stop-color="#fff" stop-opacity="0"/></linearGradient><linearGradient id="SvgjsLinearGradient13902" x1="129.636" x2="127.91" y1="79.822" y2="81.879" class="svga-on-canvas-eyesiris-gradient-left-7" gradientTransform="matrix(1 0 0 1 -52 0)" gradientUnits="userSpaceOnUse"><stop id="SvgjsStop13903" offset="0" stop-color="#fff" stop-opacity="1"/><stop id="SvgjsStop13904" offset="1" stop-color="#fff" stop-opacity="0"/></linearGradient><radialGradient id="SvgjsRadialGradient13907" cx="-568.654" cy="-521.042" r="59.752" class="svga-on-canvas-eyesiris-gradient-right-1" gradientTransform="matrix(0.096 -0.0248 0.0245 0.0961 193.2804 119.9894)" gradientUnits="userSpaceOnUse"><stop id="SvgjsStop13908" offset="0" stop-color="#fff" stop-opacity="1"/><stop id="SvgjsStop13909" offset="1" stop-color="#fff" stop-opacity="0"/></radialGradient><radialGradient id="SvgjsRadialGradient13911" cx="-582.833" cy="-519.102" r="59.747" class="svga-on-canvas-eyesiris-gradient-right-2" gradientTransform="matrix(0.0991 8.856319e-004 -0.0011 0.0991 183.1126 135.9856)" gradientUnits="userSpaceOnUse"><stop id="SvgjsStop13912" offset="0" stop-color="#fff" stop-opacity="1"/><stop id="SvgjsStop13913" offset="1" stop-color="#fff" stop-opacity="0"/></radialGradient><linearGradient id="SvgjsLinearGradient13917" x1="122.67" x2="123.606" y1="88.268" y2="87.152" class="svga-on-canvas-eyesiris-gradient-right-5" gradientUnits="userSpaceOnUse"><stop id="SvgjsStop13918" offset="0" stop-color="#fff" stop-opacity="1"/><stop id="SvgjsStop13919" offset="1" stop-color="#fff" stop-opacity="0"/></linearGradient><linearGradient id="SvgjsLinearGradient13921" x1="127.212" x2="126.463" y1="82.296" y2="83.189" class="svga-on-canvas-eyesiris-gradient-right-6" gradientUnits="userSpaceOnUse"><stop id="SvgjsStop13922" offset="0" stop-color="#fff" stop-opacity="1"/><stop id="SvgjsStop13923" offset="1" stop-color="#fff" stop-opacity="0"/></linearGradient><linearGradient id="SvgjsLinearGradient13925" x1="129.636" x2="127.91" y1="79.822" y2="81.879" class="svga-on-canvas-eyesiris-gradient-right-7" gradientUnits="userSpaceOnUse"><stop id="SvgjsStop13926" offset="0" stop-color="#fff" stop-opacity="1"/><stop id="SvgjsStop13927" offset="1" stop-color="#fff" stop-opacity="0"/></linearGradient><radialGradient id="SvgjsRadialGradient13985" cx="126.275" cy="85.349" r="10.629" class="svga-on-canvas-eyesback-gradient-left-0" gradientTransform="matrix(-1 0 0 1 200 0)" gradientUnits="userSpaceOnUse"><stop id="SvgjsStop13986" offset="0" stop-color="#fff" stop-opacity="1"/><stop id="SvgjsStop13987" offset=".544" stop-color="#fdfefe" stop-opacity="1"/><stop id="SvgjsStop13988" offset=".74" stop-color="#f6f8f9" stop-opacity="1"/><stop id="SvgjsStop13989" offset=".879" stop-color="#eaeff2" stop-opacity="1"/><stop id="SvgjsStop13990" offset=".992" stop-color="#d9e3e8" stop-opacity="1"/><stop id="SvgjsStop13991" offset="1" stop-color="#d8e2e7" stop-opacity="1"/></radialGradient><radialGradient id="SvgjsRadialGradient13993" cx="125.875" cy="85.349" r="10.629" class="svga-on-canvas-eyesback-gradient-right-0" gradientUnits="userSpaceOnUse"><stop id="SvgjsStop13994" offset="0" stop-color="#fff" stop-opacity="1"/><stop id="SvgjsStop13995" offset=".544" stop-color="#fdfefe" stop-opacity="1"/><stop id="SvgjsStop13996" offset=".74" stop-color="#f6f8f9" stop-opacity="1"/><stop id="SvgjsStop13997" offset=".879" stop-color="#eaeff2" stop-opacity="1"/><stop id="SvgjsStop13998" offset=".992" stop-color="#d9e3e8" stop-opacity="1"/><stop id="SvgjsStop13999" offset="1" stop-color="#d8e2e7" stop-opacity="1"/></radialGradient><radialGradient id="SvgjsRadialGradient14001" cx="126.275" cy="85.349" r="10.629" class="svga-on-canvas-eyesfront-gradient-left-0" gradientTransform="matrix(-1 0 0 1 200 0)" gradientUnits="userSpaceOnUse"><stop id="SvgjsStop14002" offset="0" stop-color="#fff" stop-opacity="1"/><stop id="SvgjsStop14003" offset=".544" stop-color="#fdfefe" stop-opacity="1"/><stop id="SvgjsStop14004" offset=".74" stop-color="#f6f8f9" stop-opacity="1"/><stop id="SvgjsStop14005" offset=".879" stop-color="#eaeff2" stop-opacity="1"/><stop id="SvgjsStop14006" offset=".992" stop-color="#d9e3e8" stop-opacity="1"/><stop id="SvgjsStop14007" offset="1" stop-color="#d8e2e7" stop-opacity="1"/></radialGradient><radialGradient id="SvgjsRadialGradient14011" cx="123.715" cy="83.955" r="17.219" class="svga-on-canvas-eyesfront-gradient-left-3" fx="135.822" fy="83.989" gradientTransform="matrix(0.9998 0.0206 0.0166 -0.7916 -48.8004 147.8581)" gradientUnits="userSpaceOnUse"><stop id="SvgjsStop14012" offset="0" stop-color="#df9164" stop-opacity="1"/><stop id="SvgjsStop14013" offset=".7" stop-color="#df9164" stop-opacity=".3"/><stop id="SvgjsStop14014" offset="1" stop-color="#eeaa83" stop-opacity="0"/></radialGradient><radialGradient id="SvgjsRadialGradient14016" cx="123.018" cy="104.865" r="27.497" class="svga-on-canvas-eyesfront-gradient-left-4" gradientTransform="matrix(-0.9336 -0.3584 -0.3046 0.7935 223.7724 65.7356)" gradientUnits="userSpaceOnUse"><stop id="SvgjsStop14017" offset=".95" stop-color="#000" stop-opacity="0"/><stop id="SvgjsStop14018" offset="1" stop-color="#000" stop-opacity=".2"/></radialGradient><radialGradient id="SvgjsRadialGradient14022" cx="125.875" cy="85.349" r="10.629" class="svga-on-canvas-eyesfront-gradient-right-0" gradientUnits="userSpaceOnUse"><stop id="SvgjsStop14023" offset="0" stop-color="#fff" stop-opacity="1"/><stop id="SvgjsStop14024" offset=".544" stop-color="#fdfefe" stop-opacity="1"/><stop id="SvgjsStop14025" offset=".74" stop-color="#f6f8f9" stop-opacity="1"/><stop id="SvgjsStop14026" offset=".879" stop-color="#eaeff2" stop-opacity="1"/><stop id="SvgjsStop14027" offset=".992" stop-color="#d9e3e8" stop-opacity="1"/><stop id="SvgjsStop14028" offset="1" stop-color="#d8e2e7" stop-opacity="1"/></radialGradient><radialGradient id="SvgjsRadialGradient14032" cx="123.315" cy="83.955" r="17.219" class="svga-on-canvas-eyesfront-gradient-right-3" fx="135.422" fy="83.989" gradientTransform="matrix(-0.9998 0.0206 -0.0166 -0.7916 248.0017 147.8663)" gradientUnits="userSpaceOnUse"><stop id="SvgjsStop14033" offset="0" stop-color="#df9164" stop-opacity="1"/><stop id="SvgjsStop14034" offset=".7" stop-color="#df9164" stop-opacity=".3"/><stop id="SvgjsStop14035" offset="1" stop-color="#eeaa83" stop-opacity="0"/></radialGradient><radialGradient id="SvgjsRadialGradient14037" cx="122.617" cy="104.865" r="27.498" class="svga-on-canvas-eyesfront-gradient-right-4" gradientTransform="matrix(0.9336 -0.3584 0.3046 0.7935 -23.799 65.5921)" gradientUnits="userSpaceOnUse"><stop id="SvgjsStop14038" offset=".95" stop-color="#000" stop-opacity="0"/><stop id="SvgjsStop14039" offset="1" stop-color="#000" stop-opacity=".2"/></radialGradient><linearGradient id="SvgjsLinearGradient14057" x1="100" x2="100" y1="70" y2="108" class="svga-on-canvas-glasses-gradient-single-0" gradientUnits="userSpaceOnUse"><stop id="SvgjsStop14058" offset="0" stop-color="#0d170a" stop-opacity="1"/><stop id="SvgjsStop14059" offset="1" stop-color="#0d170a" stop-opacity=".5"/></linearGradient><linearGradient id="SvgjsLinearGradient14065" x1="100" x2="100" y1="140" y2="138" class="svga-on-canvas-mouth-gradient-single-0" gradientUnits="userSpaceOnUse"><stop id="SvgjsStop14066" offset=".1" stop-color="#e69d73" stop-opacity="1"/><stop id="SvgjsStop14067" offset="1" stop-color="#df9164" stop-opacity="1"/></linearGradient><linearGradient id="SvgjsLinearGradient14093" x1="100" x2="100" y1="171" y2="130" class="svga-on-canvas-chinshadow-gradient-single-0" gradientUnits="userSpaceOnUse"><stop id="SvgjsStop14094" offset="0" stop-color="#df9164" stop-opacity=".8"/><stop id="SvgjsStop14095" offset=".7" stop-color="#c06530" stop-opacity="1"/></linearGradient></defs><g id="svga-group-wrapper"><g id="svga-group-backs-single"><path id="SvgjsPath14098" fill="#dce4ef" stroke="none" stroke-width="none" d="M225 225H-25V-25h250V225z" opacity="1"/></g><g id="svga-group-humanwrap-move" transform="matrix(1,0,0,1,0,0)"><g id="svga-group-humanwrap" transform="matrix(0.8499995000000001,0,0,0.8499995000000001,14.967237390624987,16.723004961914043)"><g id="svga-group-hair-back-move" transform="matrix(1,0,0,1,0,0)"><g id="svga-group-hair-back" transform="matrix(1,0,0,1,0,0)"><path id="SvgjsPath13962" fill="#3b3128" stroke="none" stroke-width="none" d="M100.5,100.5h-1v-1h1V100.5z" opacity="1"/></g></g><g id="svga-group-humanbody-single"><path id="SvgjsPath13802" fill="#eeaa83" stroke="none" stroke-width="none" d="M195.417 199.778c-2.196-4.746-8.195-11.779-14.86-13.722 -8.239-2.403-26.837-5.308-33.733-6.923 -5.528-1.296-16.662-11.294-20.564-14.65 -0.7-0.6-1.273-1.839-1.287-2.76 -0.139-10.864 4.195-39.724 4.195-39.724H100 70.833c0 0 4.334 28.859 4.193 39.724 -0.011 0.921-0.587 2.16-1.285 2.76 -3.902 3.356-15.036 13.354-20.564 14.65 -6.897 1.615-25.495 4.619-33.733 7.022 -6.667 1.942-12.664 8.876-14.86 13.622 -3.708 8.008-4.584 22.5-4.584 35h100 100C200 222.278 199.123 207.786 195.417 199.778z" opacity="1"/><path id="SvgjsPath13803" fill="#fdc5a5" stroke="none" stroke-width="none" d="M159.156 184.058c24.342 3.542 34.586 8.708 37.794 50.721H200c0-12.5-0.877-26.992-4.583-35 -2.196-4.746-8.195-11.779-14.86-13.722 -8.239-2.403-26.837-5.308-33.733-6.923 -5.528-1.296-18.242-12.069-21.643-16.35 3.36 4.704 12.791 15.605 21.054 18.46C150.188 182.61 153.48 183.232 159.156 184.058zM53.766 181.244c8.263-2.854 17.693-13.756 21.054-18.46 -3.4 4.28-16.114 15.054-21.643 16.35 -6.896 1.615-25.494 4.619-33.733 7.022 -6.665 1.942-12.664 8.876-14.86 13.622 -3.706 8.008-4.583 22.5-4.583 35h3.05c3.188-41.744 13.475-47.183 37.794-50.721C46.52 183.232 49.813 182.61 53.766 181.244z" opacity="1"/><path id="SvgjsPath13804" fill="#df9164" stroke="none" stroke-width="none" d="M95.646 197.62c0 0-5.074-1.609-7.083-2.379 -10.449-4.009-44.395-6.607-44.395-6.607s35.754 1.419 43.644 2.779c-0.458-4.767-3.017-20.004-3.017-20.004s5.149 16.815 6.409 21.057C91.878 194.734 95.646 197.62 95.646 197.62zM106.445 196.278c-0.089 0.073-0.191 0.168-0.302 0.268C106.256 196.461 106.358 196.372 106.445 196.278zM95.646 197.62c0 0 2.893 2.992 4.347 3.03 1.91 0.051 4.828-2.899 6.151-4.104 -1.265 0.957-4.159 1.391-5.31 1.436C99.504 198.033 95.646 197.62 95.646 197.62zM116.664 190.101c-1.545 0.248-4.386 0.789-4.386 0.789l2.287-14.89c-0.646 3.071-4.474 16.211-8.12 20.278 1.91-1.616 6.158-2.391 8.324-2.704 10.236-1.484 10.232-1.483 41.062-4.94C155.831 188.634 126.76 188.479 116.664 190.101z" opacity="1"/><path id="SvgjsPath13805" fill="none" stroke="#c06530" stroke-width="1.5" d="M195.417 199.778c-2.196-4.746-8.195-11.779-14.86-13.722 -8.239-2.403-26.837-5.308-33.733-6.923 -5.528-1.296-16.662-11.294-20.564-14.65 -0.7-0.6-1.273-1.839-1.287-2.76 -0.139-10.864 4.195-39.724 4.195-39.724H100 70.833c0 0 4.334 28.859 4.193 39.724 -0.011 0.921-0.587 2.16-1.285 2.76 -3.902 3.356-15.036 13.354-20.564 14.65 -6.897 1.615-25.495 4.619-33.733 7.022 -6.667 1.942-12.664 8.876-14.86 13.622 -3.708 8.008-4.584 22.5-4.584 35h100 100C200 222.278 199.123 207.786 195.417 199.778z" opacity="1"/></g><g id="svga-group-chinshadow-single"><path id="SvgjsPath14092" fill="url(#SvgjsLinearGradient14093)" d="M75.602 162.779c7.126 5.302 15.497 9.087 24.401 9.087 8.902 0 17.269-3.781 24.394-9.08 -0.104-0.358-0.17-0.718-0.175-1.053 -0.088-6.862 1.561-20.607 2.82-30.025 -15.654-1.97-38.431-1.97-54.084 0 1.26 9.419 2.908 23.163 2.819 30.024C75.773 162.063 75.707 162.42 75.602 162.779z" opacity="1"/></g><g id="svga-group-clothes-single"><path id="SvgjsPath14100" fill="#71202d" stroke="none" stroke-width="none" d="M-0.35 235.399c-5.397-68.442 34.095-42.726 62.751-62.455 0.43-2.869 2.012-4.49 4.209-6.688 8.539-8.537 3.556-12.475 6.837-16.225 0.061 0.682 0.121 1.609 0.203 2.609 14.335 15.54 41.122 21.975 52.534 1.957 0.057-1.388 0.281-4.84 0.455-6.532 2.596 1.968 2.467 4.504 2.671 7.165 0.952 12.423 8.132 15.523 9.356 18.519 29.112 18.84 64.362-8.488 61.582 61.22C190.104 235.4 82.543 236.083-0.35 235.399z" opacity="1"/><path id="SvgjsPath14101" fill="#80313e" stroke="none" stroke-width="none" d="M200.249 234.97c-0.493 0.021-1.225 0.043-2.165 0.064C197.343 222.419 196.966 209.61 190 198c-10-16-30-10-46-18 -12.592-5.396-14.666-18.072-15.685-30.026 0.869 1.59 0.853 3.393 0.995 5.258 0.952 12.423 8.132 15.523 9.356 18.519C167.779 192.59 203.029 165.262 200.249 234.97zM12 194.805c11.883-11.718 38-5.801 51-20.801 2.369-5.019 8.619-7.769 9.354-21.899 -0.828 3.247 1.257 7.153-5.743 14.152 -2.197 2.197-3.779 3.818-4.209 6.688 -28.656 19.729-68.148-5.987-62.751 62.455 0.475 0.004 0.955 0.008 1.432 0.012C0.058 220.805 2.523 204.149 12 194.805zM73.869 166.735c14.154 9.8 28.403 14.222 47.5 6.75C98.572 180.314 85.85 173.819 73.869 166.735zM93.095 170.59c12.673 4 24.608 2.148 35.774-6.604C117.411 171.174 106.868 173.999 93.095 170.59zM67.786 176.957c11.886 10.565 44.754 17.908 69.083-1.222C111.67 193.004 79.525 186.392 67.786 176.957zM86.209 180.108c16.699 7.246 43.293-0.997 47.602-5.373C129.232 178.65 101.399 185.549 86.209 180.108z" opacity="1"/><path id="SvgjsPath14102" fill="#43000b" stroke="none" stroke-width="none" d="M139.439 173.615h-0.011c-0.119-0.06-0.239-0.13-0.359-0.2 -0.018-0.054-0.39-0.846-0.851-1.3 -13.21-13.021-4.921-19.103-11.609-24.479 -0.035 0.62-0.531 4.908-0.62 6.819 -11.334 19.824-38.513 12.837-52.13-1.939 -0.045-0.542-0.211-2.664-0.29-3.221 -1.843 1.843-2.156 3.686-2.122 6.281 0.117 9.025-8.533 10.548-9.508 17.079 -28.303 19.487-68.409-6.355-62.75 63.24 84.796 0.705 195.013-0.026 201.541-0.45C203.572 167.624 173.061 191.379 139.439 173.615zM126.739 148.365c0.092 0.092 0.661 0.819 1.11 1.521 -0.366 1-0.638 2.347-1.53 3.93C126.651 149.852 126.667 149.771 126.739 148.365zM73.379 150.216c0.037 0.463 0.12 1.46 0.16 1.949 -0.29-0.31-0.57-0.6-0.82-0.88C72.919 150.905 73.129 150.545 73.379 150.216zM65.859 167.075c18.439 21.978 40.26 18.955 62.26 11.08 -30.612 9.414-44.329 5.81-61.99-11.37 7.46-6.32 5.691-8.829 6.35-15.01 20.39 23.21 50.375 17.96 55.81-1.13h0.01c1.958 11.071-2.637 8.336 10.301 23.06 -12.049 15.935-54.963 20.369-76.121-0.739C62.904 170.416 64.056 168.941 65.859 167.075zM0.109 234.838C0 165.37 32.869 196.235 62.059 173.204c18.395 20.038 59.684 22.314 76.89 0.892 24.883 17.816 61.965-6.61 60.533 60.223C140.951 233.913 65.786 234.118 0.109 234.838zM120.929 174.306c-5.603 3.779-29.402 8.238-44-5.38h-0.01l-0.07-0.061c0.235 0.061 0.513 0.131 0.73 0.46 -0.01-0.01-0.03-0.03-0.06-0.05 -0.085-0.105-0.354-0.32-0.5-0.32C103.716 186.869 130.316 168.975 120.929 174.306zM128.089 164.665c-17.654 15.185-38.134 9.989-54.24-3.34C89.656 172.72 108.896 177.796 128.089 164.665z" opacity="1"/></g><g id="svga-group-head" transform="matrix(1,0,0,1,0,0)"><g id="svga-group-ears-left-move" transform="matrix(1,0,0,1,0,0)"><g id="svga-group-ears-left" transform="matrix(1,0,0,1,0,0)"><path id="SvgjsPath14074" fill="#eeaa83" stroke="#c06530" stroke-width="1.5" d="M47.69 83.08c-1.588-2.376-8.025-7.833-11.703-6.994 -4.355 0.993-5.708 4.372-5.603 6.475 0.606 12.025 4.426 12.016 6.71 16.64 1.709 3.459 3.126 5.044 4.172 11.958 0.598 3.953 4.427 6.984 7.217 6.835 3.908-0.21 6.994-3.716 8.291-7.173C59.463 103.643 51.823 89.265 47.69 83.08z" opacity="1"/><path id="SvgjsPath14075" fill="#c06530" stroke="none" stroke-width="none" d="M43.274 100.336c-0.15-0.554-0.062-1.507 0.024-2.43 0.077-0.84 1.438-3.888 1.348-4.44 -0.344-2.068-1.931-5.94-2.949-8.031 -1.169-2.403-3.604-5.409-5.79-6.078 -0.904-0.278-3.479 0.04-3.781 0.639 -1.131 2.241-0.615 4.411 1.1 10.21 0.85 2.873 3.915 6.207 3.998 6.54 1.067 4.343 5.099 11.284 6.488 12.839 0.256 0.288 0.519 0.452 0.579 0.376 0.059-0.077-0.104-0.368-0.361-0.656 -1.372-1.547-5.367-8.471-6.396-12.662 -1.092-4.446 2.313-11.346 2.93-12.8 0.379 0.642 0.703 1.261 0.954 1.777 0.198 0.406 0.417 0.881 0.645 1.396 -0.367 0.76-4.245 6.367-3.026 10.606 0.451 1.563 2.054 4.592 3.432 6.187 0.483 0.559 0.893 0.717 1.19 1.234 0.341 0.599 0.732 1.279 1.792 1.726 0.215 0.091 0.408 0.121 0.577 0.111 0.293-0.02 0.51-0.161 0.667-0.326 0.029 0.271 0.044 0.617 0.051 0.94 0.007 0.413 0.073 0.752 0.162 0.755s0.168-0.333 0.161-0.746c-0.009-0.509-0.04-1.14-0.132-1.437 -0.273-0.873-1.028-1.832-1.829-2.844C44.319 102.226 43.505 101.193 43.274 100.336zM36.96 94.639c-2.347-6.779-1.518-13.668-1.103-14.643 1.345 0 3.778 2.495 4.397 3.498C39.874 84.351 36.837 89.99 36.96 94.639zM45.559 106.414c-0.961-0.403-1.303-1.001-1.635-1.58 -0.299-0.524-1.018-1.022-1.346-1.378 -0.191-0.209-0.531-0.767-0.715-0.892 -1.762-7.606 1.345-10.382 1.967-10.964 0.231 0.729 0.411 1.399 0.5 1.939 0.082 0.496-1.28 3.552-1.352 4.327 -0.089 0.961-0.182 1.954-0.012 2.583 0.253 0.938 1.093 2 1.904 3.028 0.72 0.912 1.459 1.852 1.732 2.639C46.509 106.282 46.204 106.686 45.559 106.414z" opacity="1"/></g></g><g id="svga-group-ears-right-move" transform="matrix(1,0,0,1,0,0)"><g id="svga-group-ears-right" transform="matrix(1,0,0,1,0,0)"><path id="SvgjsPath14076" fill="#eeaa83" stroke="#c06530" stroke-width="1.5" d="M152.049 83.08c1.588-2.376 8.025-7.833 11.701-6.994 4.357 0.993 5.709 4.372 5.604 6.475 -0.605 12.025-4.426 12.016-6.709 16.64 -1.711 3.459-3.127 5.044-4.174 11.958 -0.598 3.953-4.428 6.984-7.217 6.835 -3.908-0.21-6.994-3.716-8.291-7.173C140.275 103.643 147.916 89.265 152.049 83.08z" opacity="1"/><path id="SvgjsPath14077" fill="#c06530" stroke="none" stroke-width="none" d="M154.633 103.222c-0.801 1.013-1.557 1.972-1.83 2.844 -0.092 0.297-0.123 0.928-0.131 1.437 -0.008 0.413 0.072 0.749 0.16 0.746 0.09-0.003 0.154-0.342 0.162-0.755 0.008-0.323 0.021-0.67 0.051-0.94 0.156 0.165 0.373 0.307 0.666 0.326 0.17 0.01 0.361-0.021 0.578-0.111 1.061-0.446 1.449-1.126 1.791-1.726 0.297-0.517 0.709-0.675 1.191-1.234 1.377-1.594 2.98-4.624 3.432-6.187 1.219-4.239-2.66-9.846-3.027-10.606 0.229-0.515 0.447-0.989 0.645-1.396 0.252-0.516 0.576-1.136 0.955-1.777 0.617 1.454 4.021 8.354 2.93 12.8 -1.029 4.191-5.025 11.115-6.396 12.662 -0.256 0.288-0.42 0.579-0.361 0.656 0.061 0.076 0.322-0.088 0.578-0.376 1.391-1.556 5.422-8.496 6.49-12.839 0.082-0.333 3.146-3.667 3.996-6.54 1.715-5.799 2.232-7.969 1.102-10.21 -0.303-0.599-2.877-0.917-3.783-0.639 -2.186 0.669-4.619 3.675-5.789 6.078 -1.018 2.09-2.605 5.963-2.949 8.031 -0.09 0.552 1.271 3.6 1.348 4.44 0.086 0.922 0.176 1.875 0.025 2.43C156.232 101.193 155.42 102.226 154.633 103.222zM159.484 83.494c0.619-1.003 3.053-3.498 4.396-3.498 0.416 0.975 1.244 7.864-1.104 14.643C162.902 89.99 159.863 84.351 159.484 83.494zM153.137 106.116c0.273-0.788 1.012-1.728 1.732-2.639 0.811-1.028 1.65-2.09 1.904-3.028 0.168-0.629 0.076-1.623-0.014-2.583 -0.07-0.775-1.434-3.831-1.352-4.327 0.09-0.54 0.27-1.21 0.5-1.939 0.623 0.582 3.729 3.358 1.967 10.964 -0.184 0.125-0.523 0.683-0.715 0.892 -0.328 0.356-1.047 0.854-1.346 1.378 -0.332 0.579-0.674 1.177-1.635 1.58C153.533 106.686 153.23 106.282 153.137 106.116z" opacity="1"/></g></g><g id="svga-group-faceshape-wrap" transform="matrix(1,0,0,1,0,0)"><g id="svga-group-faceshape-single"><path id="SvgjsPath14089" fill="#eeaa83" stroke="none" stroke-width="none" d="M100.002 0.867C66.381 0.813 39.186 28.343 39.134 62.366c-0.008 5.403 0.669 10.645 1.953 15.641l0.004 0c0.011 0.054 8.713 39.241 14.519 51.175 6.073 12.487 23.814 32.685 44.392 32.685 20.582 0 38.32-20.197 44.392-32.685 5.805-11.935 14.507-51.122 14.519-51.175l0.005 0c1.283-4.997 1.961-10.238 1.952-15.641C160.819 28.343 133.623 0.813 100.002 0.867z" opacity="1"/><path id="SvgjsPath14090" fill="#e69d73" stroke="none" stroke-width="none" d="M120.754 4.512c21.441 9.489 36.411 31.135 36.45 56.363 0.008 5.403-0.669 10.645-1.953 15.641l-0.005 0c-0.011 0.054-8.713 39.24-14.519 51.177 -5.709 11.738-21.608 32.469-40.725 32.469s-35.016-20.73-40.725-32.469c-5.806-11.937-14.507-51.123-14.519-51.177l-0.004 0c-1.284-4.997-1.962-10.238-1.953-15.641 0.038-25.229 15.008-46.874 36.45-56.363 -23.386 8.55-40.076 31.208-40.117 57.854 -0.008 5.403 0.669 10.645 1.953 15.641l0.004 0c0.011 0.054 8.713 39.241 14.519 51.175 6.073 12.487 23.814 32.685 44.392 32.685 20.579 0 38.319-20.197 44.392-32.685 5.805-11.935 14.507-51.122 14.519-51.175l0.005 0c1.283-4.997 1.961-10.238 1.952-15.641C160.83 35.72 144.14 13.062 120.754 4.512z" opacity="1"/><path id="SvgjsPath14091" fill="none" stroke="#c06530" stroke-width="1.5" d="M100.002 0.867C66.381 0.813 39.186 28.343 39.134 62.366c-0.008 5.403 0.669 10.645 1.953 15.641l0.004 0c0.011 0.054 8.713 39.241 14.519 51.175 6.073 12.487 23.814 32.685 44.392 32.685 20.582 0 38.32-20.197 44.392-32.685 5.805-11.935 14.507-51.122 14.519-51.175l0.005 0c1.283-4.997 1.961-10.238 1.952-15.641C160.819 28.343 133.623 0.813 100.002 0.867z" opacity="1"/></g></g><g id="svga-group-mouth-single-move" transform="matrix(1,0,0,1,0,0)"><g id="svga-group-mouth-single" transform="matrix(1,0,0,1,0,0)"><path id="SvgjsPath14064" fill="url(#SvgjsLinearGradient14065)" d="M93.022 137.936c7.203 1.96 13.648-0.104 13.648-0.104C104.455 141.665 94.698 141.07 93.022 137.936z" opacity="1"/><path id="SvgjsPath14068" fill="#e66638" stroke="none" stroke-width="none" d="M95.031 131.501c1.521 0.038 3.033 0.806 4.62 1.051 1.104 0.171 4.538-0.931 5.668-0.983 2.966-0.138 8.545 0.63 11.268 0.778 0.149 0.009 0 0 0 0 -9.613 9.432-26.987 7.833-33.199-0.01C82.388 132.371 93.623 131.465 95.031 131.501z" opacity="1"/><path id="SvgjsPath14069" fill="#b83100" stroke="none" stroke-width="none" d="M99.826 134.63c-3.868-0.006-16.798-2.571-16.798-2.571 -0.091 0.091 0.101 0.516 0.23 0.636 0.313 0.284 1.272 0.427 1.923 0.547 19.46 3.661 15.1 1.568 22.244 1.301 0.909-0.034 8.518-1.34 9.23-1.855C119.582 130.545 107.139 134.639 99.826 134.63z" opacity="1"/><path id="SvgjsPath14070" fill="#ee7246" stroke="none" stroke-width="none" d="M87.901 134.684c20.174 2.069 8.714 1.166 24.385-0.598C101.555 140.126 92.04 137.561 87.901 134.684zM112.086 132.617c-5.724-1.233-10.652 0.39-11.985 0.485 -3.714 0.271-1.174-2.119-11.467-0.383C109.02 134.747 91.57 134.386 112.086 132.617z" opacity="1"/><path id="SvgjsPath14071" fill="#f57f54" stroke="none" stroke-width="none" d="M106.566 135.497c-3.635 0.082-4.812 0.905-7.659 0.775 -2.232-0.118-3.231-0.653-5.302-0.8 -0.472-0.031-0.964-0.044-1.448-0.053C94.944 137.064 100.674 138.23 106.566 135.497z" opacity="1"/></g></g><g id="svga-group-eyes-left-move" transform="matrix(1,0,0,1,0,0)"><g id="svga-group-eyes-left" transform="matrix(1,0,0,1,0,0)"><g id="svga-group-eyesback-left"><path id="SvgjsPath13984" fill="url(#SvgjsRadialGradient13985)" d="M62.381 89.681c2.428 2.331 6.769 2.584 13.004 2.584 6.229 0 9.858-1.361 11.353-4.016 1.805-3.206-3.878-9.816-12.912-9.816C68.021 78.433 55.521 83.098 62.381 89.681z" opacity="1"/></g><g id="svga-group-eyesiriswrapper-left" transform="matrix(1,0,0,1,0.5,1.5)"><g id="svga-group-eyesiriscontrol-left" transform="matrix(1,0,0,1,0,0)"><g id="svga-group-eyesiris-left" transform="matrix(1,0,0,1,0,0)"><path id="SvgjsPath14042" fill="#ea02f5" stroke="#be00c7" stroke-width=".5" d="M79.788 85.588c-0.869 3.192-4.162 5.073-7.361 4.196 -3.197-0.876-5.084-4.178-4.214-7.371 0.869-3.195 4.168-5.076 7.365-4.198C78.772 79.09 80.659 82.392 79.788 85.588z" opacity="1"/><path id="SvgjsPath14043" fill="#f51cff" stroke="none" stroke-width="none" d="M79.643 84.371c-0.441 3.545-3.072 5.392-5.952 5.199 -2.658-0.179-5.034-2.14-5.254-5.525 0.919-0.264 2.14 0.165 3.211 0.001 -0.003 0.039-0.017 0.074-0.018 0.113 -0.084 1.3 0.958 2.433 2.329 2.525 1.374 0.092 2.556-0.892 2.641-2.191 0.009-0.169-0.001-0.336-0.027-0.496C77.527 84.141 78.693 83.999 79.643 84.371z" opacity="1"/><path id="SvgjsPath14044" fill="#000" stroke-width="none" d="M74.867 81.998c-1.319-0.377-2.667 0.376-3.007 1.691 -0.341 1.308 0.453 2.678 1.771 3.056 1.322 0.379 2.669-0.375 3.011-1.684C76.986 83.745 76.188 82.376 74.867 81.998z" opacity=".9"/><path id="SvgjsPath14045" fill="none" stroke="#be00c7" stroke-width=".75" d="M74.867 81.998c-1.319-0.377-2.667 0.376-3.007 1.691 -0.341 1.308 0.453 2.678 1.771 3.056 1.322 0.379 2.669-0.375 3.011-1.684C76.986 83.745 76.188 82.376 74.867 81.998z" opacity="1"/><path id="SvgjsPath14046" fill="#fff" stroke-width="none" d="M71.16 87.657c-0.125 0.437-0.806 0.251-0.681-0.188 0.121-0.423 0.446-0.683 0.653-1.055 0.221-0.398 0.831-0.042 0.609 0.356C71.571 87.078 71.257 87.314 71.16 87.657L71.16 87.657zM72.246 86.96c-0.188 0.219-0.434 1.03-0.54 1.295 -0.17 0.422 0.513 0.604 0.681 0.188 0.058-0.145 0.256-0.863 0.359-0.983C73.04 87.116 72.543 86.614 72.246 86.96L72.246 86.96zM73.716 89.048c0.369-0.425 0.332-0.912 0.324-1.441 -0.007-0.455-0.713-0.455-0.706 0 0.004 0.293 0.092 0.701-0.117 0.942C72.92 88.891 73.417 89.392 73.716 89.048L73.716 89.048zM74.437 87.519c0.005 0.438 0.06 0.865 0.189 1.285 0.134 0.434 0.815 0.249 0.681-0.188 -0.112-0.362-0.159-0.719-0.164-1.097C75.138 87.064 74.432 87.063 74.437 87.519L74.437 87.519z" opacity=".5"/><path id="SvgjsPath14047" fill="#fff" stroke-width="none" d="M78.197 82.971c-0.695 0.417-1.74 0.042-2.333-0.839 -0.592-0.881-0.503-1.934 0.193-2.349 0.694-0.419 1.742-0.043 2.33 0.838C78.979 81.502 78.893 82.554 78.197 82.971z" opacity=".8"/></g></g></g><g id="svga-group-eyesfront-left"><path id="SvgjsPath14009" fill="#eeaa83" stroke="none" stroke-width="none" d="M54.8 79.995c0 13.807 8.507 30.004 19 30.004s19-11.193 19-25 -8.507-25-19-25S54.8 66.188 54.8 79.995zM62.381 89.681c-6.859-6.583 5.641-11.248 11.444-11.248 9.034 0 14.717 6.61 12.912 9.816 -1.494 2.654-5.123 4.016-11.353 4.016C69.149 92.265 64.809 92.011 62.381 89.681z" opacity="1"/><path id="SvgjsPath14010" fill="url(#SvgjsRadialGradient14011)" d="M58.697 84.55c-0.075 7.456 8.647 13.464 18.038 13.428 9.389-0.043 16.987-6.116 16.962-13.573 -0.023-7.456-7.647-13.465-17.04-13.426C67.265 71.021 58.799 74.35 58.697 84.55zM73.825 78.633c9.034 0 14.718 6.542 12.912 9.716 -1.494 2.627-5.123 3.975-11.353 3.975 -6.235 0-10.576-0.251-13.005-2.558C55.521 83.25 68.021 78.633 73.825 78.633z" opacity="1"/><path id="SvgjsPath14015" fill="url(#SvgjsRadialGradient14016)" d="M62.381 89.681c2.428 2.331 6.769 2.584 13.004 2.584 6.229 0 9.858-1.361 11.353-4.016 1.805-3.206-3.878-9.816-12.912-9.816C68.021 78.433 55.521 83.098 62.381 89.681z" opacity="1"/><path id="SvgjsPath14019" fill="#c06530" stroke="none" stroke-width="none" d="M89.188 82.843c0.345-0.344-4.745-7.529-13.379-7.832 -9.13-0.319-16.789 6.017-16.789 6.017s8.302-6.009 16.569-5.565C85.2 75.98 88.916 83.114 89.188 82.843z" opacity="1"/><path id="SvgjsPath14020" fill="#0f190c" stroke="none" stroke-width="none" d="M86.479 88.878l0.335-2.293c-3.319-8.705-15.518-11.145-25.718-2.11 -0.359 0.462-0.768 0.821-0.468 1.832l2.711 4.484c-2.466-2.355-3.742-4.143-4.917-5.817l-0.952-0.498c12.896-12.359 27.1-9.455 31.717 1.537l-1.12-0.167L86.479 88.878zM82.57 91.345c-4.308 0.56-7.537 1.078-13.275 0.76C72.953 92.963 78.842 92.698 82.57 91.345z" opacity="1"/></g></g></g><g id="svga-group-eyes-right-move" transform="matrix(1,0,0,1,0,0)"><g id="svga-group-eyes-right" transform="matrix(1,0,0,1,0,0)"><g id="svga-group-eyesback-right"><path id="SvgjsPath13992" fill="url(#SvgjsRadialGradient13993)" d="M137.22 89.681c-2.428 2.331-6.769 2.584-13.004 2.584 -6.229 0-9.858-1.361-11.353-4.016 -1.805-3.206 3.878-9.816 12.912-9.816C131.579 78.433 144.079 83.098 137.22 89.681z" opacity="1"/></g><g id="svga-group-eyesiriswrapper-right" transform="matrix(1,0,0,1,-0.5,1.5)"><g id="svga-group-eyesiriscontrol-right" transform="matrix(1,0,0,1,0,0)"><g id="svga-group-eyesiris-right" transform="matrix(1,0,0,1,0,0)"><path id="SvgjsPath14048" fill="#ea02f5" stroke="#be00c7" stroke-width=".5" d="M131.788 85.588c-0.869 3.192-4.162 5.073-7.362 4.196 -3.196-0.876-5.084-4.178-4.214-7.371 0.869-3.195 4.169-5.076 7.365-4.198C130.772 79.09 132.658 82.392 131.788 85.588z" opacity="1"/><path id="SvgjsPath14049" fill="#f51cff" stroke="none" stroke-width="none" d="M131.643 84.371c-0.44 3.545-3.072 5.392-5.951 5.199 -2.657-0.179-5.034-2.14-5.255-5.525 0.919-0.264 2.141 0.165 3.212 0.001 -0.004 0.039-0.017 0.074-0.019 0.113 -0.085 1.3 0.958 2.433 2.329 2.525 1.374 0.092 2.555-0.892 2.64-2.191 0.009-0.169-0.001-0.336-0.026-0.496C129.527 84.141 130.693 83.999 131.643 84.371z" opacity="1"/><path id="SvgjsPath14050" fill="#000" stroke-width="none" d="M126.867 81.998c-1.319-0.377-2.666 0.376-3.007 1.691 -0.341 1.308 0.453 2.678 1.771 3.056 1.322 0.379 2.669-0.375 3.011-1.684C128.986 83.745 128.188 82.376 126.867 81.998z" opacity=".9"/><path id="SvgjsPath14051" fill="none" stroke="#be00c7" stroke-width=".75" d="M126.867 81.998c-1.319-0.377-2.666 0.376-3.007 1.691 -0.341 1.308 0.453 2.678 1.771 3.056 1.322 0.379 2.669-0.375 3.011-1.684C128.986 83.745 128.188 82.376 126.867 81.998z" opacity="1"/><path id="SvgjsPath14052" fill="#fff" stroke-width="none" d="M123.16 87.657c-0.125 0.437-0.806 0.251-0.682-0.188 0.121-0.423 0.447-0.683 0.654-1.055 0.22-0.398 0.83-0.042 0.609 0.356C123.571 87.078 123.257 87.314 123.16 87.657L123.16 87.657zM124.246 86.96c-0.188 0.219-0.434 1.03-0.54 1.295 -0.171 0.422 0.513 0.604 0.681 0.188 0.059-0.145 0.256-0.863 0.358-0.983C125.04 87.116 124.543 86.614 124.246 86.96L124.246 86.96zM125.716 89.048c0.369-0.425 0.332-0.912 0.324-1.441 -0.007-0.455-0.713-0.455-0.706 0 0.004 0.293 0.092 0.701-0.117 0.942C124.92 88.891 125.418 89.392 125.716 89.048L125.716 89.048zM126.438 87.519c0.005 0.438 0.059 0.865 0.188 1.285 0.135 0.434 0.815 0.249 0.681-0.188 -0.112-0.362-0.159-0.719-0.164-1.097C127.138 87.064 126.432 87.063 126.438 87.519L126.438 87.519z" opacity=".5"/><path id="SvgjsPath14053" fill="#fff" stroke-width="none" d="M130.197 82.971c-0.695 0.417-1.74 0.042-2.333-0.839 -0.592-0.881-0.504-1.934 0.192-2.349 0.695-0.419 1.742-0.043 2.33 0.838C130.979 81.502 130.893 82.554 130.197 82.971z" opacity=".8"/></g></g></g><g id="svga-group-eyesfront-right"><path id="SvgjsPath14030" fill="#eeaa83" stroke="none" stroke-width="none" d="M125.801 59.999c-10.493 0-19 11.193-19 25s8.507 25 19 25 19-15.513 19-29.319S136.294 59.999 125.801 59.999zM124.216 92.265c-6.229 0-9.858-1.361-11.353-4.016 -1.805-3.206 3.878-9.816 12.912-9.816 5.804 0 18.304 4.665 11.444 11.248C134.792 92.011 130.451 92.265 124.216 92.265z" opacity="1"/><path id="SvgjsPath14031" fill="url(#SvgjsRadialGradient14032)" d="M122.943 70.979c-9.393-0.039-17.017 5.971-17.04 13.426 -0.025 7.458 7.573 13.53 16.962 13.573 9.391 0.037 18.113-5.972 18.038-13.428C140.802 74.35 132.336 71.021 122.943 70.979zM137.221 89.766c-2.429 2.307-6.77 2.558-13.005 2.558 -6.229 0-9.858-1.348-11.353-3.975 -1.806-3.173 3.878-9.716 12.912-9.716C131.579 78.633 144.08 83.25 137.221 89.766z" opacity="1"/><path id="SvgjsPath14036" fill="url(#SvgjsRadialGradient14037)" d="M137.22 89.681c-2.428 2.331-6.769 2.584-13.004 2.584 -6.229 0-9.858-1.361-11.353-4.016 -1.805-3.206 3.878-9.816 12.912-9.816C131.579 78.433 144.079 83.098 137.22 89.681z" opacity="1"/><path id="SvgjsPath14040" fill="#c06530" stroke="none" stroke-width="none" d="M110.413 82.843c-0.345-0.344 4.745-7.529 13.379-7.832 9.13-0.319 16.789 6.017 16.789 6.017s-8.302-6.009-16.569-5.565C114.4 75.98 110.685 83.114 110.413 82.843z" opacity="1"/><path id="SvgjsPath14041" fill="#0f190c" stroke="none" stroke-width="none" d="M111.533 85.845l-1.12 0.167c4.617-10.991 18.82-13.896 31.717-1.537l-0.952 0.498c-1.175 1.674-2.451 3.462-4.917 5.817l2.711-4.484c0.3-1.01-0.108-1.37-0.468-1.832 -10.2-9.035-22.398-6.595-25.718 2.11l0.335 2.293L111.533 85.845zM130.306 92.104c-5.738 0.318-8.968-0.2-13.275-0.76C120.759 92.698 126.647 92.963 130.306 92.104z" opacity="1"/></g></g></g><g id="svga-group-facehighlight-single"><path id="SvgjsPath13794" fill="url(#SvgjsRadialGradient13795)" d="M141 113.974c0.035 22.622-18.292 40.994-40.938 41.025 -22.642 0.037-41.028-18.273-41.063-40.9 -0.035-22.62 18.292-41.064 40.937-41.1C122.579 72.964 140.967 91.349 141 113.974z" opacity="1"/><path id="SvgjsPath13798" fill="url(#SvgjsRadialGradient13799)" d="M137.5 53.999c0 20.711-16.789 37.5-37.499 37.5 -20.711 0-37.501-16.789-37.501-37.5s16.79-37.5 37.501-37.5C120.711 16.499 137.5 33.288 137.5 53.999z" opacity="1"/></g><g id="svga-group-eyebrows-left-move" transform="matrix(1,0,0,1,0,0)"><g id="svga-group-eyebrows-left-rotate" transform="matrix(1,0,0,1,0,0)"><g id="svga-group-eyebrows-left" transform="matrix(1,0,0,1,0,0)"><path id="SvgjsPath14054" fill="#3b3128" stroke="none" stroke-width="none" d="M53.149 74.996c9.743-15.115 36.491 5.148 38.018-1.191 0.299-1.271-0.407-2.015-1.564-2.492C75.982 65.807 57.955 61.18 53.149 74.996z" opacity="1"/></g></g></g><g id="svga-group-eyebrows-right-move" transform="matrix(1,0,0,1,0,0)"><g id="svga-group-eyebrows-right-rotate" transform="matrix(1,0,0,1,0,0)"><g id="svga-group-eyebrows-right" transform="matrix(1,0,0,1,0,0)"><path id="SvgjsPath14055" fill="#3b3128" stroke="none" stroke-width="none" d="M146.851 74.996c-9.743-15.115-36.491 5.148-38.018-1.191 -0.299-1.271 0.407-2.015 1.564-2.492C124.018 65.807 142.045 61.18 146.851 74.996z" opacity="1"/></g></g></g><g id="svga-group-nose-single-move" transform="matrix(1,0,0,1,0,0)"><g id="svga-group-nose-single" transform="matrix(1,0,0,1,0,0)"><path id="SvgjsPath14072" fill="#e69d73" stroke="none" stroke-width="none" d="M99.979 120.982c-2.599-0.079-7.224-2.758-6.672-5.166 0.511-2.238 3.422 0.816 6.766 0.844 3.343 0.027 7.336-1.967 7.806 0.277C108.636 120.561 104.166 121.112 99.979 120.982z" opacity="1"/><path id="SvgjsPath14073" fill="#c06530" stroke="none" stroke-width="none" d="M105.793 119.62c0.21 0.275 0.572 0.275 0.797-0.002 0.231-0.277 0.243-0.727 0.027-1.001 -1.568-2.021-4.39 0.688-4.177 0.969C102.519 119.691 104.608 118.113 105.793 119.62zM94.106 114.477c0.329 2.148 1.012 5.016 6.507 6.519 -5.417-0.161-8.937-1.169-8.908-6.206 0.015-2.549 2.678-7.79 2.678-7.79S93.758 112.207 94.106 114.477z" opacity="1"/></g></g><g id="svga-group-beardwrap" transform="matrix(1,0,0,1,0,0)"><g id="svga-group-beard-single-move" transform="matrix(1,0,0,1,0,0)"><g id="svga-group-beard-single" transform="matrix(1,0,0,1,0,0)"><path id="SvgjsPath13812" fill="#2a232b" stroke-width="none" d="M100,18.13L100,18.13L100,18.13L100,18.13z" opacity="1"/></g></g></g><g id="svga-group-mustache-single-move" transform="matrix(1,0,0,1,0,0)"><g id="svga-group-mustache-single" transform="matrix(1,0,0,1,0,0)"><path id="SvgjsPath13810" fill="#2a232b" stroke-width="none" d="M100,18.13L100,18.13L100,18.13L100,18.13z" opacity="1"/></g></g><g id="svga-group-hair-front" transform="matrix(1,0,0,1,0,0)"><path id="SvgjsPath13964" fill="#3b3128" stroke="none" stroke-width="none" d="M49.325 111.556c-5.418-3.127-9.142-6.627-12.893-15.151 -0.509-1.289-1.893-5.586-1.893-6.583 -2.19-1.805-4.608-7.14-5.665-9.781 -3.002-10.296-2.617-22.5-0.507-28.338l-0.355-0.177c-2.585 3.959-3.283 7.628-3.899 11.174 -2.751-9.066-1.237-19.367 5.766-28.261 -3.219 0.806-4.477 1.441-7.395 0.896 5.609-2.923 22.364-15.071 26.957-23.31 -3.952 1.013-8.211 3.096-11.467 5.241C42.093 4.296 58.83-6.401 72.393-5.223c-2.447-2.174-4.562-4.95-6.305-7.631 3.691 1.212 10.025 3.686 16.204 5.204 21.252 4.455 15.286 2.485 34.942-4.586 -0.811 2.912-0.804 3.07-2.543 7.203 14.207-5.614 27.89 0.23 32.18 8.219h0.009c0.062 0.115 0.122 0.232 0.182 0.348 -1.924-0.647-3.58-0.815-5.581-0.929 3.554 6.121 5.933 6.694 17.512 10.142 1.198 0.376 3.149 0.87 4.78 1.156 -2.419 1.728-4.111 2.16-7.047 2.539 4.662 1.984 7.377 5.559 9.431 10.264 2.974 7.095 3.489 12.801 2.96 19.332 -1.288-1.974-3.025-4.896-4.785-7.3l-0.343 0.202c4.382 9.461 2.86 17.286 19.494 28.646 -1.435 0.321-3.059 0.489-4.729 0.489l0 0c-2.914 0-5.43-0.476-7.888-1.295 0.702 8.681 0.171 12.925-0.7 16.66 -2.029 7.642-6.055 13.108-13.631 14.948 -4.42 5.776-8.943 8.17-12.081 8.709 2.207-3.648 7.364-13.608 8.248-17.532l-0.418-0.743c-9.509-2.35-16.209-9.562-17.565-19.881 -1.947 2.924-3.769 5.106-9.482 9.489 -0.465-11.558-6.145-26.409-13.25-35.719 -0.038 3.226 0.066 3.476 0.888 7.833h0.007c1.052 5.11 4.22 11.59 5.277 14.718 -3.106-1.771-5.685-2.961-9.079-8.315 -1.651-2.597-3.648-6.999-4.548-10.02l-0.39 0.033c-0.232 1.911-0.205 3.113-0.191 3.758 0 2.133 2.814 12.875 4.655 15.999 -6.57-3.309-9.514-8.744-11.7-14.128l-0.385 0.063c-0.212 3.309 0.151 10.703 1.586 16.32 -5.281-1.591-8.449-3.893-11.229-8.137 -1.839-3.446-1.922-4.927-2.316-8.32 -5.93 7.875-15.644 14.488-22.28 16.559 -0.031 0.009-0.094 0.027-0.169 0.048 0.9-1.781 1.845-3.528 2.76-5.222 2.511-4.645 3.927-7.333 5.656-11.639C54.489 63.345 51.333 80.329 55.478 99.135c-2.798-1.794-3.247-2.156-5.58-4.629 0.542 3.657 0.365 9.122-1.793 14.192l-0.033 0.078 0.033 0.078C49.309 111.692 48.909 110.896 49.325 111.556z" opacity="1"/><path id="SvgjsPath13965" fill="#2c2219" stroke="none" stroke-width="none" d="M125.204 77.964c-0.578-11.19-5.923-25.294-12.679-34.51C126.567 47.285 130.275 69.622 125.204 77.964zM106.011 36.392c-3.612 7.222-0.428 21.701 12.146 28.871C112.525 58.574 107.619 51.859 106.011 36.392zM108.453 66.433c-7.192-8.037-10.356-19.174-10.347-29.233 -3.515 6.254-2.14 23.155 10.499 29.518C108.556 66.635 108.504 66.526 108.453 66.433zM89 37c-4.366 7.103-9.458 26.381 9.106 31.973C87.048 59.856 87 49.904 89 37zM62.11 69.123c0.075-0.021 0.138-0.04 0.169-0.048 6.428-2.005 16.639-9.568 22.606-17.115 0.386-2.524 0.36-4.479 0.876-6.959C81.137 53.507 67.663 65.263 62.11 69.123zM52.691 89.147C45.784 78.324 51.501 57.719 54 55.575 49.975 58.052 41.291 80.894 52.691 89.147zM163.003 71.547c-0.902 15.205-9.329 25.748-18.371 35.513C154.984 105.083 166.035 88.224 163.003 71.547zM124.746 13.008C139.146 20.948 142.804 24.918 148 43 148 29.963 140.027 11.987 124.746 13.008zM109.744 10c-3.342 13.6 2.781 23 12.857 27.2C115.994 30.985 109.445 19.687 109.744 10zM35.291 56.683C42.033 57.062 52.027 53.314 54 45 49.325 51.209 45.258 54.686 35.291 56.683zM118.932 6.5c14.625-5.633 24.125-4.452 28.129-2.966C143.588 1.305 129.869-2.515 118.932 6.5zM38.819 16.035c10.126-6.212 14.655-5.279 20.253-5.606C51.421 7.273 45.744 9.378 38.819 16.035zM138.423 9.041c10.748 6.188 12.979 9.687 25.349 4.862C157 16.162 148 13.815 138.423 9.041zM86.739 6.456C92.978 6.459 96.974 8.788 100 11.063 98.35 8.073 91.713 3.969 86.739 6.456zM143.806 47.319c-1.848 11.267 5.017 16.082 14.445 17.591C152.279 63.099 145.654 56.831 143.806 47.319zM60.555 44.103c8.802-4.429 20.361-14.742 20.361-24.204C76.744 28.11 70.447 37 60.555 44.103zM183.241 67.417C171.046 68.508 164.456 58.388 157 50c2.801 7.468 8.217 12.322 14.619 17.002 2.223 0.672 4.515 1.073 7.134 1.073 1.67 0 3.294-0.168 4.729-0.489C183.398 67.529 183.323 67.474 183.241 67.417zM37.509 67.144c-3.62 12.01-6.057 30.855 11.816 44.412C39.134 100 35.743 81.271 37.509 67.144zM84.497 11.687C72.32 11.938 62.5 13 56.397 28.11 69.522 15.608 75.298 14.736 84.497 11.687zM24.119 57.719c1.73-6.653 6.276-11.247 13.078-13.775C28.606 44.103 25.479 48.186 24.119 57.719zM137.83 59.037c-6.883 10.962 0.74 24.952 14.349 29.395C138.508 74.348 138.111 70.642 137.83 59.037zM168.885 45.242C166.06 33 160.582 26.235 152.279 30.94 160.87 28.11 162.762 37.2 168.885 45.242zM131.446 71.73c10.059-10.14 6.667-25.225-1.631-31.637C136.373 53.445 134.794 60.709 131.446 71.73z" opacity="1"/><path id="SvgjsPath13966" fill="#4a423a" stroke="none" stroke-width="none" d="M110.203 28.735c-7.752-5.34-11.439-9.634-17-16.667C98.507 16.871 105.104 23.542 110.203 28.735zM123.869 23.402c12.675 2.771 10.384 1.424 18.667 9.333C136.584 24.215 134.941 23.956 123.869 23.402zM127.869 33.402c7.079 3.301 11.655 15.926 13 23.333C140.952 47.935 136.387 35.737 127.869 33.402zM140.203 60.735c-0.438 8.567 3.08 11.935 7.333 21.667C145.451 73.278 141.402 70.29 140.203 60.735zM158.869 68.069c-0.707 8.421 0.23 14.627-3.666 21.333C160.468 83.167 159.616 76.161 158.869 68.069zM167.869 67.735c2.15 5.972-0.532 17.421-3.666 22.667C169.216 84.525 171.429 74.01 167.869 67.735zM152.869 33.735c11.648 2.03 4.693 18.159 19.334 27.333C159.416 48.888 165.243 33.55 152.869 33.735zM146.536 19.402c10.708 1.315 15.663 5.39 19.667 14C163.707 23.215 156.576 18.773 146.536 19.402zM115.203 41.069c9.562 6.386 13.174 17.608 13.333 29C130.82 58.701 126.871 45.731 115.203 41.069zM114.869-1.265c13.246-1.465 13.697-1.931 22.334 0.333C131.115-4.134 126.459-5.081 114.869-1.265zM74.536-7.265c9.174 6.781 29.321 12.629 37.667-1C103.296 1.777 86.568-1.323 74.536-7.265zM91.869 4.402c5.054-0.75 7.943 0.543 13.334 7.667C102.484 5.991 98.11 2.087 91.869 4.402zM82.536 8.402c-8.516-0.987-16.124-0.718-19.667 8.333C67.811 9.291 72.223 9.411 82.536 8.402zM47.869 8.069c4.683-4.046 14.198-10.146 22.333-9C62.43-3.799 52.913 1.43 47.869 8.069zM34.869 29.735c8.239-2.621 16.719-6.773 20.667-14.333C50.845 21.033 43.314 24.832 34.869 29.735zM49.869 29.069c-1.195 12.697-8.067 16.114-14 25.667C45.636 44.918 51.179 40.519 49.869 29.069zM68.536 47.069c-12.292 1.269-17.363 18.449-16.667 30.667C53.818 66.438 57.941 50.561 68.536 47.069zM75.203 39.735c-1.015 7.647-1.94 11.476-5.333 21C74.771 52.952 75.721 46.942 75.203 39.735zM96.536 35.735c-2.42 8.248-4.131 16.801-0.667 24.667C94.356 53.021 95.625 47.431 96.536 35.735zM87.869 15.402c-2.639 10.946-4.018 15.103-9 22.333C85.645 31.291 87.549 25.039 87.869 15.402zM105.203 33.735c-4.181 6.509-4.464 12.145-2.667 19.667C102.38 45.491 102.472 40.92 105.203 33.735zM110.869 36.402c-2.494 6.409-2.027 11.348 0.667 16.667C110.088 47.593 109.679 44.197 110.869 36.402zM48.869 56.735c-5.414 5.987-4.846 14.654-4 22.667C45.896 70.017 45.069 63.265 48.869 56.735zM40.203 64.069c-2.677 7.568-3.156 17.894 1.333 25C38.938 81.959 39.361 71.135 40.203 64.069zM32.869 48.069c-4.311 9.962-5.28 17.968-0.667 30.333C30.584 67.67 30.145 61.234 32.869 48.069zM26.203 48.069C37.259 30.471 44.045 36.17 48.536 27.402 41.92 35.084 33 29.641 26.203 48.069zM72.203 19.402c0.119 6.162-2.69 10.826-5 17.667C70.522 31.503 73.658 25.68 72.203 19.402zM139.869 4.402c2.816 5.948 9.814 9.055 16 9C150.963 12.386 143.511 9.186 139.869 4.402zM145.536 46.735c-0.258 5.394 3.563 10.916 8 13.667C150.647 57.794 146.327 51.645 145.536 46.735z" opacity="1"/><path id="SvgjsPath13967" fill="#0d0905" stroke="none" stroke-width="none" d="M183.969 67.675c-6.263-4.256-7.33-5.468-10.979-9.56 0 0-0.13-0.15-0.36-0.41 -6.695-9.373-4.181-9.611-8.46-18.85 1.892 2.585 3.736 5.738 5.101 7.78 0.21-3.013 1.227-10.089-2.931-20.01 -1.825-4.18-4.68-8.3-8.859-10.08 4.107-0.531 5.81-2.099 6.81-2.76 -1.729-0.267-3.954-0.827-5.24-1.23 -11.193-3.341-13.854-3.955-17.21-9.73 2.593 0.148 4.093 0.503 5.62 1.06 -0.14-0.29-0.3-0.6-0.46-0.9h-0.01c-1.685-3.134-5.694-6.731-10.811-8.71 -6.66-2.164-13.447-2.699-21.119 0.33 1.653-3.92 1.639-4.2 2.47-7.16 -20.085 7.173-13.869 9.179-35.19 4.71 -6.461-1.587-13.197-4.26-16.72-5.37 1.142 1.815 3.804 5.62 6.19 7.74 -12.222-1.064-30.117 9.186-34.19 23.22 3.924-2.671 8.58-4.681 11.42-5.41 -4.303 7.714-21.63 20.432-27.16 23.08 3.367 0.755 4.777 0.036 7.48-0.64 -5.514 7-8.194 16.316-5.92 26.15 0 0.01 0 0.01 0 0.01 0.251 1.066 0.398 1.582 0.73 2.61 0.655-3.762 1.25-7.683 4.01-11.91 -1.983 5.486-2.645 17.666 0.51 28.48 1.14 2.849 3.531 8.031 5.65 9.8 0 0.398 0.873 3.943 1.91 6.57 3.745 8.508 7.459 12.167 13.64 15.62 -1.071-1.842-0.152 0.086-1.6-3.33 1.533-3.602 2.02-6.65 2.02-10.25 0.024-1.064-0.082-3.162-0.12-3.42 2.12 2.249 2.849 2.704 5.59 4.46 -6.552-28.9 6.73-41.52 14.314-46.761 -2.402 5.989-5.563 11.027-8.364 16.631 0.16-0.041 0.52-0.145 0.6-0.17 0 0 0 0 0.01 0 7.426-2.316 17.112-9.638 22.08-16.23 0.347 2.986 0.478 4.515 2.29 7.91 2.991 4.564 6.373 6.777 11.68 8.32 -1.555-5.824-1.87-13.481-1.67-16.6 2.399 5.909 5.43 11.094 12.06 14.34h0.01c0.14 0.07 0.29 0.14 0.42 0.21 -1.721-1.734-5.06-14.067-5.06-16.5 -0.016-0.705-0.036-1.87 0.189-3.73 0.945 3.177 2.972 7.555 4.57 10.07 3.576 5.639 6.229 6.686 9.6 8.64 -1.11-3.542-3.387-7.564-5.149-14.01 -0.221-0.8-0.311-1.34-0.32-1.34 -0.69-3.673-0.889-4.392-0.86-7.05 6.238 8.171 12.493 23.175 12.87 35.53 3.443-2.632 6.896-5.363 9.54-9.33 1.357 10.283 8.577 17.26 17.561 19.5 0.109 0.2 0.229 0.4 0.34 0.6 -0.824 3.688-6.054 13.94-8.43 17.76 3.147-0.36 7.957-2.755 12.59-8.79 7.616-1.846 11.667-7.385 13.71-15.08 0.768-3.291 1.446-7.654 0.729-16.42C175.681 68.596 180.602 68.525 183.969 67.675zM50.089 93.835c-0.188-2.277-0.54-4.608-1.04-6.9 0.877 1 1.603 1.796 3.63 3.4 0.161 2.242 0.458 4.618 0.96 6.97C52.639 96.433 51.013 95.237 50.089 93.835zM150.459 80.585c1.277 2.101 2.995 3.706 2.311 7.61C152.291 87.195 151.248 84.205 150.459 80.585zM170.52 66.825c-0.455 12.426-1.084 26.441-13.381 31.09 7.956-11.178 5.978-16.145 6.301-22.76 -0.814 4.577-0.103 1.329-0.99 8.41 -1.297 6.64-8.454 19.527-16.7 22.81 0.611-0.858 1.893-2.938 2.71-4.229 4.354-7.071 5.899-11.333 6.04-16.21 -0.02-0.34-0.06-0.54-0.06-0.54 -0.336-2.668-2.538-5.358-4.44-7.26 -0.239-1.495-1.114-7.706-1.52-14.28 -0.269 3.7-0.338 8.969 0.199 13l0.011 0.01c0.862 5.889 2.244 10.208 3.029 11.28 -1.551-0.623-1.77-0.781-2.77-1.32 -8.722-4.82-11.62-9.872-13.46-18.88 1.596-2.724 1.738-4.376 2.22-6.48 0-0.01 0-0.01 0-0.02 0.514-1.567-0.56-9.591-0.56-10.61 0-0.12 0.02-0.2 0.029-0.22 -0.085 0.087-0.096 0.808-0.1 0.93 -0.229 7.18 0.566 9.475-2.78 16.01 -0.279 0.45-0.52 0.96-0.85 1.42 -2.167 2.786-2.007 2.823-7.78 8.24 0.679-11.247-5.389-26.989-13.479-34.75 0.11-3.74-0.079-4.97-0.681-5.97 0.706 1.733 0.238 3.75 0 5.96 -0.573 4.723 0.177 11.666 5.37 21.61 -6.189-4.771-10.123-12.717-12.12-20.04 0.563-3.521 0.906-4.625 1.38-8.68 -1.36 5.964-3.1 9.308-3.1 15.4 0.134 3.435 2.431 11.041 4.84 15.03 -4.119-2.958-8.768-9.078-10.95-16.89 0.597-7.936 1.488-12.376 2.14-16.61 -3.518 11.411-3.571 15.709-3.85 20.82 -0.02 1.28 0.01 2.57 0.01 3.53 0.01 0.48 0.01 0.88 0.02 1.17 0.03 0.28 0.04 0.44 0.04 0.44 0.545 5.442 1.496 8.688 2.04 10.04 -4.951-2.176-9.931-6.937-11.1-12.87 -1.616-7.53 2.373-17.62 2.68-18.62 -0.853 1.706-4.395 7.961-4.51 14.97 -2.026 2.257-4.629 4.75-5.63 5.64 -5.605 5.083-10.98 8.705-15.96 11.19 0.13-0.2 0.27-0.42 0.41-0.64l-0.01 0.03c6.144-9.044 9.965-16.674 10.18-27.55 -0.58 4.238-1.601 7.9-2.866 11.256 -10.46 5.48-18.753 18.57-17.924 37.234 -0.15-0.17-0.31-0.33-0.47-0.5 -7.064-6.96-4.696-14.295-2.67-22.49 2.321-9.233 3.71-9.51 4.71-10.51 -3.46 2.069-5.596 8.819-6.82 12.85 -2.729 8.793-1.479 13.522 0.28 16.65 1.366 9.164 2.228 14.714 0.21 22.79 -1.216-2.735-2.888-9.783-3.12-13.34 -0.673-5.966-0.763-7.961-1.25-15.26 -0.494 7.405-1.295 20.041 3.62 29.87 -10.349-9.856-14.864-24.953-9.27-42.86 -3.354 7.285-4.874 13.868-3.84 21.76 -6.401-11.16-7.021-26.98-4.14-38.48 2.612-3.149 5.684-4.568 7.68-5.57 -6.141 2.238-7.106 3.404-9.64 6.19 -1.762 2.461-2.938 4.705-3.84 8.12 -0.536-8.169 1.545-16.16 7.4-23.97 5.653-1.508 10.804-4.672 15.4-8.12 -6.775 3.736-10.945 5.852-17.88 7.81 -0.886 0.262-3.403 1.002-4.34 1.12 7.457-3.866 21.268-13.739 25.05-22.81 3.97-1.186 6.349-1.333 9.04-1.66 -7.141 0-12.19 0.606-19.89 5.53 4.617-9.06 19.642-20.74 33.96-20.74 2.847 2.213 6.718 3.623 10.19 5.6 -2.169-1.853-7.413-4.64-9.28-6.11 0-0.01 0-0.01-0.01 0 -1.191-0.95-1.73-0.982-5.89-6.27 9.406 4.473 12.744 5.31 16.57 6.2 18.733 4.262 17.219 0.998 31.89-5.82 -0.354 1.012-2.504 6.973-3.28 7.73 -2.076 3.669-4.594 6.552-8.51 8.51 4.48-1.485 7.663-4.723 9.87-9.01 0.65-0.325 4.727-1.365 6.37-1.54 8.218-0.886 11.799-0.144 17.64 2.5 1 0.555 4.702 2.439 7.261 5.41 -6.718-2.101-17.275 0.695-23.921 2.92 1.711-0.326 10.455-2.156 15.62-2.54 1.891-0.16 3.761-0.08 3.761-0.09 0.09 0 0.18 0.01 0.27 0.01 2.622 5.451 4.2 7.416 17.53 10.66 1.372 0.318 2.838 0.494 3.83 0.62 -2.315 1.026-3.594 1.278-6.32 1.51 -10.533 0.214-12.152-4.801-18.6-6.76 6.802 3.031 6.574 7.8 18.97 7.8 3.643 1.355 6.84 6.796 8.439 10.49 2.288 5.485 3.317 11.582 3.57 17.52 -1.612-2.944-7.708-12.381-11.07-13.57 -0.761-0.297-1.4-0.304-2.14-0.23 2.067 0 3.499 1.242 4.71 2.93h0.01c2.547 3.711 3.938 9.101 5.25 13.6 0 0 0.061 0.2 0.16 0.54 2.532 8.814 8.096 15.083 15.771 19.33 -16.134 0.714-17.671-9.528-25.601-18.32C160.412 55.189 162.752 63.528 170.52 66.825zM157.229 63.575c-2.577-6.236-1.016-3.791-4.221-10.15 3.521 4.422 3.78 7.85 5.73 11.77 -7.248-1.936-14.8-9.364-15-17.58 -0.04-0.78-0.061-1.26-0.061-1.26C145.099 54.866 149.964 59.968 157.229 63.575zM148.549 46.706c-1.18-3.591-8.053-17.584-14.279-19.61 -1.982-0.853-4.928-1.363-7.24-1.91 8.267 0.722 12.23 0.498 18.76 12.86 0.59 1.14 1.18 2.43 1.75 3.76 -1.69-13.577-6.567-20.283-12.76-25.08 -4.292-2.865-7.618-3.228-10.29-3.68 2.949 0.081 6.466 0.083 11 2.59 4.633 2.963 7.719 6.044 10.82 13.87 0.22 0.52 0.369 0.97 0.46 1.29 0.1 0.31 0.159 0.49 0.159 0.49C148.623 36.71 148.718 40.973 148.549 46.706zM120.699 36.115c-6.086-6.25-11.09-14.396-10.61-23.07 0.697 9.229 7.345 18.064 13.82 25.01 -12.517-1.666-21.022-10.063-28.2-19.91C106.407 29.942 113.476 33.58 120.699 36.115zM87.299 5.875c-0.01 0.01-0.01 0.02-0.02 0.03 3.177-1.248 9.33-0.122 12.08 4.32 -2.801-3.547-8.862-5.14-12.62-3.77 1.205-3.917 6.946-4.981 10.93-4.42 -2.532 0-6.33 0.606-8.54 2.03C88.107 4.701 87.909 5.095 87.299 5.875zM58.909 45.555c5.625-8.431 4.559-4.042 8.75-15.7 0.465-1.342 1.924-5.56 2.9-7.75 -0.02 0.1-0.14 0.53-0.32 1.19 -3.206 12.822-4.09 14.826-8.8 20.32 8.872-5.32 14.373-10.241 19-19.54C77.348 34.462 68.579 41.758 58.909 45.555zM55.719 28.795c0 0 0 0 0-0.01 0-12.914 7.494-26.534 19.37-25.05 -13.802 0-18.42 19.599-18.42 23.9 6.221-7.458 17.108-13.956 28.27-15.99 -9.501 2.929-21.763 9.859-29.23 17.88C55.719 29.285 55.719 29.035 55.719 28.795zM36.039 56.555c6.452 0.207 12.076-2.905 16.42-7.61 -3.988 6.273-12.402 9.888-18.82 7.76 9.583-3.201 16.521-12.126 18.58-22.2 -0.775 9.675-5.943 17.08-14.12 21.24C36.345 56.557 37.039 56.126 36.039 56.555z" opacity="1"/></g><g id="svga-group-glasses-single-move" transform="matrix(1,0,0,1,0,0)"><g id="svga-group-glasses-single" transform="matrix(1,0,0,1,0,0)"><path id="SvgjsPath14056" fill="url(#SvgjsLinearGradient14057)" d="M92.44 90.22c0 8.84-7.39 16.6-20.48 16.6 -16.38 0-20.65-11.45-20.65-24.83l0.05-1.04c0.27-5.62 4.9-9.15 10.53-9.15h20.35c5.47 0 9.93 3.49 10.03 8.96L92.44 90.22zM107.56 90.22c0 8.84 7.39 16.6 20.48 16.6 16.38 0 20.65-11.45 20.65-24.83l-0.05-1.04c-0.27-5.62-4.9-9.15-10.53-9.15h-20.35c-5.47 0-9.93 3.49-10.03 8.96L107.56 90.22z" opacity="1"/><path id="SvgjsPath14060" fill="#5b1d0d" stroke-width="none" d="M92.27 80.78l0.03 1.84c-14.9-1.38-29.39-1.68-40.99-0.32 0-0.1 0-0.2 0-0.3l0.05-1.04c0.27-5.62 4.9-9.15 10.53-9.15h20.35C87.7 71.81 92.16 75.31 92.27 80.78zM148.64 80.96c-0.27-5.62-4.9-9.15-10.53-9.15h-20.35c-5.47 0-9.93 3.49-10.03 8.96l-0.07 3.61c14.53 2 28.61 4.82 39.91 7.92 0.79-3.17 1.11-6.67 1.11-10.32L148.64 80.96z" opacity=".1"/><path id="SvgjsPath14061" fill="#e05f48" stroke="none" stroke-width="none" d="M155.94 74.61c0-4.73-45.04-9.31-48.35-0.2 -0.25 0.69-0.44 0.9-1.1 0.93 -0.8 0.03-3.31-0.22-6.49-0.22 -3.09 0-5.59 0.23-6.41 0.22 -0.72-0.01-0.92-0.21-1.18-0.93 -3.3-9.11-48.35-4.52-48.35 0.2 0 2.88-0.4 4.35 0.8 4.72 2.08 0.64 2.96 2.54 3.59 7.18 0.31 2.29 2.36 2.06 4.14 2.06 -3.18-14.86 4.56-15.07 9.4-15.67 11.34-1.4 27.9-1.44 29.86 9.83 0.88 5.06 0.3 7.87-0.82 12.57 1.08-0.02 1.65-0.07 2.39-0.75 1.35-2.71 1.86-5.18 2.4-9.67 0.12-0.97-0.3-1.45-0.89-2.09 -0.25-0.26-0.37-0.62-0.34-0.98 0.02-0.32 0.17-0.56 0.38-0.77 0.81-0.84 3.76-0.95 5.02-1.01 1.31 0.06 4.38 0.17 5.11 1.11 0.15 0.19 0.26 0.4 0.28 0.67 0.03 0.36-0.09 0.71-0.34 0.98 -0.59 0.64-1.01 1.12-0.89 2.09 0.54 4.49 1.05 6.96 2.4 9.67 0.74 0.68 1.31 0.73 2.39 0.75 -1.12-4.7-1.7-7.51-0.82-12.57 1.97-11.27 18.52-11.23 29.86-9.83 4.85 0.6 12.58 0.81 9.4 15.67 1.78 0 3.83 0.23 4.14-2.06 0.63-4.65 1.52-6.54 3.59-7.18C156.33 78.96 155.94 77.49 155.94 74.61z" opacity="1"/><path id="SvgjsPath14062" fill="#d1472e" stroke="none" stroke-width="none" d="M100 75.11c-3.09 0-5.59 0.23-6.41 0.22l1.39 5.72c0.81-0.84 3.76-0.95 5.02-1.01 1.31 0.06 4.38 0.17 5.11 1.11l1.38-5.83C105.69 75.36 103.18 75.11 100 75.11z" opacity="1"/><path id="SvgjsPath14063" fill="#ef7a65" stroke="none" stroke-width="none" d="M106.44 75.82c-6.3-0.57-9.99-0.33-12.81 0C98.04 74.74 102.53 74.86 106.44 75.82zM154.12 73.51c-2.04-1.42-9.85-3.12-17.13-3.54 -2.01-0.13-3.55-0.16-3.55-0.16 14.36 2.05 15.9 2.67 15.9 2.67 6.04 1.48 5.13 1.28 5.36 6.08C154.88 76.52 155.21 74.45 154.12 73.51zM145.18 74.44c1.15 0.66 2.72 1.78 3.33 5.12 0.3 1.71 0.32 4.59-0.21 6.37C150.09 81.79 149.49 76.05 145.18 74.44zM109.52 78.93c-1.14 1.7-2.31 3.75-2.29 8.09 0.01 3.25 0.75 6.23 1.73 8.29C107.3 90.4 106.94 83.76 109.52 78.93zM113.14 71.52c1.34-0.44 3.61-1.05 3.61-1.05 0 0-7.58 0.74-8.56 4.23C109.11 72.55 113.14 71.52 113.14 71.52zM45.3 78.56c0.24-4.79-0.68-4.59 5.36-6.08 0 0 1.54-0.62 15.9-2.67 0 0-1.54 0.04-3.55 0.16 -7.28 0.41-15.09 2.12-17.13 3.54C44.79 74.45 45.12 76.52 45.3 78.56zM51.71 85.93c-0.53-1.78-0.52-4.66-0.21-6.37 0.6-3.34 2.17-4.46 3.33-5.12C50.51 76.05 49.91 81.79 51.71 85.93zM91.04 95.31c0.97-2.06 1.72-5.05 1.73-8.29 0.02-4.34-1.15-6.39-2.29-8.09C93.06 83.76 92.7 90.4 91.04 95.31zM91.81 74.7c-0.98-3.48-8.56-4.23-8.56-4.23 0 0 2.27 0.6 3.61 1.05C86.86 71.52 90.89 72.55 91.81 74.7z" opacity="1"/></g></g></g></g></g><rect id="SvgjsRect13779" width="200" height="15" x="0" y="185" fill="#ecf0f1" opacity=".5" style="display:none"/><text id="SvgjsText13780" x="38.7" y="182.428" fill="#333" anchor="start" font-family="Roboto, Helvetica, Arial, sans-serif" font-size="10" font-weight="400" text-anchor="start" style="display:none"><tspan id="SvgjsTspan13781" x="38.7" dy="13">Created on svgAvatars.com</tspan></text></g></svg>